<svg width="16" height="16" viewBox="0 0 16 16" fill="none" xmlns="http://www.w3.org/2000/svg">
<path d="M6.93313 3.59629L6.9336 3.59656L8.9936 4.78323L11.0531 5.96962C11.0532 5.96966 11.0533 5.9697 11.0533 5.96973C12.1906 6.62601 12.593 7.38867 12.593 8.00001C12.593 8.61139 12.1905 9.3741 11.0531 10.0304C9.77632 10.7671 9.26197 11.0634 9.06688 11.1755L9.02216 11.2011C9.01257 11.2061 9.00305 11.2113 8.9936 11.2168L8.99114 11.2182L8.99111 11.2182L8.99103 11.2183L8.99072 11.2185L8.98964 11.2191L6.9336 12.4035L6.93313 12.4037C5.79551 13.0602 4.93446 13.027 4.40569 12.7215C3.87679 12.4159 3.41797 11.6862 3.41797 10.3733V8.00001V5.62668C3.41797 4.31378 3.87679 3.58416 4.40569 3.27857C4.93446 2.97304 5.79551 2.93986 6.93313 3.59629Z" fill="white" stroke="white" stroke-width="1.5" stroke-miterlimit="10" stroke-linecap="round" stroke-linejoin="round"/>
</svg>
