<svg width="1296" height="618" viewBox="0 0 1296 618" fill="none" xmlns="http://www.w3.org/2000/svg">
<path fill-rule="evenodd" clip-rule="evenodd" d="M-524.423 -53C-512.447 -18.3143 -504.305 36.1772 -518.812 86.9505C-533.329 137.757 -570.512 184.786 -649.078 204.518C-688.192 214.341 -713.663 235.245 -729.109 262.671C-744.561 290.109 -750.001 324.114 -748.975 360.171C-746.922 432.293 -718.998 512.484 -693.844 564.319L-694.64 564.714C-719.831 512.805 -747.82 432.457 -749.879 360.128C-750.908 323.959 -745.455 289.76 -729.892 262.126C-714.323 234.482 -688.659 213.446 -649.345 203.573C-571.057 183.912 -534.107 137.099 -519.679 86.605C-505.242 36.0781 -513.344 -18.188 -525.268 -52.7245L-524.423 -53ZM-161.949 90.5816C-150.64 38.7255 -162.152 -14.9382 -176.255 -48.5275L-177.088 -48.1931C-163.045 -14.7482 -151.586 38.697 -162.842 90.3066C-174.09 141.883 -208.033 191.677 -284.891 217.861C-323.488 231.01 -347.775 254.145 -361.582 283.023C-375.383 311.889 -378.694 346.455 -375.416 382.442C-368.861 454.407 -335.945 532.194 -307.589 581.853L-306.813 581.403C-335.128 531.817 -367.969 454.18 -374.506 382.417C-377.774 346.54 -374.464 312.165 -360.759 283.5C-347.059 254.846 -322.955 231.858 -284.555 218.776C-207.422 192.499 -173.266 142.47 -161.949 90.5816ZM-129.041 -47.8817C-114.639 -14.4636 -102.651 39.0588 -113.498 91.0476C-124.352 143.069 -158.061 193.505 -234.957 220.707C-273.237 234.249 -297.136 257.525 -310.58 286.342C-324.03 315.171 -327.033 349.584 -323.446 385.42C-316.272 457.1 -282.741 534.339 -253.987 583.582L-254.76 584.04C-283.556 534.725 -317.162 457.337 -324.357 385.455C-327.955 349.509 -324.952 314.906 -311.408 285.875C-297.86 256.834 -273.78 233.408 -235.302 219.797C-158.68 192.692 -125.182 142.493 -114.394 90.783C-103.598 39.0407 -115.532 -14.2643 -129.872 -47.5388L-129.041 -47.8817ZM-59.4205 91.5027C-49.0369 39.3868 -61.5005 -13.9887 -76.1986 -47.2321L-77.0271 -46.8806C-62.3921 -13.78 -49.9845 39.379 -60.3191 91.2484C-70.6473 143.085 -103.697 193.684 -180.073 221.707C-218.428 235.78 -242.298 259.494 -255.588 288.696C-268.872 317.887 -271.567 352.524 -267.649 388.425C-259.815 460.217 -225.522 537.197 -196.288 586.164L-195.519 585.698C-224.71 536.803 -258.926 459.971 -266.738 388.38C-270.644 352.589 -267.946 318.142 -254.754 289.153C-241.567 260.176 -217.876 236.613 -179.718 222.613C-103.069 194.489 -69.8108 143.651 -59.4205 91.5027ZM-28.9744 -46.5827C-13.9813 -13.5175 -1.04346 39.7053 -10.9628 91.9429C-20.8883 144.213 -53.6921 195.447 -130.087 224.49C-168.119 238.948 -191.598 262.793 -204.527 291.928C-217.461 321.074 -219.851 355.552 -215.627 391.294C-207.179 462.787 -172.281 539.205 -142.656 587.747L-143.422 588.22C-173.09 539.607 -208.066 463.043 -216.539 391.349C-220.776 355.497 -218.389 320.83 -205.365 291.481C-192.337 262.121 -168.679 238.122 -130.452 223.589C-54.3289 194.65 -21.7307 143.658 -11.8644 91.699C-1.99182 39.708 -14.8718 -13.2994 -29.8005 -46.2225L-28.9744 -46.5827ZM43.1211 92.3698C52.5751 40.0162 39.1644 -13.0482 23.8778 -45.9316L23.0541 -45.5628C38.275 -12.8207 51.6261 40.0294 42.2167 92.1364C32.8131 144.211 0.670288 195.593 -75.1908 225.444C-113.287 240.435 -136.73 264.716 -149.496 294.231C-162.258 323.734 -164.336 358.428 -159.781 394.227C-150.671 465.816 -115.015 541.955 -84.9161 590.21L-84.1534 589.729C-114.208 541.545 -149.784 465.551 -158.869 394.162C-163.411 358.473 -161.327 323.968 -148.653 294.668C-135.984 265.379 -112.718 241.253 -74.8173 226.339C1.31543 196.381 33.6614 144.756 43.1211 92.3698ZM71.1121 -45.2781C86.6904 -12.58 100.573 40.3204 91.585 92.7844C82.5919 145.281 50.7073 197.291 -25.1548 228.162C-62.9205 243.53 -85.9712 267.935 -98.3788 297.374C-110.791 326.825 -112.568 361.353 -107.709 396.986C-97.9895 468.262 -61.739 543.825 -31.2571 591.645L-32.0164 592.135C-62.5431 544.244 -98.874 468.536 -108.621 397.061C-113.495 361.319 -111.725 326.602 -99.2268 296.948C-86.7235 267.281 -63.4984 242.72 -25.5375 227.272C50.0538 196.512 81.7379 144.747 90.6777 92.5616C99.623 40.3441 85.8022 -12.343 70.2909 -44.9007L71.1121 -45.2781ZM145.675 93.1849C154.195 40.6161 139.843 -12.1147 123.974 -44.624L123.156 -44.2379C138.956 -11.8682 153.245 40.6503 144.765 92.9727C136.29 145.263 105.068 197.405 29.7543 229.072C-8.06726 244.974 -31.0724 269.813 -43.3109 299.628C-55.5447 329.431 -57.005 364.167 -51.8134 399.849C-41.4313 471.203 -4.42871 546.47 26.5227 593.992L27.2783 593.495C-3.62744 546.043 -40.5485 470.919 -50.9015 399.764C-56.0774 364.191 -54.6082 329.642 -42.4584 300.044C-30.3134 270.457 -7.48083 245.777 30.146 229.957C105.729 198.177 137.149 145.786 145.675 93.1849ZM171.219 -43.9685C187.376 -11.6514 202.196 40.904 194.144 93.5721C186.087 146.272 155.136 199.037 79.839 231.723C42.3549 247.995 19.7432 272.947 7.86206 302.679C-4.02393 332.422 -5.18555 366.986 0.306641 402.495C11.2922 473.522 48.8798 548.199 80.2062 595.277L79.4542 595.782C48.0817 548.634 10.4113 473.816 -0.605225 402.59C-6.11401 366.973 -4.96289 332.221 7.00488 302.273C18.9774 272.313 41.7603 247.2 79.4384 230.844C154.466 198.275 185.222 145.76 193.232 93.3706C201.246 40.9489 186.49 -11.3954 170.403 -43.5737L171.219 -43.9685ZM248.239 93.9466C255.822 41.1849 240.535 -11.1897 224.091 -43.311L223.278 -42.9075C239.651 -10.9241 254.872 41.2404 247.324 93.7558C239.782 146.239 209.494 199.12 134.76 232.588C97.2295 249.396 74.6715 274.782 62.9663 304.883C51.2657 334.973 50.4238 369.736 56.2494 405.286C67.899 476.375 106.233 550.738 138.024 597.506L138.772 596.993C107.028 550.293 68.7781 476.072 57.1609 405.181C51.353 369.739 52.2072 335.163 63.8278 305.278C75.4438 275.406 97.8324 250.183 135.17 233.462C210.172 199.874 240.652 146.74 248.239 93.9466ZM276.969 -42.6528C293.697 -10.7307 309.45 41.4574 302.337 94.3071C295.22 147.189 265.214 200.686 190.515 235.173C153.328 252.341 131.165 277.831 119.816 307.841C108.462 337.864 107.915 372.449 114.038 407.819C126.286 478.567 165.194 552.326 197.351 598.641L196.607 599.162C164.402 552.778 125.408 478.88 113.127 407.934C106.985 372.457 107.518 337.686 118.95 307.457C130.387 277.217 152.717 251.561 190.097 234.304C264.528 199.94 294.344 146.698 301.42 94.1271C308.499 41.5237 292.815 -10.4555 276.159 -42.2405L276.969 -42.6528ZM350.814 94.6552C357.456 41.7231 341.24 -10.2729 324.228 -41.9925L323.421 -41.5714C340.36 -9.98804 356.506 41.8001 349.894 94.4859C343.287 147.14 313.946 200.737 239.824 235.992C202.601 253.697 180.5 279.619 169.333 309.995C158.17 340.359 157.947 375.135 164.404 410.537C177.316 481.331 216.965 554.757 249.582 600.752L250.322 600.223C217.754 554.296 178.191 481.009 165.315 410.411C158.878 375.117 159.116 340.527 170.203 310.369C181.285 280.224 203.22 254.469 240.251 236.855C314.64 201.473 344.168 147.619 350.814 94.6552ZM378.053 -41.331C395.346 -9.81733 412.024 41.9811 405.853 94.9899C399.679 148.031 370.632 202.236 296.562 238.51C259.69 256.567 237.985 282.584 227.171 312.861C216.354 343.15 216.423 377.741 223.174 412.956C236.678 483.396 276.891 556.204 309.866 601.738L309.129 602.275C276.106 556.674 235.805 483.728 222.264 413.092C215.492 377.77 215.406 342.994 226.298 312.498C237.194 281.989 259.063 255.803 296.127 237.652C369.931 201.509 398.794 147.562 404.932 94.8315C411.074 42.0689 394.468 -9.52279 377.249 -40.9011L378.053 -41.331ZM454.335 95.3102C460.033 42.2304 442.896 -9.36492 425.323 -40.6693L424.522 -40.2306C442.019 -9.06067 459.084 42.329 453.411 95.1627C447.742 147.965 419.361 202.255 345.883 239.283C308.982 257.878 287.347 284.325 276.723 314.962C266.104 345.587 266.5 380.361 273.585 415.599C287.754 486.068 328.702 558.527 362.129 603.729L362.861 603.184C329.483 558.049 288.625 485.727 274.495 415.453C267.431 380.321 267.053 345.732 277.601 315.315C288.144 284.909 309.617 258.633 346.327 240.134C420.07 202.973 448.633 148.422 454.335 95.3102ZM478.221 -40.0065C496.071 -8.91481 513.667 42.4719 508.441 95.6171C503.212 148.794 475.136 203.686 401.728 241.73C365.184 260.668 343.947 287.201 333.674 317.732C323.398 348.274 324.083 382.857 331.459 417.902C346.214 488.003 387.714 559.83 421.492 604.562L420.764 605.115C386.936 560.317 345.346 488.354 330.55 418.059C323.152 382.907 322.447 348.141 332.793 317.39C343.144 286.627 364.542 259.921 401.275 240.884C474.421 202.976 502.317 148.348 507.516 95.4805C512.718 42.5813 495.197 -8.60082 477.423 -39.559L478.221 -40.0065ZM556.926 95.9111C561.679 42.7062 543.627 -8.46641 525.501 -39.3421L524.707 -38.8858C542.755 -8.14265 560.73 42.8265 555.999 95.7855C551.271 148.713 523.862 203.673 451.058 242.457C414.496 261.934 393.336 288.895 383.26 319.781C373.188 350.654 374.203 385.41 381.914 420.471C397.334 490.585 439.562 562.044 473.787 606.434L474.51 605.873C440.336 561.549 398.199 490.224 382.821 420.304C375.134 385.349 374.141 350.777 384.145 320.112C394.145 289.46 415.146 262.673 451.518 243.297C524.584 204.373 552.17 149.148 556.926 95.9111ZM578.409 -38.6774C596.809 -8.02098 615.315 42.9321 611.036 96.1911C606.754 149.482 579.662 205.035 506.946 244.834C470.747 264.646 449.987 291.683 440.26 322.454C430.529 353.237 431.829 387.796 439.828 422.658C455.827 492.389 498.596 563.204 533.163 607.116L532.444 607.685C497.826 563.708 454.964 492.759 438.921 422.835C430.898 387.868 429.575 353.126 439.371 322.134C449.172 291.129 470.091 263.916 506.477 244C578.932 204.344 605.851 149.058 610.108 96.0764C614.367 43.0633 595.939 -7.68743 577.619 -38.2123L578.409 -38.6774ZM659.525 96.4574C663.33 43.1501 644.371 -7.57796 625.7 -38.0118L624.913 -37.5378C643.504 -7.23459 662.382 43.2922 658.595 96.3538C654.81 149.384 628.384 204.991 556.286 245.514C520.079 265.865 499.404 293.329 489.879 324.449C480.359 355.557 481.991 390.282 490.325 425.15C506.989 494.878 550.48 565.308 585.487 608.867L586.202 608.29C551.246 564.796 507.849 494.498 491.23 424.962C482.922 390.199 481.314 355.657 490.771 324.759C500.223 293.872 520.743 266.588 556.763 246.342C629.121 205.672 655.717 149.796 659.525 96.4574ZM678.618 -37.3436C697.56 -7.13554 716.969 43.3621 713.638 96.7121C710.306 150.094 684.208 206.286 612.216 247.822C576.378 268.499 556.102 296.029 546.925 327.027C537.744 358.038 539.659 392.558 548.276 427.22C565.513 496.552 609.533 566.326 644.874 609.398L644.164 609.983C608.771 566.847 564.656 496.943 547.372 427.418C538.728 392.652 536.787 357.949 546.03 326.729C555.277 295.496 575.706 267.786 611.731 247.001C683.465 205.614 709.394 149.692 712.707 96.6196C716.022 43.5152 696.695 -6.78234 677.835 -36.8607L678.618 -37.3436ZM762.129 96.9514C764.985 43.5644 745.128 -6.69743 725.919 -36.6765L725.139 -36.1847C744.266 -6.33437 764.039 43.7285 761.197 96.8699C758.356 149.98 732.926 206.21 661.565 248.456C625.727 269.672 605.545 297.626 596.577 328.968C587.612 360.298 589.862 394.975 598.814 429.636C616.716 498.949 661.451 568.32 697.226 611.029L697.931 610.436C662.209 567.79 617.57 498.549 599.717 429.427C590.792 394.871 588.57 360.375 597.474 329.256C606.375 298.149 626.405 270.377 662.057 249.271C733.676 206.873 759.272 150.37 762.129 96.9514ZM773.224 -36.0077C792.699 -6.26091 813.002 43.7597 810.622 97.1781C808.24 150.628 783.148 207.435 711.91 250.691C676.448 272.224 656.667 300.235 648.043 331.447C639.416 362.671 641.945 397.139 651.177 431.586C669.644 500.49 714.896 569.192 750.996 611.406L750.296 612.007C714.143 569.73 668.793 500.9 650.275 431.805C641.015 397.254 638.457 362.606 647.142 331.17C655.831 299.722 675.763 271.527 711.41 249.882C782.392 206.781 807.321 150.249 809.689 97.1077C812.058 43.9349 791.84 -5.88799 772.449 -35.5071L773.224 -36.0077ZM859.116 97.3903C861.021 43.9463 840.273 -5.82786 820.535 -35.3393L819.764 -34.8298C839.417 -5.44505 860.078 44.1325 858.182 97.3311C856.287 150.498 831.862 207.327 761.268 251.277C725.815 273.349 706.135 301.782 697.727 333.332C689.321 364.871 692.188 399.487 701.755 433.925C720.887 502.793 766.846 571.075 803.374 612.916L804.069 612.307C767.596 570.528 721.734 502.374 702.655 433.695C693.117 399.36 690.281 364.925 698.63 333.599C706.976 302.284 726.507 274.038 761.776 252.08C832.625 207.971 857.21 150.866 859.116 97.3903ZM867.851 -34.6705C887.851 -5.3977 909.04 44.1246 907.611 97.5885C906.181 151.084 882.105 208.481 811.652 253.438C776.581 275.818 757.302 304.298 749.235 335.711C741.166 367.136 744.308 401.535 754.151 435.754C773.84 504.2 820.306 571.8 857.149 613.139L856.459 613.755C819.561 572.355 772.996 504.629 753.253 435.994C743.38 401.673 740.205 367.093 748.329 335.456C756.457 303.806 775.883 275.139 811.137 252.642C881.336 207.846 905.254 150.728 906.676 97.5405C908.098 44.3219 886.998 -5.005 867.083 -34.1522L867.851 -34.6705ZM956.106 97.7744C957.06 44.2963 935.431 -4.96894 915.172 -34.0001L914.409 -33.4729C934.581 -4.56634 956.12 44.5046 955.171 97.7375C954.222 150.939 930.814 208.342 861.017 253.978C825.965 276.897 806.795 305.796 798.95 337.541C791.108 369.275 794.59 403.814 804.768 438.015C825.121 506.409 872.285 573.573 909.55 614.528L910.235 613.903C873.026 573.009 825.961 505.97 805.664 437.764C795.517 403.666 792.069 369.306 799.858 337.786C807.645 306.277 826.669 277.568 861.54 254.768C931.589 208.967 955.152 151.284 956.106 97.7744ZM962.498 -33.3292C983.015 -4.54284 1005.08 44.46 1004.6 97.9467C1004.13 151.465 981.076 209.427 911.439 256.067C876.773 279.284 858.005 308.221 850.499 339.821C842.991 371.433 846.744 405.75 857.194 439.725C878.097 507.683 925.756 574.154 963.327 614.599L962.647 615.231C925.02 574.726 877.26 508.132 856.3 439.986C845.818 405.909 842.029 371.413 849.588 339.588C857.151 307.75 876.062 278.622 910.909 255.284C980.296 208.812 1003.19 151.131 1003.67 97.921C1004.14 44.6794 982.168 -4.13033 961.74 -32.7931L962.498 -33.3292ZM1053.1 98.1044C1053.1 44.6149 1030.6 -4.12035 1009.83 -32.6588L1009.08 -32.1139C1029.76 -3.69793 1052.17 44.8454 1052.16 98.0899C1052.16 151.303 1029.78 209.256 960.811 256.558C926.174 280.314 907.523 309.667 900.244 341.594C892.968 373.508 897.064 407.957 907.848 441.906C929.414 509.797 977.764 575.813 1015.75 615.865L1016.42 615.224C978.495 575.233 930.247 509.338 908.74 441.634C897.988 407.786 893.93 373.517 901.157 341.816C908.381 310.127 926.891 280.967 961.348 257.335C1030.57 209.862 1053.1 151.625 1053.1 98.1044ZM1057.17 -31.9872C1078.19 -3.69967 1101.12 44.7628 1101.6 98.2494C1102.07 151.767 1080.06 210.271 1011.27 258.573C977.022 282.617 958.773 311.998 951.832 343.772C944.887 375.558 949.25 409.777 960.303 443.494C982.41 510.936 1031.24 576.248 1069.52 615.782L1068.86 616.43C1030.52 576.837 981.582 511.405 959.413 443.777C948.327 409.959 943.925 375.561 950.916 343.561C957.91 311.548 976.299 281.973 1010.72 257.803C1079.27 209.675 1101.13 151.457 1100.66 98.2461C1100.19 45.0044 1077.35 -3.26733 1056.42 -31.4335L1057.17 -31.9872ZM1150.1 98.3798C1149.15 44.9019 1125.78 -3.28267 1104.51 -31.3163L1103.76 -30.7537C1124.95 -2.84042 1148.21 45.1546 1149.16 98.3878C1150.11 151.59 1128.76 210.068 1060.65 259.016C1026.44 283.598 1008.31 313.392 1001.61 345.487C994.899 377.57 999.607 411.913 1010.99 445.596C1033.76 512.954 1083.28 577.796 1121.97 616.926L1122.63 616.27C1084 577.198 1034.59 512.476 1011.88 445.303C1000.53 411.72 995.861 377.555 1002.52 345.688C1009.18 313.832 1027.17 284.234 1061.2 259.779C1129.56 210.654 1151.05 151.889 1150.1 98.3798ZM1151.85 -30.6451C1173.38 -2.86847 1197.17 45.033 1198.59 98.4966C1200.02 151.992 1179.06 211.011 1111.14 260.955C1077.33 285.816 1059.6 315.629 1053.23 347.563C1046.85 379.509 1051.82 413.616 1063.47 447.06C1086.78 513.957 1136.76 578.082 1175.74 616.689L1175.08 617.353C1136.05 578.689 1085.96 514.445 1062.59 447.364C1050.9 413.819 1045.89 379.535 1052.31 347.374C1058.73 315.2 1076.59 285.19 1110.58 260.198C1178.25 210.435 1199.08 151.704 1197.66 98.5158C1196.24 45.2968 1172.55 -2.41631 1151.12 -30.0738L1151.85 -30.6451ZM1247.09 98.6004C1245.19 45.1567 1220.98 -2.45649 1199.21 -29.9732L1198.47 -29.3931C1220.15 -1.99443 1244.26 45.4317 1246.16 98.6308C1248.05 151.799 1227.75 210.777 1160.52 261.35C1126.76 286.748 1109.17 316.972 1103.03 349.221C1096.9 381.457 1102.22 415.68 1114.2 449.082C1138.16 515.879 1188.82 579.518 1228.2 617.711L1228.85 617.039C1189.53 578.903 1138.98 515.381 1115.08 448.768C1103.13 415.465 1097.86 381.42 1103.95 349.399C1110.04 317.39 1127.5 287.366 1161.09 262.1C1228.56 211.344 1249 152.075 1247.09 98.6004ZM1295.59 98.69C1293.22 45.272 1268.58 -2.04798 1246.56 -29.3019L1245.83 -28.713C1267.75 -1.57603 1292.29 45.558 1294.66 98.7316C1297.02 151.874 1277.25 211.092 1210.47 262.47C1176.94 288.273 1159.62 318.705 1153.77 351.027C1147.92 383.335 1153.54 417.492 1165.82 450.748C1190.38 517.254 1241.6 580.282 1281.32 618L1281.96 617.32C1242.31 579.658 1191.19 516.747 1166.7 450.424C1154.46 417.266 1148.88 383.286 1154.69 351.193C1160.5 319.114 1177.68 288.881 1211.04 263.213C1278.06 211.65 1297.97 152.139 1295.59 98.69ZM-216.958 90.1025C-205.188 38.3846 -216.221 -15.4146 -230.025 -49.1715L-230.86 -48.8456C-217.115 -15.2339 -206.133 38.3459 -217.847 89.8172C-229.553 141.256 -263.937 190.64 -341.025 215.899C-379.736 228.584 -404.228 251.426 -418.291 280.137C-432.349 308.836 -435.967 343.36 -433.009 379.385C-427.095 451.426 -394.873 529.603 -366.961 579.6L-366.182 579.158C-394.054 529.234 -426.202 451.207 -432.1 379.37C-435.048 343.456 -431.433 309.123 -417.473 280.624C-403.52 252.136 -379.212 229.438 -340.698 216.818C-263.335 191.469 -228.735 141.853 -216.958 90.1025ZM-277.229 -49.8151C-263.727 -15.8944 -253.172 38.0347 -265.402 89.6088C-277.64 141.216 -312.68 190.413 -390.264 214.833C-428.888 226.99 -453.396 249.394 -467.602 277.713C-481.814 306.042 -485.735 340.33 -483.107 376.277C-477.849 448.181 -446.396 526.59 -418.97 576.846L-419.752 577.28C-447.218 526.951 -478.743 448.391 -484.015 376.283C-486.652 340.224 -482.727 305.745 -468.415 277.216C-454.097 248.675 -429.403 226.128 -390.581 213.909C-313.272 189.576 -278.451 140.608 -266.288 89.3133C-254.116 37.9857 -264.621 -15.7228 -278.066 -49.4977L-277.229 -49.8151ZM-319.466 89.1034C-306.778 37.6785 -316.851 -16.3746 -330.052 -50.4557L-330.89 -50.1467C-317.747 -16.2122 -307.72 37.6194 -320.348 88.7978C-332.967 139.943 -368.221 188.491 -445.742 211.894C-484.671 223.646 -509.565 245.896 -524.136 274.263C-538.701 302.619 -542.933 337.05 -540.617 373.138C-535.987 445.305 -505.163 524.24 -478.146 574.896L-477.361 574.47C-504.339 523.888 -535.092 445.105 -539.709 373.142C-542.018 337.165 -537.792 302.927 -523.329 274.77C-508.872 246.624 -484.166 224.515 -445.435 212.822C-367.638 189.335 -332.162 140.561 -319.466 89.1034ZM-377.246 -51.0951C-364.35 -16.8574 -354.757 37.314 -367.902 88.5841C-381.056 139.887 -416.964 188.233 -494.966 210.784C-533.799 222.011 -558.7 243.823 -573.407 271.793C-588.12 299.775 -592.65 333.961 -590.662 369.963C-586.685 441.978 -556.634 521.125 -530.108 572.028L-530.896 572.447C-557.461 521.47 -587.58 442.169 -591.569 369.949C-593.563 333.835 -589.025 299.457 -574.208 271.277C-559.385 243.086 -534.295 221.136 -495.264 209.852C-417.538 187.381 -381.854 139.259 -368.781 88.2685C-355.699 37.2448 -365.246 -16.7041 -378.086 -50.7946L-377.246 -51.0951ZM-421.959 88.052C-408.358 36.942 -417.468 -17.3419 -430.059 -51.7326L-430.901 -51.4405C-418.364 -17.1976 -409.298 36.8628 -422.833 87.7263C-436.359 138.557 -472.47 186.247 -550.391 207.784C-589.521 218.599 -614.805 240.246 -629.878 268.258C-644.945 296.259 -649.789 330.581 -648.116 366.718C-644.771 438.981 -615.358 518.64 -589.248 569.933L-588.458 569.522C-614.529 518.303 -643.874 438.799 -647.21 366.741C-648.878 330.717 -644.044 296.588 -629.083 268.784C-614.128 240.992 -589.034 219.481 -550.104 208.721C-471.905 187.107 -435.568 139.195 -421.959 88.052ZM-477.243 -52.3668C-464.959 -17.8267 -456.333 36.5639 -470.388 87.5082C-484.452 138.486 -521.214 185.959 -599.6 206.633C-638.624 216.925 -663.908 238.133 -679.109 265.744C-694.316 293.366 -699.454 327.435 -698.107 363.478C-695.412 435.572 -666.777 515.424 -641.162 566.953L-641.955 567.356C-667.607 515.752 -696.309 435.745 -699.012 363.445C-700.363 327.29 -695.214 293.028 -679.899 265.209C-664.577 237.379 -639.101 216.037 -599.877 205.692C-521.768 185.092 -485.236 137.837 -471.258 87.1726C-457.271 36.4747 -465.856 -17.6914 -478.087 -52.083L-477.243 -52.3668Z" fill="url(#paint0_linear_500_256)" fill-opacity="0.08"/>
<defs>
<linearGradient id="paint0_linear_500_256" x1="41.4205" y1="-52.9726" x2="354.149" y2="642.262" gradientUnits="userSpaceOnUse">
<stop/>
<stop offset="0.703125" stop-opacity="0.3"/>
<stop offset="1" stop-opacity="0"/>
</linearGradient>
</defs>
</svg>
