<svg width="16" height="16" viewBox="0 0 16 16" fill="none" xmlns="http://www.w3.org/2000/svg">
<g clip-path="url(#clip0_48_1446)">
<path d="M8 1.44062C10.1375 1.44062 10.3906 1.45 11.2312 1.4875C12.0125 1.52187 12.4344 1.65313 12.7156 1.7625C13.0875 1.90625 13.3562 2.08125 13.6344 2.35937C13.9156 2.64062 14.0875 2.90625 14.2312 3.27813C14.3406 3.55937 14.4719 3.98437 14.5062 4.7625C14.5437 5.60625 14.5531 5.85938 14.5531 7.99375C14.5531 10.1312 14.5437 10.3844 14.5062 11.225C14.4719 12.0063 14.3406 12.4281 14.2312 12.7094C14.0875 13.0813 13.9125 13.35 13.6344 13.6281C13.3531 13.9094 13.0875 14.0813 12.7156 14.225C12.4344 14.3344 12.0094 14.4656 11.2312 14.5C10.3875 14.5375 10.1344 14.5469 8 14.5469C5.8625 14.5469 5.60937 14.5375 4.76875 14.5C3.9875 14.4656 3.56562 14.3344 3.28437 14.225C2.9125 14.0813 2.64375 13.9062 2.36562 13.6281C2.08437 13.3469 1.9125 13.0813 1.76875 12.7094C1.65937 12.4281 1.52812 12.0031 1.49375 11.225C1.45625 10.3813 1.44687 10.1281 1.44687 7.99375C1.44687 5.85625 1.45625 5.60312 1.49375 4.7625C1.52812 3.98125 1.65937 3.55937 1.76875 3.27813C1.9125 2.90625 2.0875 2.6375 2.36562 2.35937C2.64687 2.07812 2.9125 1.90625 3.28437 1.7625C3.56562 1.65313 3.99062 1.52187 4.76875 1.4875C5.60937 1.45 5.8625 1.44062 8 1.44062ZM8 0C5.82812 0 5.55625 0.009375 4.70312 0.046875C3.85312 0.084375 3.26875 0.221875 2.7625 0.41875C2.23437 0.625 1.7875 0.896875 1.34375 1.34375C0.896875 1.7875 0.625 2.23438 0.41875 2.75938C0.221875 3.26875 0.084375 3.85 0.046875 4.7C0.009375 5.55625 0 5.82812 0 8C0 10.1719 0.009375 10.4437 0.046875 11.2969C0.084375 12.1469 0.221875 12.7312 0.41875 13.2375C0.625 13.7656 0.896875 14.2125 1.34375 14.6562C1.7875 15.1 2.23438 15.375 2.75937 15.5781C3.26875 15.775 3.85 15.9125 4.7 15.95C5.55312 15.9875 5.825 15.9969 7.99687 15.9969C10.1687 15.9969 10.4406 15.9875 11.2937 15.95C12.1437 15.9125 12.7281 15.775 13.2344 15.5781C13.7594 15.375 14.2062 15.1 14.65 14.6562C15.0937 14.2125 15.3687 13.7656 15.5719 13.2406C15.7687 12.7312 15.9062 12.15 15.9437 11.3C15.9812 10.4469 15.9906 10.175 15.9906 8.00313C15.9906 5.83125 15.9812 5.55937 15.9437 4.70625C15.9062 3.85625 15.7687 3.27187 15.5719 2.76562C15.375 2.23437 15.1031 1.7875 14.6562 1.34375C14.2125 0.9 13.7656 0.625 13.2406 0.421875C12.7312 0.225 12.15 0.0875 11.3 0.05C10.4437 0.009375 10.1719 0 8 0Z" fill="white" fill-opacity="0.8"/>
<path d="M8 3.89062C5.73125 3.89062 3.89062 5.73125 3.89062 8C3.89062 10.2687 5.73125 12.1094 8 12.1094C10.2687 12.1094 12.1094 10.2687 12.1094 8C12.1094 5.73125 10.2687 3.89062 8 3.89062ZM8 10.6656C6.52813 10.6656 5.33437 9.47187 5.33437 8C5.33437 6.52813 6.52813 5.33437 8 5.33437C9.47187 5.33437 10.6656 6.52813 10.6656 8C10.6656 9.47187 9.47187 10.6656 8 10.6656Z" fill="white" fill-opacity="0.8"/>
<path d="M13.2312 3.72808C13.2312 4.25933 12.8 4.68746 12.2719 4.68746C11.7406 4.68746 11.3125 4.25621 11.3125 3.72808C11.3125 3.19683 11.7438 2.76871 12.2719 2.76871C12.8 2.76871 13.2312 3.19996 13.2312 3.72808Z" fill="white" fill-opacity="0.8"/>
</g>
<defs>
<clipPath id="clip0_48_1446">
<rect width="16" height="16" fill="white"/>
</clipPath>
</defs>
</svg>
