<svg width="13" height="12" viewBox="0 0 13 12" fill="none" xmlns="http://www.w3.org/2000/svg">
<path fill-rule="evenodd" clip-rule="evenodd" d="M2 3.25C2 1.93739 2.01405 1.5 3.75 1.5C5.48595 1.5 5.5 1.93739 5.5 3.25C5.5 4.56261 5.50554 5 3.75 5C1.99446 5 2 4.56261 2 3.25Z" stroke="#8A8998" stroke-width="0.7" stroke-linecap="round" stroke-linejoin="round"/>
<path fill-rule="evenodd" clip-rule="evenodd" d="M7.5 3.25C7.5 1.93739 7.51405 1.5 9.25 1.5C10.9859 1.5 11 1.93739 11 3.25C11 4.56261 11.0055 5 9.25 5C7.49446 5 7.5 4.56261 7.5 3.25Z" stroke="#8A8998" stroke-width="0.7" stroke-linecap="round" stroke-linejoin="round"/>
<path fill-rule="evenodd" clip-rule="evenodd" d="M2 8.75C2 7.43739 2.01405 7 3.75 7C5.48595 7 5.5 7.43739 5.5 8.75C5.5 10.0626 5.50554 10.5 3.75 10.5C1.99446 10.5 2 10.0626 2 8.75Z" stroke="#8A8998" stroke-width="0.7" stroke-linecap="round" stroke-linejoin="round"/>
<path fill-rule="evenodd" clip-rule="evenodd" d="M7.5 8.75C7.5 7.43739 7.51405 7 9.25 7C10.9859 7 11 7.43739 11 8.75C11 10.0626 11.0055 10.5 9.25 10.5C7.49446 10.5 7.5 10.0626 7.5 8.75Z" stroke="#8A8998" stroke-width="0.7" stroke-linecap="round" stroke-linejoin="round"/>
</svg>
