<svg width="100" height="40" viewBox="0 0 100 40" fill="none" xmlns="http://www.w3.org/2000/svg">
<g clip-path="url(#clip0_1349_376)">
<path d="M99.6013 13.0789C99.0157 12.6552 97.879 12.0782 95.6947 11.5577C95.0414 11.4019 94.2924 11.2524 93.4384 11.1185C92.3629 10.9432 91.1149 10.7874 89.6733 10.6577L89.4707 10.6398C89.179 9.94391 88.876 9.23284 88.5562 8.48404C88.3863 8.08244 88.223 7.67874 88.0509 7.25058C88.0313 7.19999 88.0094 7.14728 87.9877 7.09669C87.3584 5.52298 86.6811 3.9069 85.5397 2.47149C84.2637 0.879861 82.5869 0.00415039 80.8209 0.00415039C79.0546 0.00415039 77.3799 0.881969 76.1017 2.47149C74.952 3.90479 74.2856 5.52045 73.6563 7.09226L73.5907 7.25058C73.4213 7.67874 73.2577 8.08244 73.0859 8.48404C72.7654 9.23284 72.465 9.94391 72.1711 10.6398L71.9707 10.6577C70.5247 10.7872 69.2767 10.9432 68.199 11.1209C67.3452 11.2568 66.6005 11.4082 65.9493 11.56C63.7716 12.0801 62.626 12.6575 62.0423 13.0812C61.9392 13.1567 61.8587 13.2593 61.8089 13.3774C61.7592 13.4958 61.7421 13.6254 61.7596 13.7526L61.9491 15.1729C62.2364 17.2981 62.5434 19.7939 63.0487 22.3668C63.4212 24.3474 63.943 26.2968 64.6102 28.1972C64.8779 28.9456 65.1762 29.6811 65.5097 30.3924C66.9348 33.2889 69.1395 35.7234 71.8718 37.4168C74.6039 39.1107 77.7538 39.9959 80.9609 39.971C84.1686 39.9464 87.3044 39.0129 90.0106 37.2771C92.7166 35.5413 94.8844 33.0735 96.2652 30.1552C96.5224 29.5844 96.7595 29.0004 96.9775 28.399C98.5323 24.184 99.1312 19.5325 99.6255 15.8382L99.8998 13.733C99.913 13.607 99.8923 13.4798 99.8397 13.3645C99.7875 13.2495 99.7052 13.1508 99.6015 13.0787L99.6013 13.0789ZM80.8075 10.3086C79.035 10.3086 77.4214 10.3415 75.9556 10.4005C76.0338 10.2142 76.1146 10.0274 76.1972 9.8345C76.3823 9.39538 76.5609 8.95625 76.7331 8.51713C77.0913 7.56068 77.5108 6.62848 77.9897 5.72705C78.2072 5.33573 78.4562 4.96283 78.7343 4.61207C79.0914 4.17295 79.8386 3.4155 80.8072 3.4155C81.7766 3.4155 82.5235 4.1643 82.8829 4.61207C83.1607 4.96264 83.4099 5.33578 83.6275 5.72705C84.1052 6.6289 84.5249 7.56111 84.8841 8.51713C85.0561 8.95625 85.2326 9.39538 85.4196 9.8345C85.5026 10.0274 85.5811 10.2142 85.6616 10.4005C84.1956 10.3415 82.5821 10.3086 80.807 10.3086H80.8075Z" fill="#1F2B3D" fill-opacity="0.4"/>
<path d="M19.5298 21.9886V5.45384C19.5298 2.99747 23.0155 1.30929 25.1471 3.59322C25.6486 4.13585 25.9909 4.95253 25.9909 5.97961V21.3876C25.9909 22.5979 25.6517 23.2997 25.0887 23.9418C23.1675 26.1346 19.5298 24.5445 19.5298 21.9886ZM38.7621 25.5239V8.62128L38.7724 8.62297C38.792 8.19334 38.909 7.77361 39.115 7.39563C39.8646 5.9815 41.9707 5.09462 43.7115 6.23132C45.269 7.24827 45.2511 8.78846 45.23 10.6006V10.6016C45.2277 10.8152 45.2252 11.0321 45.2252 11.2528C45.2252 11.4194 45.2228 11.8709 45.2193 12.5114V12.5169C45.2018 15.7815 45.1585 23.9283 45.2728 24.2757C45.3195 24.4054 45.3939 24.5234 45.4908 24.6214C45.5879 24.7193 45.7052 24.7947 45.8346 24.8424C46.1679 24.9817 47.1958 24.9533 48.388 24.9206C50.128 24.8725 52.2184 24.8152 53.0077 25.2551C55.3327 26.5474 55.1512 29.3485 53.7594 30.5282C53.1526 31.0849 52.3573 31.3908 51.5339 31.3843H44.9853C44.1222 31.3531 43.2732 31.1567 42.4842 30.8056C41.8081 30.5161 41.2174 30.0317 40.6902 29.5934C40.5649 29.468 40.4503 29.3324 40.3476 29.1878C40.2261 29.0613 40.1117 28.9282 40.005 28.789C39.4112 28.0012 38.7623 26.5923 38.7623 25.5241L38.7621 25.5239Z" fill="#1F2B3D" fill-opacity="0.4"/>
<path d="M20.6786 33.8405C19.7622 33.0696 19.5305 32.2593 19.5299 31.0871C19.5309 30.0833 20.2253 29.2128 20.8156 28.7697C21.6445 28.1505 22.1846 28.1531 23.4109 28.1588C23.5372 28.1594 23.6715 28.16 23.8131 28.16C24.2169 28.16 24.6195 28.1594 25.0209 28.1583H25.0226C25.8239 28.1562 26.6224 28.1545 27.4203 28.16C28.8667 28.1687 29.146 27.7989 29.146 26.3557C29.1401 24.771 29.1422 23.1857 29.1439 21.6V21.5983C29.145 20.805 29.146 20.0117 29.146 19.2185L29.1456 19.0376C29.1433 17.8617 29.1422 17.2136 30.0926 16.2585C31.4947 14.8462 33.8128 15.1471 34.7817 16.4381C35.3637 17.212 35.6068 17.7156 35.6068 19.0679V27.6279C35.6068 31.8444 32.8249 34.6146 28.6203 34.6146H23.2859C22.1355 34.6146 21.3188 34.3798 20.6784 33.8408L20.6786 33.8405ZM0.299039 24.6258C0.299671 26.0319 0.751651 27.2242 2.10169 27.8537C2.49801 28.0523 2.93547 28.155 3.37878 28.1535H10.2902C13.3923 28.1535 16.3745 25.2021 16.3745 21.6923V12.2303C16.3812 11.3881 16.0665 10.5748 15.4943 9.95668C14.0992 8.50313 11.8152 8.61781 10.6735 10.061C9.9698 10.953 9.9133 11.2917 9.9133 12.8311V19.9685C9.9133 20.0529 9.91436 20.1319 9.91499 20.2061C9.92026 20.7546 9.923 21.034 9.59856 21.381C9.27054 21.7349 9.02262 21.7248 8.53776 21.7062C8.41232 21.7012 8.2715 21.6959 8.10897 21.6959H4.50515C2.83953 21.6959 1.61893 21.8669 0.752705 23.2762C0.581526 23.5395 0.29925 24.2149 0.298828 24.6258H0.299039ZM35.5319 34.3884C35.5319 36.3829 36.8894 37.7699 38.8379 37.7699C42.3131 37.7699 43.0767 32.9503 40.1592 31.6393C37.6959 30.5331 35.5372 32.5175 35.5372 34.3884H35.5319ZM30.0637 11.2357C29.3516 10.5235 29.1463 9.7992 29.1463 8.77213V8.77381C29.1463 7.10482 30.7094 5.69238 32.3767 5.69238C34.0442 5.69238 35.5849 7.16827 35.5849 8.92096C35.5798 11.905 31.993 13.1635 30.0639 11.2357H30.0637Z" fill="#1F2B3D" fill-opacity="0.4"/>
</g>
<defs>
<clipPath id="clip0_1349_376">
<rect width="99.7009" height="40" fill="white" transform="translate(0.298828)"/>
</clipPath>
</defs>
</svg>
