<svg width="101" height="40" viewBox="0 0 101 40" fill="none" xmlns="http://www.w3.org/2000/svg">
<g clip-path="url(#clip0_1344_228)">
<path d="M100.019 13.0789C99.4331 12.6552 98.2964 12.0782 96.1122 11.5577C95.4589 11.4019 94.7099 11.2524 93.8559 11.1185C92.7803 10.9432 91.5323 10.7874 90.0908 10.6577L89.8882 10.6398C89.5965 9.94391 89.2935 9.23284 88.9737 8.48404C88.8038 8.08244 88.6404 7.67874 88.4684 7.25058C88.4488 7.19999 88.4269 7.14728 88.4052 7.09669C87.7759 5.52298 87.0986 3.9069 85.9572 2.47149C84.6812 0.879861 83.0044 0.00415039 81.2384 0.00415039C79.472 0.00415039 77.7974 0.881969 76.5192 2.47149C75.3694 3.90479 74.7031 5.52045 74.0738 7.09226L74.0082 7.25058C73.8387 7.67874 73.6751 8.08244 73.5033 8.48404C73.1829 9.23284 72.8825 9.94391 72.5886 10.6398L72.3881 10.6577C70.9422 10.7872 69.6942 10.9432 68.6165 11.1209C67.7627 11.2568 67.0179 11.4082 66.3667 11.56C64.1891 12.0801 63.0435 12.6575 62.4598 13.0812C62.3567 13.1567 62.2762 13.2593 62.2264 13.3774C62.1766 13.4958 62.1596 13.6254 62.1771 13.7526L62.3666 15.1729C62.6539 17.2981 62.9609 19.7939 63.4662 22.3668C63.8387 24.3474 64.3604 26.2968 65.0277 28.1972C65.2954 28.9456 65.5937 29.6811 65.9272 30.3924C67.3523 33.2889 69.5569 35.7234 72.2893 37.4168C75.0214 39.1107 78.1713 39.9959 81.3784 39.971C84.5861 39.9464 87.7219 39.0129 90.4281 37.2771C93.1341 35.5413 95.3019 33.0735 96.6827 30.1552C96.9399 29.5844 97.177 29.0004 97.395 28.399C98.9497 24.184 99.5487 19.5325 100.043 15.8382L100.317 13.733C100.331 13.607 100.31 13.4798 100.257 13.3645C100.205 13.2495 100.123 13.1508 100.019 13.0787L100.019 13.0789ZM81.2249 10.3086C79.4524 10.3086 77.8389 10.3415 76.3731 10.4005C76.4513 10.2142 76.5321 10.0274 76.6147 9.8345C76.7998 9.39538 76.9783 8.95625 77.1506 8.51713C77.5087 7.56068 77.9283 6.62848 78.4072 5.72705C78.6246 5.33573 78.8737 4.96283 79.1518 4.61207C79.5089 4.17295 80.256 3.4155 81.2247 3.4155C82.194 3.4155 82.9409 4.1643 83.3004 4.61207C83.5782 4.96264 83.8274 5.33578 84.045 5.72705C84.5227 6.6289 84.9424 7.56111 85.3016 8.51713C85.4736 8.95625 85.6501 9.39538 85.8371 9.8345C85.9201 10.0274 85.9985 10.2142 86.0791 10.4005C84.6131 10.3415 82.9995 10.3086 81.2245 10.3086H81.2249Z" fill="url(#paint0_linear_1344_228)"/>
<path d="M19.9473 21.9886V5.45384C19.9473 2.99747 23.433 1.30929 25.5645 3.59322C26.0661 4.13585 26.4084 4.95253 26.4084 5.97961V21.3876C26.4084 22.5979 26.0692 23.2997 25.5062 23.9418C23.585 26.1346 19.9473 24.5445 19.9473 21.9886ZM39.1796 25.5239V8.62128L39.1899 8.62297C39.2095 8.19334 39.3265 7.77361 39.5325 7.39563C40.2821 5.9815 42.3881 5.09462 44.129 6.23132C45.6865 7.24827 45.6686 8.78846 45.6475 10.6006V10.6016C45.6452 10.8152 45.6426 11.0321 45.6426 11.2528C45.6426 11.4194 45.6403 11.8709 45.6367 12.5114V12.5169C45.6192 15.7815 45.576 23.9283 45.6903 24.2757C45.737 24.4054 45.8114 24.5234 45.9083 24.6214C46.0054 24.7193 46.1227 24.7947 46.2521 24.8424C46.5854 24.9817 47.6133 24.9533 48.8054 24.9206C50.5455 24.8725 52.6359 24.8152 53.4252 25.2551C55.7502 26.5474 55.5687 29.3485 54.1769 30.5282C53.5701 31.0849 52.7748 31.3908 51.9514 31.3843H45.4027C44.5397 31.3531 43.6907 31.1567 42.9017 30.8056C42.2256 30.5161 41.6349 30.0317 41.1077 29.5934C40.9824 29.468 40.8678 29.3324 40.7651 29.1878C40.6436 29.0613 40.5292 28.9282 40.4225 28.789C39.8287 28.0012 39.1798 26.5923 39.1798 25.5241L39.1796 25.5239Z" fill="#212121"/>
<path d="M21.0961 33.8404C20.1797 33.0695 19.948 32.2591 19.9474 31.087C19.9484 30.0831 20.6428 29.2127 21.2331 28.7696C22.062 28.1504 22.6021 28.1529 23.8284 28.1586C23.9547 28.1593 24.089 28.1599 24.2306 28.1599C24.6343 28.1599 25.037 28.1593 25.4384 28.1582H25.4401C26.2413 28.1561 27.0399 28.1544 27.8378 28.1599C29.2842 28.1685 29.5635 27.7988 29.5635 26.3556C29.5576 24.7709 29.5597 23.1856 29.5614 21.5999V21.5982C29.5625 20.8049 29.5635 20.0116 29.5635 19.2183L29.5631 19.0375C29.5608 17.8616 29.5597 17.2135 30.5101 16.2583C31.9122 14.8461 34.2303 15.1469 35.1991 16.4379C35.7812 17.2118 36.0243 17.7155 36.0243 19.0678V27.6278C36.0243 31.8443 33.2424 34.6145 29.0378 34.6145H23.7034C22.553 34.6145 21.7363 34.3797 21.0959 33.8406L21.0961 33.8404ZM0.716519 24.6257C0.717152 26.0318 1.16913 27.2241 2.51917 27.8536C2.91549 28.0522 3.35295 28.1549 3.79626 28.1534H10.7077C13.8098 28.1534 16.7919 25.202 16.7919 21.6922V12.2302C16.7987 11.388 16.4839 10.5747 15.9118 9.95655C14.5167 8.50301 12.2327 8.61769 11.091 10.0609C10.3873 10.9528 10.3308 11.2916 10.3308 12.831V19.9684C10.3308 20.0527 10.3318 20.1318 10.3325 20.206C10.3377 20.7545 10.3405 21.0338 10.016 21.3808C9.68802 21.7348 9.4401 21.7247 8.95524 21.7061C8.82981 21.7011 8.68898 21.6958 8.52645 21.6958H4.92263C3.25701 21.6958 2.03641 21.8668 1.17019 23.276C0.999007 23.5393 0.71673 24.2148 0.716309 24.6257H0.716519ZM35.9494 34.3883C35.9494 36.3828 37.3068 37.7697 39.2554 37.7697C42.7306 37.7697 43.4941 32.9502 40.5767 31.6391C38.1134 30.533 35.9547 32.5174 35.9547 34.3883H35.9494ZM30.4812 11.2355C29.7691 10.5234 29.5637 9.79908 29.5637 8.772V8.77369C29.5637 7.1047 31.1269 5.69226 32.7942 5.69226C34.4617 5.69226 36.0023 7.16815 36.0023 8.92084C35.9973 11.9049 32.4105 13.1634 30.4814 11.2355H30.4812Z" fill="#212121"/>
</g>
<defs>
<linearGradient id="paint0_linear_1344_228" x1="81.2464" y1="0.0043612" x2="81.2464" y2="39.9476" gradientUnits="userSpaceOnUse">
<stop stop-color="#97D700"/>
<stop offset="0.631" stop-color="#50BC25"/>
<stop offset="1" stop-color="#009F64"/>
</linearGradient>
<clipPath id="clip0_1344_228">
<rect width="99.7009" height="40" fill="white" transform="translate(0.716309)"/>
</clipPath>
</defs>
</svg>
