<svg width="61" height="36" viewBox="0 0 61 36" fill="none" xmlns="http://www.w3.org/2000/svg">
<g clip-path="url(#clip0_1338_29)">
<path d="M47.8782 28.3942C47.0515 28.3942 46.2835 27.8543 46.0203 27.0073C45.6951 25.9615 46.2632 24.8445 47.2898 24.5125C56.501 21.5355 56.6365 19.2406 56.7088 18.0073C56.8217 16.0828 55.349 13.5711 54.773 12.7659C54.1383 11.8804 54.3269 10.6381 55.1943 9.98985C56.0594 9.34272 57.278 9.52907 57.9161 10.4122C58.2142 10.8245 60.8197 14.5458 60.6006 18.2456C60.3352 22.7439 56.9324 25.5628 48.4677 28.2993C48.2734 28.3648 48.0747 28.3942 47.8782 28.3942Z" fill="#D11317"/>
<path d="M32.0436 15.3466C31.5308 15.7961 30.9278 16.4579 30.2874 17.4291C29.6391 18.4117 29.5951 18.9617 29.6708 19.1322C29.7893 19.3943 30.2354 19.6472 30.7188 19.8279C31.6144 17.9453 31.9464 16.433 32.0436 15.3466ZM22.0644 34.7922C21.4896 34.7922 20.9203 34.5347 20.5352 34.0389C19.8666 33.1794 20.0089 31.9292 20.8526 31.2482C24.8494 28.0238 26.906 25.7459 28.6769 23.2556C27.6943 22.7756 26.6756 22.0065 26.1256 20.7868C25.6163 19.654 25.3633 17.768 27.0495 15.211C29.4618 11.5564 31.9069 10.7105 32.8454 10.5162C34.1103 10.252 35.3301 11.0109 35.6903 12.2724C35.9388 13.1409 36.4967 16.0016 34.7834 20.2876C37.1213 20.2277 38.9949 19.6021 40.3976 18.4173C43.099 16.1349 43.2797 12.3876 43.2809 12.3492C43.3238 11.2571 44.1866 10.401 45.2991 10.4383C46.3697 10.4778 47.2111 11.3859 47.1795 12.478C47.1727 12.7004 46.9717 17.9871 42.9319 21.4373C40.3806 23.6159 36.9665 24.5408 32.7607 24.1975C30.7719 27.3428 28.2274 30.3661 23.2751 34.3619C22.9148 34.6533 22.4891 34.7922 22.0644 34.7922Z" fill="#D11317"/>
<path d="M20.0003 24.7351C19.9054 24.7351 19.8072 24.7283 19.71 24.7125C18.645 24.551 17.9098 23.5402 18.069 22.4537C19.3633 13.6085 19.8399 3.29614 19.8456 3.15496C19.8817 2.05834 20.7389 1.19888 21.8604 1.23615C22.9355 1.27342 23.7792 2.19161 23.7419 3.28936C23.7227 3.87438 23.254 13.9687 21.9259 23.0399C21.7824 24.0258 20.9512 24.7351 20.0003 24.7351Z" fill="#D11317"/>
<path d="M2.30737 32.7322C1.70428 32.7322 1.11023 32.4487 0.728503 31.9134C0.0949233 31.0257 0.288046 29.7834 1.1588 29.1385C11.9251 21.1629 11.5016 13.6774 11.5163 13.2493C11.5558 12.1561 12.4571 11.2763 13.5289 11.3328C14.6018 11.3689 15.4454 12.2769 15.4149 13.3713C15.4014 13.8773 15.8328 23.1811 3.45143 32.3527C3.10697 32.6091 2.70604 32.7322 2.30737 32.7322Z" fill="#D11317"/>
<path d="M34.4727 31.248C33.4292 31.248 32.5652 30.4067 32.5268 29.336C32.4862 28.2394 33.3253 27.3178 34.4016 27.276C34.4321 27.2738 37.5051 27.145 41.8442 26.1862C42.8956 25.9558 43.9346 26.6334 44.1628 27.7075C44.3909 28.7792 43.7223 29.8375 42.6697 30.0701C37.9693 31.1091 34.6839 31.2413 34.5461 31.2469C34.5213 31.248 34.4964 31.248 34.4727 31.248Z" fill="#D11317"/>
</g>
<defs>
<clipPath id="clip0_1338_29">
<rect width="60.75" height="36" fill="white"/>
</clipPath>
</defs>
</svg>
