<svg width="69" height="40" viewBox="0 0 69 40" fill="none" xmlns="http://www.w3.org/2000/svg">
<g clip-path="url(#clip0_1349_351)">
<path d="M53.8755 31.5492C52.957 31.5492 52.1037 30.9493 51.8113 30.0082C51.4499 28.8462 52.0811 27.6051 53.2218 27.2362C63.4564 23.9284 63.607 21.3785 63.6873 20.0082C63.8128 17.8699 62.1765 15.0791 61.5365 14.1844C60.8312 13.2006 61.0408 11.8202 62.0045 11.0999C62.9658 10.3809 64.3198 10.5879 65.0288 11.5692C65.36 12.0273 68.255 16.162 68.0116 20.273C67.7167 25.2711 63.9358 28.4032 54.5306 31.4437C54.3147 31.5165 54.0939 31.5492 53.8755 31.5492Z" fill="#1F2B3D" fill-opacity="0.4"/>
<path d="M36.2812 17.0519C35.7115 17.5513 35.0414 18.2866 34.3299 19.3658C33.6096 20.4576 33.5607 21.0687 33.6448 21.2582C33.7765 21.5493 34.2722 21.8304 34.8093 22.0312C35.8044 19.9393 36.1733 18.259 36.2812 17.0519ZM25.1933 38.6581C24.5545 38.6581 23.9221 38.372 23.4942 37.8211C22.7513 36.8661 22.9094 35.477 23.8468 34.7203C28.2877 31.1377 30.5728 28.6066 32.5405 25.8397C31.4487 25.3063 30.3169 24.4518 29.7057 23.0965C29.1398 21.8379 28.8587 19.7423 30.7322 16.9013C33.4126 12.8405 36.1294 11.9006 37.1722 11.6848C38.5776 11.3912 39.9329 12.2344 40.3332 13.6361C40.6092 14.6011 41.2291 17.7797 39.3255 22.5419C41.9231 22.4754 44.0049 21.7802 45.5634 20.4638C48.5651 17.9277 48.7658 13.7641 48.7671 13.7215C48.8148 12.508 49.7735 11.5568 51.0095 11.5982C52.1991 11.6421 53.134 12.6511 53.0989 13.8645C53.0914 14.1117 52.868 19.9857 48.3793 23.8193C45.5446 26.24 41.7512 27.2677 37.0781 26.8862C34.8682 30.381 32.041 33.7403 26.5385 38.18C26.1382 38.5037 25.6651 38.6581 25.1933 38.6581Z" fill="#1F2B3D" fill-opacity="0.4"/>
<path d="M22.8994 27.4835C22.794 27.4835 22.6848 27.476 22.5769 27.4584C21.3936 27.279 20.5766 26.1559 20.7536 24.9487C22.1917 15.1206 22.7212 3.66248 22.7275 3.50562C22.7676 2.28715 23.7201 1.3322 24.9662 1.37361C26.1608 1.41502 27.0982 2.43523 27.0568 3.65495C27.0354 4.30497 26.5147 15.5209 25.0389 25.6C24.8796 26.6955 23.956 27.4835 22.8994 27.4835Z" fill="#1F2B3D" fill-opacity="0.4"/>
<path d="M3.24105 36.3691C2.57095 36.3691 1.91089 36.0541 1.48675 35.4593C0.782771 34.473 0.997352 33.0927 1.96485 32.3761C13.9275 23.5143 13.4569 15.1971 13.4732 14.7215C13.5171 13.5068 14.5185 12.5292 15.7094 12.592C16.9015 12.6321 17.8389 13.641 17.805 14.857C17.7899 15.4192 18.2693 25.7567 4.51222 35.9475C4.12949 36.2323 3.68401 36.3691 3.24105 36.3691Z" fill="#1F2B3D" fill-opacity="0.4"/>
<path d="M38.9806 34.7201C37.8211 34.7201 36.8611 33.7853 36.8185 32.5957C36.7733 31.3772 37.7057 30.3532 38.9015 30.3068C38.9354 30.3043 42.3499 30.1612 47.1711 29.0958C48.3394 28.8398 49.4938 29.5928 49.7473 30.7861C50.0008 31.977 49.2579 33.1528 48.0884 33.4113C42.8657 34.5658 39.2153 34.7126 39.0622 34.7189C39.0346 34.7201 39.007 34.7201 38.9806 34.7201Z" fill="#1F2B3D" fill-opacity="0.4"/>
</g>
<defs>
<clipPath id="clip0_1349_351">
<rect width="67.5" height="40" fill="white" transform="translate(0.677246)"/>
</clipPath>
</defs>
</svg>
