<?xml version="1.0" encoding="UTF-8"?><svg id="b" xmlns="http://www.w3.org/2000/svg" viewBox="0 0 300 150"><defs><style>.d,.e{stroke-width:0px;}.e{fill:#fc0;}</style></defs><g id="c"><ellipse class="d" cx="150" cy="75" rx="150" ry="75"/><ellipse class="e" cx="150" cy="75" rx="137.81055" ry="62.81055"/><path class="d" d="m170.17263,62.65579c0-.83263-.09024-2.72739-.36631-5.48842-.43655-4.13567-.60012-5.54773-.85896-7.31368l-9.15789,1.52526c.44631,3.65684.7621,6.46105.94737,8.41263.18316,1.94842.27474,3.31263.27474,4.08316-.01636.82613-.68333,1.25071-1.06737,1.40211-.43432.18763-1.84759.78295-4.7242.73263h-1.52526c-1.99368,0-3.40526-.35579-4.23474-1.06737-.83684-.71053-1.26316-2.02105-1.26316-3.93158v-6.5842h-8.20106c-.00003,7.31985-.48782,8.69541-.76421,9.66-.28718.8547-.79721,1.99886-2.89579,1.92-1.33793.00072-3.11292-.27567-4.38948-1.82842.04105-.53052.07264-1.15895.09158-1.89474.04069-1.58005.03158-1.89444.03158-6.64421h-8.22947c.06827,6.28951-.95406,8.05187-1.03579,8.24842-.09978.2481-.84104,2.19178-3.53685,2.10316-3.21934-.02197-3.99051-1.42618-4.38947-2.13474.04105-.52737.06947-1.13684.09158-1.82842.03989-1.24775.03158-1.83449.03158-6.3821h-8.23263c.07595,6.10992-.83625,7.66808-1.33894,8.38105-.86655,1.24695-2.46155,2.07911-5.67159,1.98316h-1.23158c-2.22062.02777-3.52546-.49199-4.41789-1.25052-1.57309-1.3907-1.72564-3.88604-1.68948-5.15053v-26.52631l-9.44843.91579.91264,43.89474c-.13738,2.26908-3.25136,3.62793-3.32211,3.66-.86827.40471-4.10535,1.89235-9.48001,1.82842-4.85391.10056-7.01471-1.59004-7.34842-1.82842-1.40138-1.01566-2.12882-2.65427-2.10315-4.57262,0-2.29448.25998-3.91699.37579-4.60105.59012-3.82026,1.67256-8.0571,1.78422-8.50422l-7.31369-2.1379c-.62143,1.64773-3.95297,10.17021-3.96316,17.36842,0,14.13758,10.94043,16.15827,17.98421,16.15579,3.50279.02679,9.96914-.62744,15.54631-4.87895,1.92896-1.48367,6.51091-5.77342,6.40105-13.10526v-1.52211c.31069.34877,1.84125,2.21578,6.08212,2.14106h1.21894c3.45319,0,7.69262-.57111,10.3642-4.57263,3.00089,4.53405,6.90955,4.58526,8.83894,4.58526,5.28021-.00201,7.24039-2.32139,8.54843-4.27894.29727.4403,1.39076,2.07879,4.03895,3.2621,1.06187.47955,2.64895.99418,4.51263,1.00421,4.71329.1132,7.34784-3.69673,7.91368-4.57263.55892,1.06318,1.79346,2.79406,4.42105,3.78.27099.10032,1.82291.7756,5.33368.78316h1.21895c6.59535.04707,9.79387-2.61013,10.69895-3.38211,4.43413-3.90532,4.53789-9.63462,4.53789-11.84841Z"/><polygon class="d" points="163.76841 45.58422 169.25684 40.09895 169.25684 39.18316 163.76841 33.6979 162.8558 33.6979 157.36737 39.18316 157.36737 40.09895 162.8558 45.58422 163.76841 45.58422"/><polygon class="d" points="184.19053 77.59263 184.19053 33.08843 174.7421 34.00421 175.65789 78.20211 184.19053 77.59263"/><polygon class="d" points="221.68421 82.40842 216.50211 87.59052 211.32 82.40842 210.40422 82.40842 205.2221 87.59052 205.2221 88.50316 210.40422 93.68527 211.32 93.68527 216.50211 88.50316 221.68421 93.68527 222.59685 93.68527 227.77894 88.50316 227.77894 87.59052 222.59685 82.40842 221.68421 82.40842"/><path class="d" d="m208.26948,77.89579h1.2221c6.59476.04633,9.79432-2.6111,10.69895-3.38211,4.43361-3.91168,4.54107-9.64269,4.54105-11.87052.00003-.8173-.08455-2.76796-.36631-5.48842-.42806-4.05531-.57419-5.41394-.85264-7.31368l-9.15789,1.52526c.30998,2.52787,1.2221,9.97672,1.2221,12.49579-.0145.67977-.47254,1.16661-1.06737,1.40211-.41343.17861-1.83348.78269-4.72422.73263h-1.52211c-3.50795.08428-4.77103-.79135-5.51683-1.86-.86886-1.28081-1.55528-2.4731-3.01895-9.41368l-9.15789,2.43789c.93472,4.92,1.62632,8.99474,2.07474,12.22421.44842,3.22947.67157,5.45473.66947,6.67578-.36545,2.25039-2.32914,3.57485-2.97157,3.96315-.96597.60877-4.03283,2.5243-10.7779,3.95999l2.13474,10.06105c12.115-.32207,19.70176-6.26474,20.6021-18.35053,1.679,1.92382,4.09996,2.2315,5.90843,2.19474l.05998.00634Z"/><polygon class="d" points="230.21685 78.20211 238.75263 77.59263 238.75263 33.08843 229.30421 34.00421 230.21685 78.20211"/><polygon class="d" points="121.99263 113.17579 114.40105 102.86526 107.76947 102.86526 107.76947 129.15789 114.36 129.15789 114.36 114.41368 119.63368 121.52525 123.39158 121.52525 128.18527 114.41368 128.18527 129.15789 135.37579 129.15789 135.37579 102.86526 128.78527 102.86526 121.99263 113.17579"/><polygon class="d" points="139.05157 108.82105 147.68211 108.82105 147.68211 129.15789 154.99579 129.15789 154.99579 108.82105 163.58527 108.82105 163.58527 102.86526 139.05157 102.86526 139.05157 108.82105"/><polygon class="d" points="185.64 117.36947 173.81368 102.86526 167.26104 102.86526 167.26104 129.15789 173.85473 129.15789 173.85473 114.13263 186.19895 129.15789 192.23368 129.15789 192.23368 102.86526 185.64 102.86526 185.64 117.36947"/></g></svg>