<svg width="182" height="100" viewBox="0 0 182 100" fill="none" xmlns="http://www.w3.org/2000/svg">
<path d="M150.883 18.8482C134.784 11.1537 113.458 6.9082 90.8332 6.9082C68.2084 6.9082 46.8698 11.1537 30.7796 18.8482C13.8592 26.9373 4.5415 37.9991 4.5415 49.9991C4.5415 61.9991 13.8592 73.0609 30.7796 81.15C46.8698 88.8446 68.203 93.09 90.8332 93.09C113.463 93.09 134.786 88.8518 150.885 81.1573C167.805 73.0609 177.125 61.9991 177.125 49.9991C177.125 37.9991 167.805 26.9373 150.883 18.8482ZM147.86 74.8173C132.686 82.07 112.435 86.0646 90.8314 86.0646C69.2276 86.0646 48.9735 82.0646 33.8026 74.8173C19.6634 68.0573 11.5538 59.0118 11.5538 49.9991C11.5538 40.9864 19.6634 31.9409 33.8026 25.1809C48.9754 17.9282 69.2276 13.9337 90.8314 13.9337C112.435 13.9337 132.686 17.9337 147.86 25.1809C162.001 31.9409 170.113 40.9864 170.113 49.9991C170.113 59.0118 162.001 68.0573 147.86 74.8173Z" fill="#1F2B3D" fill-opacity="0.4" />
<path d="M102.438 42.8925C102.438 42.5895 102.42 42.1567 102.384 41.5943C102.347 41.0319 102.295 40.4113 102.227 39.7325C102.156 39.0549 102.08 38.3471 101.999 37.6089C101.917 36.8707 101.829 36.1749 101.733 35.5216L96.465 36.3998C96.7217 38.5052 96.9034 40.1198 97.01 41.2434C97.1153 42.3652 97.168 43.1507 97.168 43.5943C97.1651 43.7434 97.1224 43.889 97.0445 44.0161C96.922 44.1897 96.7515 44.3237 96.554 44.4016C96.2284 44.5424 95.8867 44.6425 95.5366 44.6998C94.9747 44.792 94.4056 44.8334 93.8363 44.8234H92.9588C91.8119 44.8234 90.9998 44.6186 90.5226 44.2089C90.0412 43.7998 89.796 43.0452 89.796 41.9452V38.1543H85.0781C85.0781 39.6513 85.043 40.8386 84.9727 41.7161C84.9372 42.3933 84.8251 43.0643 84.6385 43.7161C84.4859 44.1707 84.2751 44.4707 84.0081 44.6107C83.6847 44.7627 83.3296 44.835 82.9726 44.8216C82.5329 44.8218 82.0957 44.7563 81.6755 44.6271C81.1953 44.459 80.7705 44.1621 80.4474 43.7689C80.471 43.4634 80.4892 43.1016 80.5001 42.678C80.511 42.2543 80.5183 41.8234 80.5183 41.3798V38.8525H75.784C75.7946 39.8314 75.7479 40.81 75.6441 41.7834C75.5828 42.4087 75.4292 43.0214 75.1882 43.6016C75.0294 43.9967 74.7462 44.3293 74.3816 44.5489C73.9999 44.736 73.5782 44.8265 73.1535 44.8125C72.6897 44.8093 72.2288 44.7383 71.7855 44.6016C71.3168 44.461 70.9311 44.1216 70.6283 43.5834C70.6519 43.2798 70.6683 42.9289 70.681 42.5307C70.6937 42.1325 70.6992 41.718 70.6992 41.2834V38.8561H65.9631C65.9756 39.8645 65.9235 40.8726 65.8069 41.8743C65.7015 42.6477 65.4968 43.2501 65.1929 43.6816C64.8957 44.1096 64.463 44.4247 63.9648 44.5761C63.3029 44.7606 62.6169 44.844 61.9301 44.8234H61.2216C60.738 44.8295 60.2554 44.7764 59.7846 44.6652C59.3775 44.5673 58.9992 44.3748 58.6801 44.1034C58.3399 43.8024 58.0885 43.4137 57.9534 42.9798C57.7732 42.383 57.6904 41.7611 57.7082 41.138V25.8652L52.2727 26.3925L52.7977 51.6652C52.7729 52.0766 52.5984 52.4647 52.3072 52.7561C51.9045 53.1845 51.4219 53.5297 50.8866 53.7725C50.1538 54.1144 49.383 54.3676 48.5903 54.5271C47.5514 54.7379 46.493 54.8379 45.433 54.8252C44.5766 54.843 43.7216 54.7489 42.8896 54.5452C42.2843 54.3973 41.7127 54.135 41.2056 53.7725C40.7977 53.4766 40.4765 53.0767 40.2755 52.6143C40.0841 52.1466 39.9889 51.6451 39.9957 51.1398C39.9957 50.8367 40.0072 50.4689 40.0302 50.0361C40.0647 49.5183 40.1253 49.0024 40.2119 48.4907C40.3039 47.8943 40.4323 47.1925 40.597 46.3852C40.7617 45.578 40.9755 44.6477 41.2383 43.5943L37.0309 42.3634C36.0717 44.9089 35.4522 46.9974 35.1724 48.6289C34.8927 50.2604 34.7522 51.5052 34.751 52.3634C34.751 55.3586 35.6163 57.658 37.347 59.2616C39.0777 60.8652 41.661 61.6664 45.0969 61.6652C46.7676 61.678 48.43 61.4289 50.0237 60.9271C51.4736 60.4781 52.8333 59.7771 54.0403 58.8561C55.1689 57.9874 56.0909 56.879 56.7399 55.6107C57.4079 54.2772 57.7451 52.8022 57.7227 51.3107V50.4343C58.1141 50.8741 58.6159 51.2011 59.1761 51.3816C59.8389 51.583 60.5291 51.6793 61.2216 51.6671H61.9229C63.4198 51.6671 64.6357 51.4507 65.5707 51.018C66.5097 50.5822 67.3105 49.8958 67.8852 49.0343C68.3927 49.8018 69.0563 50.4536 69.8326 50.9471C70.592 51.4319 71.6378 51.6743 72.97 51.6743C73.8567 51.674 74.7369 51.5234 75.5733 51.2289C76.4138 50.9355 77.1853 50.2628 77.8877 49.2107C78.1765 49.6388 78.5316 50.0181 78.9396 50.3343C79.3331 50.6338 79.7598 50.887 80.2112 51.0889C80.6388 51.2821 81.0858 51.429 81.5447 51.5271C81.9595 51.6178 82.3827 51.6648 82.8073 51.6671C83.7784 51.6904 84.7334 51.415 85.5432 50.878C86.2686 50.3945 86.8869 49.767 87.3598 49.0343C87.6372 49.5623 88.0192 50.0282 88.4825 50.4034C88.9107 50.7456 89.3901 51.018 89.9032 51.2107C90.4004 51.3949 90.9184 51.517 91.4455 51.5743C91.9522 51.6314 92.4616 51.6605 92.9715 51.6616H93.6727C94.8108 51.6697 95.9442 51.5161 97.039 51.2052C98.0651 50.9154 99.0164 50.4068 99.8276 49.7143C100.672 48.97 101.327 48.0351 101.739 46.9871C102.205 45.8719 102.438 44.5071 102.438 42.8925Z" fill="#1F2B3D" fill-opacity="0.4" />
<path d="M98.7542 33.0643L101.912 29.9062V29.3789L98.7542 26.2207H98.2291L95.0718 29.3789V29.9062L98.2291 33.0643H98.7542Z" fill="#1F2B3D" fill-opacity="0.4" />
<path d="M110.502 51.4928V25.8691L105.067 26.3964L105.594 51.8437L110.502 51.4928Z" fill="#1F2B3D" fill-opacity="0.4" />
<path d="M132.072 54.2656L129.091 57.2493L126.11 54.2656H125.583L122.602 57.2493V57.7747L125.583 60.7584H126.11L129.091 57.7747L132.072 60.7584H132.597L135.578 57.7747V57.2493L132.597 54.2656H132.072Z" fill="#1F2B3D" fill-opacity="0.4" />
<path d="M124.354 51.6664H125.057C126.195 51.6744 127.329 51.5207 128.424 51.21C129.45 50.9198 130.401 50.4113 131.212 49.7191C132.056 48.9742 132.711 48.0395 133.123 46.9918C133.591 45.8682 133.825 44.4991 133.825 42.8846C133.825 42.5815 133.807 42.1488 133.772 41.5864C133.737 41.024 133.684 40.4034 133.614 39.7246C133.542 39.047 133.467 38.3391 133.387 37.6009C133.307 36.8628 133.219 36.167 133.123 35.5137L127.855 36.3919C128.113 38.4973 128.295 40.1119 128.4 41.2355C128.505 42.3573 128.558 43.1428 128.558 43.5864C128.555 43.7352 128.513 43.8806 128.436 44.0082C128.313 44.1815 128.142 44.3153 127.944 44.3937C127.619 44.5342 127.278 44.6344 126.929 44.6919C126.366 44.784 125.796 44.8254 125.226 44.8155H124.351C123.702 44.8311 123.054 44.7657 122.421 44.6209C121.917 44.4839 121.476 44.1737 121.177 43.7446C120.77 43.1445 120.467 42.48 120.281 41.7791C120.026 40.9246 119.745 39.7731 119.44 38.3246L114.172 39.7282C114.71 42.5609 115.107 44.907 115.365 46.7664C115.623 48.6258 115.752 49.907 115.751 50.61C115.686 51.0059 115.537 51.3831 115.313 51.7155C114.973 52.1897 114.54 52.5899 114.041 52.8919C113.289 53.366 112.49 53.7597 111.656 54.0664C110.412 54.5262 109.137 54.8956 107.841 55.1719L109.069 60.9646C112.622 60.87 115.422 59.9397 117.469 58.1737C119.516 56.4076 120.666 53.8161 120.921 50.3991C121.312 50.8476 121.813 51.1865 122.374 51.3828C123.003 51.5816 123.66 51.6762 124.32 51.6628L124.354 51.6664Z" fill="#1F2B3D" fill-opacity="0.4" />
<path d="M136.98 51.8437L141.891 51.4928V25.8691L136.455 26.3964L136.98 51.8437Z" fill="#1F2B3D" fill-opacity="0.4" />
<path d="M74.7213 71.9793L70.3541 66.043H66.5391V81.1812H70.3305V72.6921L73.3643 76.7866H75.5261L78.2838 72.6921V81.1812H82.4204V66.043H78.629L74.7213 71.9793Z" fill="#1F2B3D" fill-opacity="0.4" />
<path d="M84.5352 69.4721H89.5001V81.1812H93.7075V69.4721H98.6488V66.043H84.5352V69.4721Z" fill="#1F2B3D" fill-opacity="0.4" />
<path d="M111.336 74.3939L104.533 66.043H100.763V81.1812H104.556V72.5302L111.658 81.1812H115.129V66.043H111.336V74.3939Z" fill="#1F2B3D" fill-opacity="0.4" />
</svg>
