<svg width="131" height="24" viewBox="0 0 131 24" fill="none" xmlns="http://www.w3.org/2000/svg">
<g clip-path="url(#clip0_1349_357)">
<path d="M123.808 5.48047H110.578V8.81047H123.808C124.714 8.81396 125.583 9.17634 126.223 9.81836C126.863 10.4604 127.223 11.3298 127.224 12.2365V13.0561C126.541 12.7781 125.81 12.6386 125.074 12.6457H112.068C110.62 12.6457 109.231 13.2209 108.207 14.2449C107.183 15.2688 106.608 16.6576 106.608 18.1057V18.4153C106.629 19.8529 107.214 21.2247 108.237 22.2348C109.261 23.245 110.64 23.8126 112.078 23.8153H125.077C125.817 23.8172 126.548 23.6673 127.228 23.3749V23.8153H130.488V12.2101C130.488 10.4338 129.786 8.72947 128.534 7.46883C127.283 6.20819 125.584 5.49346 123.808 5.48047ZM109.927 18.0805C109.932 17.5117 110.16 16.9676 110.562 16.5654C110.965 16.1632 111.509 15.9351 112.078 15.9301H125.077C125.647 15.931 126.193 16.158 126.595 16.5612C126.998 16.9644 127.224 17.5108 127.224 18.0805V18.3901C127.224 18.9604 126.997 19.5074 126.594 19.9106C126.191 20.3139 125.644 20.5405 125.074 20.5405H112.078C111.509 20.5355 110.965 20.3073 110.562 19.9051C110.16 19.5029 109.932 18.9588 109.927 18.3901V18.0805Z" fill="#1F2B3D" fill-opacity="0.4"/>
<path d="M105.213 10.8109V11.6605H101.874V10.8109C101.874 9.33129 101.024 8.81049 98.4838 8.81049H88.0054C87.1027 8.81299 86.2373 9.17131 85.5971 9.80774C84.9568 10.4442 84.5933 11.3074 84.5854 12.2101V23.8105H81.2734V5.48049H84.583V6.41049C85.6078 5.79878 86.7796 5.47731 87.973 5.48049H98.4826C102.753 5.48049 105.213 7.39089 105.213 10.8109Z" fill="#1F2B3D" fill-opacity="0.4"/>
<path d="M23.8882 20.4685C24.5279 19.4383 24.8736 18.2527 24.8878 17.0401V6.67694C24.8846 5.79456 24.7064 4.92157 24.3634 4.10856C24.0204 3.29554 23.5196 2.55864 22.8898 1.94054C21.6117 0.686095 19.8891 -0.0115093 18.0982 0.000143677H7.63784C5.859 -0.00404198 4.15076 0.695739 2.88609 1.9467C1.62142 3.19765 0.903052 4.89817 0.887842 6.67694V17.0401C0.881908 17.9309 1.05605 18.8136 1.3998 19.6354C1.74356 20.4571 2.24984 21.2009 2.88824 21.8221C4.15057 23.08 5.85586 23.7926 7.63784 23.8069H18.0982C19.3135 23.792 20.5021 23.4491 21.5386 22.8145L22.7279 24.0001L25.0882 21.6889L23.8882 20.4685ZM18.1186 20.4685H7.63784C6.73596 20.4695 5.8705 20.1128 5.2312 19.4767C4.5919 18.8405 4.23094 17.9768 4.22744 17.0749V6.67694C4.23626 5.77684 4.59897 4.91637 5.23715 4.28156C5.87533 3.64675 6.73771 3.2886 7.63784 3.28454H18.0982C18.9986 3.29134 19.8606 3.65023 20.4998 4.28445C21.1389 4.91867 21.5045 5.77784 21.5182 6.67814V17.0401C21.5155 17.3575 21.4616 17.6723 21.3586 17.9725L13.3582 10.0405L11.0278 12.3721L19.0282 20.3089C18.7249 20.3906 18.4124 20.4337 18.0982 20.4373L18.1186 20.4685Z" fill="#1F2B3D" fill-opacity="0.4"/>
<path d="M51.6368 5.48047V23.8105H48.2972V22.8805C47.2667 23.4962 46.0872 23.8179 44.8868 23.8105H34.4264C32.6432 23.8051 30.9347 23.0943 29.6738 21.8335C28.4129 20.5726 27.7022 18.864 27.6968 17.0809V5.48047H31.0364V17.1205C31.0338 18.0231 31.3892 18.8899 32.0246 19.531C32.6601 20.1721 33.5238 20.5351 34.4264 20.5405H44.8868C45.3354 20.5405 45.7797 20.4519 46.1941 20.2799C46.6085 20.108 46.9849 19.8559 47.3017 19.5382C47.6185 19.2205 47.8695 18.8434 48.0403 18.4285C48.2112 18.0136 48.2984 17.5691 48.2972 17.1205V5.48047H51.6368Z" fill="#1F2B3D" fill-opacity="0.4"/>
<path d="M78.4245 16.7401V10.9405C78.4191 9.49342 77.8416 8.10723 76.8181 7.08434C75.7945 6.06145 74.4079 5.48489 72.9609 5.48047H59.9649C58.5185 5.48584 57.1328 6.06282 56.11 7.0856C55.0872 8.10839 54.5103 9.49404 54.5049 10.9405V23.8105H78.4245V20.5405H57.8253V16.7401H78.4245ZM59.9445 8.81047H72.9453C73.5104 8.81835 74.0497 9.04839 74.4465 9.45082C74.8433 9.85324 75.0657 10.3957 75.0657 10.9609V13.4209H57.8253V10.9405C57.8306 10.3788 58.0554 9.84158 58.4516 9.44354C58.8478 9.0455 59.3829 8.81828 59.9445 8.81047Z" fill="#1F2B3D" fill-opacity="0.4"/>
</g>
<defs>
<clipPath id="clip0_1349_357">
<rect width="129.6" height="24" fill="white" transform="translate(0.887695)"/>
</clipPath>
</defs>
</svg>
