<svg width="109" height="20" viewBox="0 0 109 20" fill="none" xmlns="http://www.w3.org/2000/svg">
<g clip-path="url(#clip0_1344_54)">
<path d="M103.183 4.56702H92.1581V7.34202H103.183C103.939 7.34492 104.662 7.64691 105.196 8.18192C105.729 8.71694 106.029 9.44145 106.03 10.197V10.88C105.461 10.6484 104.852 10.5321 104.238 10.538H93.4001C92.1934 10.538 91.0361 11.0174 90.1828 11.8707C89.3295 12.724 88.8501 13.8813 88.8501 15.088V15.346C88.8677 16.5441 89.3554 17.6872 90.208 18.529C91.0606 19.3708 92.2099 19.8438 93.4081 19.846H104.241C104.857 19.8477 105.467 19.7227 106.033 19.479V19.846H108.75V10.175C108.75 8.69476 108.165 7.27452 107.122 6.22399C106.079 5.17345 104.663 4.57784 103.183 4.56702ZM91.6161 15.067C91.6203 14.593 91.8104 14.1397 92.1456 13.8045C92.4807 13.4693 92.9341 13.2792 93.4081 13.275H104.241C104.716 13.2758 105.171 13.465 105.506 13.8009C105.842 14.1369 106.03 14.5923 106.03 15.067V15.325C106.03 15.8003 105.841 16.2561 105.505 16.5922C105.169 16.9282 104.713 17.117 104.238 17.117H93.4081C92.9341 17.1128 92.4807 16.9227 92.1456 16.5875C91.8104 16.2524 91.6203 15.799 91.6161 15.325V15.067Z" fill="#0099CC"/>
<path d="M87.6878 9.00904V9.71704H84.9048V9.00904C84.9048 7.77604 84.1968 7.34204 82.0798 7.34204H73.3478C72.5955 7.34411 71.8744 7.64272 71.3408 8.17308C70.8073 8.70344 70.5044 9.42277 70.4978 10.175V19.842H67.7378V4.56704H70.4958V5.34204C71.3497 4.83228 72.3263 4.56438 73.3208 4.56704H82.0788C85.6378 4.56704 87.6878 6.15904 87.6878 9.00904Z" fill="#0099CC"/>
<path d="M19.9171 17.0571C20.4502 16.1986 20.7382 15.2106 20.7501 14.2001V5.56412C20.7474 4.8288 20.5989 4.10131 20.3131 3.4238C20.0273 2.74628 19.6099 2.1322 19.0851 1.61712C18.02 0.571746 16.5845 -0.00959109 15.0921 0.000119731H6.37512C4.89276 -0.00336831 3.46922 0.579782 2.41533 1.62225C1.36143 2.66471 0.762797 4.0818 0.750122 5.56412V14.2001C0.745177 14.9424 0.890293 15.678 1.17676 16.3628C1.46322 17.0476 1.88512 17.6675 2.41712 18.1851C3.46906 19.2333 4.89014 19.8272 6.37512 19.8391H15.0921C16.1048 19.8266 17.0954 19.5409 17.9591 19.0121L18.9501 20.0001L20.9171 18.0741L19.9171 17.0571ZM15.1091 17.0571H6.37512C5.62356 17.0579 4.90234 16.7607 4.36959 16.2306C3.83684 15.7004 3.53603 14.9807 3.53312 14.2291V5.56412C3.54047 4.81404 3.84273 4.09698 4.37455 3.56797C4.90636 3.03896 5.62501 2.7405 6.37512 2.73712H15.0921C15.8425 2.74278 16.5608 3.04186 17.0934 3.57037C17.626 4.09889 17.9307 4.81486 17.9421 5.56512V14.2001C17.9398 14.4646 17.8949 14.7269 17.8091 14.9771L11.1421 8.36712L9.20012 10.3101L15.8671 16.9241C15.6143 16.9921 15.3539 17.0281 15.0921 17.0311L15.1091 17.0571Z" fill="#0099CC"/>
<path d="M43.0408 4.56702V19.842H40.2578V19.067C39.3991 19.5801 38.4162 19.8482 37.4158 19.842H28.6988C27.2129 19.8375 25.7891 19.2452 24.7383 18.1945C23.6876 17.1438 23.0953 15.72 23.0908 14.234V4.56702H25.8738V14.267C25.8717 15.0192 26.1678 15.7416 26.6974 16.2758C27.2269 16.81 27.9466 17.1125 28.6988 17.117H37.4158C37.7897 17.117 38.1599 17.0432 38.5053 16.8999C38.8506 16.7566 39.1642 16.5465 39.4283 16.2818C39.6923 16.017 39.9014 15.7028 40.0438 15.3571C40.1861 15.0113 40.2589 14.6409 40.2578 14.267V4.56702H43.0408Z" fill="#0099CC"/>
<path d="M65.3642 13.95V9.11702C65.3597 7.91114 64.8784 6.75598 64.0255 5.90357C63.1725 5.05117 62.017 4.5707 60.8112 4.56702H49.9812C48.7758 4.5715 47.6211 5.05231 46.7688 5.90463C45.9164 6.75695 45.4356 7.91166 45.4312 9.11702V19.842H65.3642V17.117H48.1982V13.95H65.3642ZM49.9642 7.34202H60.7982C61.2691 7.34859 61.7185 7.54028 62.0492 7.87564C62.3798 8.21099 62.5652 8.66305 62.5652 9.13402V11.184H48.1982V9.11702C48.2025 8.649 48.3899 8.20127 48.7201 7.86957C49.0503 7.53787 49.4962 7.34853 49.9642 7.34202Z" fill="#0099CC"/>
</g>
<defs>
<clipPath id="clip0_1344_54">
<rect width="108" height="20" fill="white" transform="translate(0.75)"/>
</clipPath>
</defs>
</svg>
