<svg width="140" height="32" viewBox="0 0 140 32" fill="none" xmlns="http://www.w3.org/2000/svg">
<g clip-path="url(#clip0_1349_365)">
<path d="M23.2141 28.1601C23.2733 28.2579 23.3138 28.366 23.3335 28.4787C23.3335 28.5578 23.2141 28.598 22.9768 28.598H19.9922C19.8036 28.6055 19.619 28.5419 19.4751 28.4197C19.4504 28.3974 19.4259 28.3742 19.4005 28.3518L11.1688 14.7478H15.2406C15.9452 14.7003 16.6318 14.5042 17.2552 14.1725C17.8745 13.8444 18.433 13.4125 18.9065 12.8958C19.3856 12.3769 19.7697 11.7778 20.0414 11.1259C20.3177 10.4709 20.4598 9.76703 20.4593 9.05608C20.457 8.33109 20.308 7.61408 20.0213 6.94815C19.7399 6.2742 19.3426 5.65475 18.8475 5.11783C18.3518 4.58347 17.7571 4.15039 17.0963 3.84264C16.4311 3.52711 15.7037 3.36445 14.9675 3.36659H4.28173L2.30664 0.102877H15.0026C16.1677 0.0972963 17.3205 0.34129 18.3834 0.818448C19.4222 1.28084 20.3637 1.9364 21.1577 2.75026C21.9578 3.57396 22.599 4.53823 23.0492 5.59461C23.5189 6.67387 23.7598 7.83878 23.7566 9.01579C23.7587 10.0137 23.5836 11.0041 23.2395 11.9407C22.9065 12.865 22.4312 13.7316 21.8307 14.509C21.2261 15.2867 20.5097 15.9706 19.7049 16.5386C18.8882 17.1206 17.9739 17.5517 17.0053 17.8116L23.2141 28.1601Z" fill="#1F2B3D" fill-opacity="0.4"/>
<path d="M19.079 31.8145C19.079 31.8936 18.9596 31.9346 18.723 31.9346H15.7384C15.5499 31.9419 15.3656 31.8779 15.2221 31.7556C15.1959 31.7339 15.1721 31.7108 15.1475 31.6884L3.9043 12.7605H7.90075L16.4913 27.3853L18.9604 31.4996C19.019 31.5964 19.0592 31.7031 19.079 31.8145Z" fill="#1F2B3D" fill-opacity="0.4"/>
<path d="M10.4219 27.5957C10.4219 27.6748 10.3025 27.7158 10.066 27.7158H7.08134C6.89286 27.7231 6.70851 27.6591 6.565 27.5368C6.53885 27.5151 6.51499 27.492 6.49037 27.4696L0.19873 16.9778H4.19518L7.8342 23.1597L10.3055 27.2748C10.364 27.3735 10.4035 27.4824 10.4219 27.5957Z" fill="#1F2B3D" fill-opacity="0.4"/>
<path d="M33.6155 10.1409H31.8993C31.7802 10.1416 31.6641 10.1787 31.5665 10.2471C31.4689 10.3154 31.3945 10.4119 31.3531 10.5236L24.8384 28.9538H27.3679L27.9208 27.4958C29.3543 28.4468 31.0364 28.954 32.7566 28.954C34.4769 28.954 36.159 28.4468 37.5925 27.4958L38.1454 28.9538H40.6772L34.158 10.5162C34.1159 10.4063 34.0415 10.3116 33.9448 10.2446C33.848 10.1776 33.7332 10.1415 33.6155 10.1409ZM36.8083 25.2797C36.3625 25.622 35.877 25.9091 35.3623 26.1348C34.5358 26.4764 33.6501 26.6513 32.7559 26.6497C31.8641 26.6543 30.9804 26.4803 30.1571 26.1378C29.6385 25.9154 29.1495 25.6297 28.7013 25.2872L32.7552 13.8023L36.8083 25.2797Z" fill="#1F2B3D" fill-opacity="0.4"/>
<path d="M65.5584 27.9168L58.373 10.661C58.3166 10.4745 58.1913 10.3164 58.0227 10.2193C57.8768 10.1547 57.7184 10.1245 57.5589 10.1313H56.7497C56.5897 10.1245 56.4308 10.1549 56.2844 10.2201C56.1222 10.3149 55.9953 10.46 55.9226 10.6334L53.8155 15.723L51.7151 10.6491C51.6455 10.4498 51.5002 10.2861 51.3107 10.1932C51.1724 10.1477 51.0271 10.1273 50.8816 10.1328H50.0728C49.9027 10.1232 49.7337 10.166 49.5887 10.2552C49.4435 10.3444 49.3292 10.4759 49.261 10.632L42.0888 27.881C42.0256 28.001 41.995 28.1356 42 28.2712C42 28.6033 42.2075 28.9584 42.7888 28.9584H44.0789C44.2519 28.963 44.4224 28.9157 44.5683 28.8226C44.7105 28.7205 44.8248 28.5846 44.9011 28.4272C44.9905 28.2538 45.0688 28.0748 45.1355 27.8914C45.2101 27.6877 45.3168 27.4281 45.4481 27.1162L50.4936 14.703C50.7473 15.3552 51.0025 16.0014 51.2577 16.6319C51.6084 17.5026 51.9725 18.3883 52.3396 19.2673L48.7305 27.9049L48.7215 27.9287C48.6802 28.0382 48.6569 28.1536 48.6521 28.2705C48.6521 28.6025 48.8595 28.9577 49.4408 28.9577H50.7309C50.911 28.9646 51.0888 28.9154 51.2398 28.8171C51.3907 28.7188 51.5075 28.576 51.5741 28.4085C51.6382 28.2705 51.7099 28.0959 51.7867 27.89C51.8636 27.684 51.9681 27.4266 52.0994 27.1147L57.1538 14.703L62.2049 27.1035C62.4457 27.7586 62.6144 28.1891 62.7212 28.4197C62.7928 28.5851 62.9132 28.7249 63.0662 28.8208C63.2191 28.9167 63.397 28.9641 63.5776 28.957H64.868C64.9645 28.9688 65.0621 28.9598 65.1554 28.9306C65.2482 28.9013 65.3333 28.8524 65.406 28.7873C65.4781 28.7221 65.5356 28.6422 65.5747 28.553C65.6137 28.4637 65.6327 28.3671 65.6311 28.2697C65.6262 28.1534 65.6029 28.0386 65.5622 27.9295L65.5584 27.9168Z" fill="#1F2B3D" fill-opacity="0.4"/>
<path d="M82.1442 26.1156H71.332L82.301 12.3862V10.8939C82.3091 10.7769 82.288 10.6596 82.2391 10.553C82.1898 10.4464 82.1144 10.354 82.02 10.2843C81.8622 10.1807 81.6756 10.1286 81.4869 10.1351H68.3354C68.2166 10.1251 68.0973 10.1422 67.9861 10.1851C67.8749 10.228 67.7751 10.2957 67.6938 10.3828C67.5913 10.5273 67.5392 10.7012 67.5446 10.8782V12.1579C67.5338 12.2657 67.5463 12.3745 67.5815 12.477C67.6168 12.5794 67.6737 12.6729 67.7491 12.751C67.824 12.8291 67.9151 12.8899 68.016 12.9293C68.1168 12.9686 68.2253 12.9855 68.3333 12.9787H78.3753L73.1631 19.3383C72.4732 20.1926 71.7708 21.0544 71.0787 21.8998C70.3959 22.733 69.7846 23.4777 69.245 24.1338C68.7053 24.7899 68.1087 25.5195 67.4546 26.3223C67.3602 26.4292 67.3109 26.568 67.3158 26.7103V28.1743C67.3158 28.3833 67.3993 28.5836 67.5474 28.7313C67.6949 28.879 67.8956 28.962 68.1044 28.9622H82.141C82.2505 28.9659 82.3596 28.9456 82.461 28.9027C82.5619 28.8597 82.6519 28.7952 82.7251 28.7138C82.8591 28.5637 82.9318 28.3693 82.9296 28.1683V26.914C82.9394 26.8079 82.9258 26.7009 82.89 26.6005C82.8542 26.5001 82.7967 26.4088 82.7219 26.3328C82.647 26.2568 82.5564 26.1981 82.4566 26.1606C82.3574 26.1231 82.2505 26.1077 82.1442 26.1156Z" fill="#1F2B3D" fill-opacity="0.4"/>
<path d="M86.6494 10.1313H85.3493C85.1638 10.1309 84.9843 10.1998 84.8465 10.3246C84.7711 10.3933 84.7115 10.4776 84.6714 10.5716C84.6318 10.6657 84.6128 10.7672 84.616 10.8693V28.2228C84.609 28.3211 84.6231 28.4199 84.6572 28.5124C84.6914 28.6048 84.7451 28.6889 84.8145 28.7588C84.884 28.8288 84.968 28.883 85.0602 28.9178C85.1524 28.9527 85.2511 28.9673 85.3493 28.9607H86.6494C86.7508 28.972 86.8539 28.961 86.9509 28.9286C87.048 28.8961 87.137 28.8429 87.2113 28.7728C87.2861 28.7026 87.3447 28.617 87.3827 28.5221C87.4206 28.4271 87.438 28.325 87.4326 28.2228V10.8946C87.4396 10.7908 87.4244 10.6867 87.387 10.5895C87.3501 10.4924 87.2921 10.4044 87.2178 10.3319C87.1429 10.2592 87.0535 10.2037 86.9553 10.169C86.8571 10.1344 86.753 10.1216 86.6494 10.1313Z" fill="#1F2B3D" fill-opacity="0.4"/>
<path d="M106.267 10.1059H105.013C104.916 10.1056 104.819 10.1247 104.73 10.1622C104.64 10.1996 104.559 10.2545 104.491 10.3238C104.421 10.3906 104.364 10.4708 104.326 10.5598C104.287 10.6488 104.267 10.7447 104.267 10.8416L104.172 24.0077L94.0609 10.3753C93.9822 10.2663 93.8781 10.1779 93.7577 10.1178C93.6373 10.0576 93.5038 10.0274 93.3693 10.0298H91.6245C91.5209 10.0196 91.4157 10.0322 91.3175 10.0666C91.2188 10.101 91.1288 10.1564 91.0539 10.229C90.9786 10.3016 90.9205 10.3897 90.8825 10.4871C90.8451 10.5845 90.8294 10.6889 90.8359 10.7931V28.2951C90.8364 28.4693 90.9053 28.6363 91.0279 28.7597C91.151 28.8832 91.3175 28.953 91.4916 28.954H91.5215C91.5394 28.954 91.5583 28.954 91.5784 28.954H92.9918C93.154 28.9533 93.3102 28.893 93.4306 28.7845C93.551 28.6761 93.6275 28.5271 93.6454 28.366C93.6541 28.3155 93.659 28.2643 93.659 28.213V14.5224L104.34 28.957H106.159C106.263 28.9713 106.369 28.9628 106.469 28.9321C106.57 28.9015 106.662 28.8493 106.74 28.7793C106.818 28.7093 106.88 28.6231 106.922 28.5267C106.963 28.4303 106.983 28.3261 106.98 28.2212L107.106 10.8692C107.11 10.6745 107.041 10.4853 106.913 10.3387C106.828 10.2556 106.727 10.1918 106.616 10.1517C106.504 10.1115 106.385 10.0958 106.267 10.1059Z" fill="#1F2B3D" fill-opacity="0.4"/>
<path d="M121.469 10.1306H109.527C109.429 10.1208 109.33 10.1322 109.237 10.1639C109.143 10.1956 109.058 10.247 108.986 10.3145C108.914 10.382 108.858 10.4641 108.82 10.5553C108.783 10.6465 108.765 10.7447 108.769 10.8432V28.193C108.76 28.2949 108.774 28.3975 108.809 28.4937C108.844 28.5899 108.899 28.6774 108.971 28.7499C109.044 28.8225 109.13 28.8786 109.226 28.9142C109.322 28.9498 109.425 28.9642 109.527 28.9563H121.391C121.497 28.9645 121.604 28.9497 121.704 28.9126C121.803 28.8755 121.894 28.8172 121.969 28.7417C122.044 28.6662 122.102 28.5753 122.138 28.4752C122.174 28.3752 122.189 28.2685 122.18 28.1624V26.9081C122.184 26.7986 122.164 26.6897 122.121 26.5886C122.08 26.4876 122.016 26.3967 121.936 26.3223C121.779 26.1837 121.576 26.1094 121.366 26.1142H111.586V23.3668H119.346C119.457 23.3685 119.566 23.3433 119.665 23.2933C119.765 23.2432 119.85 23.1699 119.914 23.0795C120.023 22.9349 120.083 22.7591 120.084 22.5781V21.288C120.092 21.1877 120.079 21.0868 120.046 20.9919C120.012 20.8971 119.958 20.8106 119.888 20.7383C119.819 20.6659 119.734 20.6094 119.64 20.5725C119.547 20.5357 119.446 20.5194 119.346 20.5246H111.586V12.972H121.445C121.551 12.9767 121.658 12.9582 121.756 12.9178C121.855 12.8774 121.943 12.8161 122.016 12.738C122.089 12.6599 122.144 12.567 122.177 12.4657C122.21 12.3644 122.221 12.2571 122.208 12.1512V10.8715C122.215 10.7726 122.2 10.6734 122.166 10.5805C122.132 10.4876 122.077 10.4032 122.007 10.3331C121.937 10.2628 121.853 10.2084 121.76 10.1735C121.667 10.1386 121.568 10.124 121.469 10.1306Z" fill="#1F2B3D" fill-opacity="0.4"/>
<path d="M139.012 27.8856C138.894 27.7185 138.714 27.4549 138.472 27.0947C138.227 26.7321 137.881 26.2217 137.434 25.5636C136.987 24.9055 136.417 24.0708 135.727 23.0595C135.067 22.0944 134.27 20.9227 133.335 19.5443L135.728 16.015C136.419 14.9952 136.987 14.1565 137.434 13.4989C137.893 12.8273 138.233 12.3185 138.474 11.9521C138.715 11.5857 138.897 11.3156 139.013 11.1507C139.097 11.0389 139.174 10.9218 139.243 10.8C139.282 10.7279 139.303 10.6476 139.306 10.5658C139.304 10.499 139.289 10.4334 139.261 10.373C139.232 10.3127 139.191 10.2591 139.141 10.2156C139.09 10.1723 139.031 10.14 138.967 10.1212C138.903 10.1022 138.836 10.0971 138.77 10.1061H136.951C136.765 10.1172 136.584 10.1726 136.424 10.2679C136.264 10.3633 136.129 10.4956 136.031 10.6538L131.614 17.1603L127.212 10.6792C127.125 10.5109 126.994 10.3689 126.834 10.2681C126.674 10.1673 126.49 10.1114 126.301 10.1061H124.454C124.388 10.0971 124.321 10.1022 124.257 10.1212C124.193 10.14 124.134 10.1723 124.083 10.2156C124.033 10.2591 123.992 10.3127 123.963 10.373C123.935 10.4334 123.92 10.499 123.918 10.5658C123.92 10.6468 123.941 10.7265 123.98 10.7978C124.049 10.9206 124.126 11.0383 124.211 11.15C124.328 11.3176 124.509 11.5815 124.752 11.9416C124.994 12.3018 125.339 12.8159 125.788 13.484C126.23 14.1428 126.789 14.9666 127.496 16.003C128.15 16.9596 128.941 18.1109 129.912 19.5182C128.942 20.9255 128.151 22.0775 127.496 23.0333C126.813 24.034 126.238 24.8816 125.788 25.5524C125.338 26.2232 124.996 26.7321 124.752 27.0947C124.507 27.4574 124.328 27.7185 124.211 27.8864C124.127 27.997 124.051 28.1131 123.982 28.2341C123.942 28.3069 123.921 28.3883 123.918 28.4714C123.92 28.538 123.935 28.6037 123.963 28.664C123.992 28.7244 124.033 28.778 124.083 28.8214C124.134 28.8649 124.193 28.8971 124.257 28.916C124.321 28.9348 124.388 28.94 124.454 28.931H126.301C126.483 28.9176 126.659 28.8609 126.815 28.7654C126.97 28.67 127.101 28.5388 127.196 28.3826L131.613 21.8761L136.02 28.3677L136.03 28.3811C136.128 28.5393 136.263 28.6717 136.423 28.767C136.583 28.8623 136.763 28.9178 136.95 28.9288H138.771C138.837 28.9377 138.904 28.9326 138.968 28.9137C139.032 28.8949 139.091 28.8626 139.142 28.8192C139.193 28.7758 139.233 28.7222 139.262 28.6618C139.29 28.6015 139.306 28.5358 139.307 28.4692V28.4027L139.281 28.3385C139.207 28.1785 139.117 28.0267 139.012 27.8856Z" fill="#1F2B3D" fill-opacity="0.4"/>
</g>
<defs>
<clipPath id="clip0_1349_365">
<rect width="139.39" height="32" fill="white" transform="translate(0.19873)"/>
</clipPath>
</defs>
</svg>
