<svg width="123" height="28" viewBox="0 0 123 28" fill="none" xmlns="http://www.w3.org/2000/svg">
<g clip-path="url(#clip0_1344_205)">
<path d="M20.8888 24.6401C20.9406 24.7257 20.976 24.8203 20.9932 24.9189C20.9932 24.9881 20.8888 25.0233 20.6812 25.0233H18.0696C17.9045 25.0299 17.743 24.9742 17.6171 24.8673C17.5956 24.8477 17.5741 24.8275 17.5518 24.8079L10.3491 12.9044H13.9119C14.5285 12.8628 15.1292 12.6912 15.6748 12.401C16.2166 12.1139 16.7053 11.736 17.1196 11.2839C17.5388 10.8298 17.8749 10.3056 18.1126 9.73523C18.3544 9.16203 18.4788 8.54618 18.4783 7.9241C18.4763 7.28974 18.346 6.66235 18.095 6.07966C17.8488 5.48995 17.5012 4.94794 17.068 4.47813C16.6342 4.01056 16.1139 3.63162 15.5357 3.36234C14.9536 3.08625 14.3172 2.94392 13.673 2.9458H4.32293L2.59473 0.0900477H13.7037C14.7232 0.0851648 15.7318 0.29866 16.6619 0.716172C17.5709 1.12076 18.3946 1.69438 19.0894 2.40651C19.7895 3.12724 20.3506 3.97098 20.7445 4.89531C21.1554 5.83967 21.3662 6.85896 21.3634 7.88884C21.3653 8.76202 21.2121 9.62859 20.9109 10.4482C20.6196 11.2569 20.2037 12.0151 19.6783 12.6954C19.1492 13.3759 18.5224 13.9743 17.8182 14.4713C17.1036 14.9805 16.3036 15.3578 15.4561 15.5851L20.8888 24.6401Z" fill="#F1B80E"/>
<path d="M17.2701 27.8378C17.2701 27.907 17.1656 27.9429 16.9586 27.9429H14.347C14.1821 27.9493 14.0208 27.8933 13.8953 27.7862C13.8724 27.7673 13.8515 27.747 13.83 27.7275L3.99219 11.1655H7.48909L15.0058 23.9622L17.1663 27.5623C17.2175 27.6469 17.2527 27.7403 17.2701 27.8378Z" fill="#F1B80E"/>
<path d="M9.69529 24.1462C9.69529 24.2153 9.59079 24.2512 9.38383 24.2512H6.77228C6.60736 24.2576 6.44606 24.2016 6.32048 24.0946C6.29761 24.0756 6.27673 24.0554 6.25518 24.0358L0.75 14.8555H4.24689L7.43104 20.2647L9.5934 23.8654C9.64461 23.9518 9.67916 24.047 9.69529 24.1462Z" fill="#F1B80E"/>
<path d="M29.99 8.87329H28.4884C28.3841 8.87396 28.2826 8.90637 28.1972 8.96621C28.1118 9.02601 28.0467 9.11044 28.0105 9.2082L22.3101 25.3346H24.5234L25.0072 24.0589C26.2615 24.891 27.7333 25.3348 29.2385 25.3348C30.7438 25.3348 32.2156 24.891 33.47 24.0589L33.9537 25.3346H36.169L30.4647 9.2017C30.4279 9.1055 30.3628 9.02269 30.2781 8.96408C30.1934 8.90547 30.093 8.87381 29.99 8.87329ZM32.7838 22.1198C32.3937 22.4193 31.9688 22.6705 31.5185 22.868C30.7953 23.1669 30.0204 23.32 29.2379 23.3185C28.4576 23.3226 27.6844 23.1703 26.9639 22.8706C26.5102 22.676 26.0823 22.426 25.6901 22.1264L29.2373 12.077L32.7838 22.1198Z" fill="black"/>
<path d="M57.9397 24.4271L51.6525 9.32836C51.6032 9.1651 51.4935 9.02681 51.3459 8.94186C51.2183 8.88529 51.0797 8.85891 50.9402 8.86484H50.2321C50.0921 8.85886 49.9531 8.88548 49.8249 8.94253C49.683 9.02548 49.572 9.15248 49.5084 9.3042L47.6647 13.7576L45.8268 9.31792C45.7659 9.14356 45.6388 9.00023 45.473 8.91899C45.352 8.87922 45.2248 8.86133 45.0975 8.86612H44.3898C44.241 8.85777 44.0931 8.89516 43.9662 8.97323C43.8392 9.0513 43.7392 9.16634 43.6795 9.30292L37.4038 24.3958C37.3485 24.5008 37.3217 24.6186 37.3262 24.7373C37.3262 25.0278 37.5077 25.3386 38.0163 25.3386H39.1451C39.2965 25.3426 39.4457 25.3012 39.5734 25.2197C39.6978 25.1304 39.7978 25.0115 39.8646 24.8737C39.9428 24.722 40.0113 24.5654 40.0696 24.4049C40.1349 24.2267 40.2283 23.9995 40.3432 23.7266L44.758 12.8651C44.98 13.4357 45.2033 14.0011 45.4266 14.5528C45.7335 15.3148 46.052 16.0897 46.3733 16.8588L43.2153 24.4167L43.2074 24.4376C43.1713 24.5334 43.1509 24.6343 43.1467 24.7366C43.1467 25.0271 43.3282 25.3379 43.8368 25.3379H44.9656C45.1232 25.3439 45.2788 25.3009 45.4109 25.2149C45.543 25.1288 45.6452 25.0039 45.7034 24.8574C45.7596 24.7366 45.8223 24.5838 45.8895 24.4037C45.9568 24.2235 46.0482 23.9982 46.1631 23.7253L50.5857 12.8651L55.0054 23.7155C55.2161 24.2887 55.3637 24.6654 55.4572 24.8672C55.5198 25.0119 55.6252 25.1343 55.759 25.2182C55.8929 25.302 56.0485 25.3435 56.2066 25.3373H57.3356C57.42 25.3476 57.5055 25.3398 57.5871 25.3142C57.6682 25.2885 57.7428 25.2458 57.8063 25.1888C57.8695 25.1318 57.9198 25.0619 57.9539 24.9838C57.9881 24.9057 58.0047 24.8211 58.0033 24.7359C57.999 24.6342 57.9786 24.5337 57.943 24.4382L57.9397 24.4271Z" fill="black"/>
<path d="M72.4523 22.8513H62.9916L72.5894 10.838V9.53222C72.5965 9.42986 72.578 9.32721 72.5353 9.23395C72.4921 9.1407 72.4262 9.05983 72.3436 8.99885C72.2055 8.9082 72.0422 8.8626 71.8771 8.86824H60.3695C60.2656 8.85956 60.1612 8.87451 60.0639 8.91205C59.9666 8.94959 59.8793 9.00877 59.8081 9.08503C59.7184 9.21141 59.6729 9.36365 59.6776 9.51851V10.6382C59.6681 10.7325 59.679 10.8278 59.7099 10.9174C59.7407 11.007 59.7906 11.0888 59.8565 11.1572C59.922 11.2255 60.0017 11.2787 60.09 11.3132C60.1783 11.3476 60.2732 11.3623 60.3676 11.3564H69.1544L64.5937 16.921C63.9901 17.6686 63.3755 18.4227 62.7699 19.1624C62.1725 19.8915 61.6376 20.5431 61.1654 21.1172C60.6932 21.6912 60.1712 22.3296 59.5988 23.0321C59.5163 23.1256 59.4731 23.2471 59.4773 23.3716V24.6526C59.4773 24.8354 59.5504 25.0107 59.68 25.1399C59.8091 25.2692 59.9847 25.3418 60.1674 25.342H72.4494C72.5453 25.3452 72.6407 25.3275 72.7294 25.2899C72.8177 25.2523 72.8965 25.1959 72.9605 25.1246C73.0778 24.9933 73.1413 24.8232 73.1394 24.6473V23.5498C73.148 23.457 73.1361 23.3633 73.1048 23.2755C73.0735 23.1877 73.0232 23.1078 72.9577 23.0413C72.8922 22.9748 72.8129 22.9234 72.7256 22.8906C72.6388 22.8578 72.5453 22.8443 72.4523 22.8513Z" fill="black"/>
<path d="M76.394 8.86496H75.2565C75.0942 8.86453 74.9371 8.92485 74.8165 9.03405C74.7506 9.09418 74.6984 9.16793 74.6632 9.25022C74.6286 9.33251 74.612 9.42135 74.6148 9.51066V24.695C74.6087 24.781 74.621 24.8674 74.6509 24.9483C74.6808 25.0293 74.7278 25.1028 74.7885 25.164C74.8493 25.2252 74.9228 25.2727 75.0035 25.3031C75.0842 25.3336 75.1706 25.3464 75.2565 25.3407H76.394C76.4828 25.3505 76.5729 25.3409 76.6579 25.3125C76.7428 25.2841 76.8207 25.2376 76.8857 25.1762C76.9512 25.1148 77.0024 25.0399 77.0356 24.9568C77.0689 24.8737 77.0841 24.7844 77.0793 24.695V9.53283C77.0855 9.44199 77.0722 9.35092 77.0394 9.26588C77.0072 9.18088 76.9564 9.1039 76.8914 9.04041C76.8259 8.97686 76.7476 8.92826 76.6617 8.89794C76.5758 8.86766 76.4847 8.85641 76.394 8.86496Z" fill="black"/>
<path d="M93.56 8.84281H92.4624C92.3774 8.84252 92.2929 8.85928 92.2146 8.89202C92.1363 8.92477 92.0651 8.97284 92.0053 9.03345C91.9441 9.09187 91.8948 9.1621 91.8611 9.23998C91.8274 9.31786 91.8098 9.40172 91.8093 9.48653L91.7268 21.0068L82.8792 9.07848C82.8104 8.98309 82.7193 8.90579 82.6139 8.85316C82.5086 8.80053 82.3918 8.77414 82.2742 8.77618H80.7474C80.6568 8.7673 80.5647 8.77827 80.4788 8.80836C80.3925 8.83849 80.3137 8.88699 80.2482 8.95049C80.1822 9.01404 80.1314 9.09111 80.0982 9.17634C80.0655 9.26158 80.0517 9.35293 80.0574 9.4441V24.7583C80.0579 24.9107 80.1182 25.0569 80.2254 25.1649C80.3331 25.2729 80.4788 25.334 80.6312 25.3349H80.6573C80.6729 25.3349 80.6895 25.3349 80.7071 25.3349H81.9438C82.0857 25.3342 82.2224 25.2815 82.3278 25.1866C82.4331 25.0917 82.5001 24.9614 82.5157 24.8204C82.5233 24.7762 82.5276 24.7314 82.5276 24.6865V12.7072L91.8734 25.3375H93.4651C93.5563 25.35 93.6488 25.3426 93.7366 25.3157C93.8244 25.2889 93.9051 25.2433 93.9734 25.182C94.0417 25.1207 94.0958 25.0453 94.1324 24.961C94.1685 24.8767 94.186 24.7854 94.1836 24.6937L94.2937 9.51068C94.2971 9.34031 94.2368 9.17473 94.1248 9.0465C94.0508 8.97379 93.962 8.91798 93.8647 8.88282C93.767 8.84765 93.663 8.83398 93.56 8.84281Z" fill="black"/>
<path d="M106.862 8.86417H96.4123C96.3264 8.85563 96.24 8.8656 96.1584 8.89336C96.0768 8.92107 96.0018 8.96602 95.9391 9.0251C95.876 9.08419 95.8267 9.15604 95.7939 9.23581C95.7612 9.31564 95.746 9.40149 95.7493 9.48772V24.6687C95.7417 24.758 95.7536 24.8478 95.7839 24.9319C95.8148 25.0161 95.8632 25.0926 95.9263 25.1561C95.9894 25.2196 96.0654 25.2687 96.1494 25.2998C96.2334 25.331 96.3231 25.3436 96.4123 25.3367H106.793C106.886 25.3439 106.98 25.3309 107.067 25.2984C107.154 25.266 107.234 25.215 107.299 25.1489C107.365 25.0829 107.415 25.0033 107.447 24.9157C107.479 24.8282 107.491 24.7348 107.484 24.642V23.5445C107.487 23.4487 107.469 23.3534 107.432 23.265C107.396 23.1765 107.34 23.097 107.27 23.0319C107.133 22.9107 106.955 22.8456 106.772 22.8498H98.2138V20.4458H105.004C105.101 20.4473 105.197 20.4253 105.284 20.3815C105.37 20.3377 105.445 20.2736 105.501 20.1945C105.597 20.068 105.648 19.9141 105.649 19.7557V18.6269C105.657 18.5392 105.646 18.4509 105.616 18.3678C105.587 18.2849 105.54 18.2092 105.479 18.1459C105.418 18.0826 105.343 18.0331 105.262 18.0009C105.18 17.9686 105.092 17.9543 105.004 17.959H98.2138V11.3504H106.841C106.934 11.3546 107.027 11.3384 107.113 11.303C107.199 11.2677 107.277 11.214 107.34 11.1457C107.404 11.0774 107.452 10.9961 107.481 10.9074C107.51 10.8188 107.519 10.7248 107.508 10.6322V9.51249C107.515 9.42598 107.502 9.33913 107.471 9.25788C107.441 9.17659 107.394 9.10274 107.333 9.04133C107.272 8.97987 107.198 8.93227 107.116 8.90176C107.035 8.8712 106.948 8.85838 106.862 8.86417Z" fill="black"/>
<path d="M122.212 24.3998C122.109 24.2536 121.951 24.0229 121.739 23.7078C121.525 23.3905 121.222 22.9439 120.831 22.3681C120.44 21.7922 119.941 21.0618 119.337 20.1769C118.76 19.3325 118.062 18.3073 117.244 17.1012L119.338 14.013C119.942 13.1207 120.44 12.3869 120.831 11.8114C121.232 11.2238 121.53 10.7786 121.741 10.458C121.952 10.1374 122.111 9.90109 122.212 9.75677C122.286 9.65896 122.354 9.55645 122.414 9.44991C122.448 9.38679 122.467 9.31655 122.469 9.24494C122.467 9.18657 122.454 9.12914 122.429 9.07632C122.404 9.02355 122.368 8.97661 122.324 8.9386C122.28 8.90064 122.228 8.87245 122.172 8.85593C122.116 8.83937 122.058 8.83491 122 8.84274H120.408C120.245 8.85242 120.087 8.90097 119.947 8.98435C119.807 9.06778 119.689 9.18353 119.604 9.32196L115.738 15.0152L111.887 9.34417C111.811 9.19691 111.696 9.07272 111.556 8.98449C111.416 8.89632 111.255 8.84734 111.089 8.84274H109.474C109.416 8.83491 109.357 8.83937 109.301 8.85593C109.245 8.87245 109.193 8.90064 109.149 8.9386C109.105 8.97661 109.069 9.02355 109.044 9.07632C109.02 9.12914 109.006 9.18657 109.005 9.24494C109.006 9.31589 109.025 9.38556 109.059 9.44796C109.119 9.55541 109.186 9.65839 109.261 9.75615C109.364 9.9028 109.521 10.1337 109.734 10.4488C109.946 10.764 110.248 11.2138 110.641 11.7984C111.027 12.3749 111.516 13.0957 112.136 14.0025C112.708 14.8395 113.399 15.847 114.249 17.0783C113.4 18.3097 112.708 19.3177 112.136 20.1541C111.538 21.0296 111.034 21.7713 110.641 22.3582C110.247 22.9452 109.947 23.3905 109.734 23.7078C109.52 24.0251 109.364 24.2536 109.261 24.4005C109.188 24.4972 109.121 24.5989 109.06 24.7047C109.026 24.7685 109.007 24.8397 109.005 24.9124C109.006 24.9707 109.02 25.0282 109.044 25.0809C109.069 25.1338 109.105 25.1807 109.149 25.2187C109.193 25.2567 109.245 25.2849 109.301 25.3014C109.357 25.3179 109.416 25.3224 109.474 25.3146H111.089C111.249 25.3028 111.403 25.2532 111.539 25.1697C111.675 25.0862 111.79 24.9714 111.873 24.8347L115.738 19.1415L119.594 24.8216L119.603 24.8333C119.689 24.9718 119.807 25.0876 119.947 25.171C120.087 25.2544 120.244 25.303 120.407 25.3126H122.001C122.059 25.3204 122.117 25.3159 122.173 25.2994C122.229 25.2829 122.281 25.2547 122.326 25.2167C122.37 25.1787 122.406 25.1318 122.43 25.079C122.455 25.0262 122.469 24.9687 122.47 24.9104V24.8523L122.447 24.7961C122.383 24.6561 122.304 24.5233 122.212 24.3998Z" fill="black"/>
</g>
<defs>
<clipPath id="clip0_1344_205">
<rect width="121.966" height="28" fill="white" transform="translate(0.75)"/>
</clipPath>
</defs>
</svg>
