<svg width="276" height="101" viewBox="0 0 276 101" fill="none" xmlns="http://www.w3.org/2000/svg">
<path fill-rule="evenodd" clip-rule="evenodd" d="M205.301 28.1632L223.004 20.8282C222.831 20.4119 222.737 19.9529 222.737 19.4737C222.737 19.0799 222.802 18.7019 222.919 18.3487L209.207 9.41616C208.616 9.95616 207.839 10.2982 206.987 10.3364L203.607 26.3474C204.368 26.7277 204.971 27.3712 205.299 28.1609L205.301 28.1632Z" fill="#939598"/>
<path fill-rule="evenodd" clip-rule="evenodd" d="M193.347 50.49L200.682 32.787C199.892 32.4585 199.249 31.8555 198.868 31.095L182.855 34.4745C182.817 35.3295 182.475 36.1035 181.935 36.6953L190.868 50.4068C191.221 50.2876 191.599 50.2245 191.993 50.2245C192.472 50.2245 192.929 50.319 193.347 50.4923V50.49Z" fill="#939598"/>
<path fill-rule="evenodd" clip-rule="evenodd" d="M200.68 74.7293L193.345 57.0263C192.929 57.1995 192.472 57.294 191.99 57.294C191.597 57.294 191.219 57.2288 190.865 57.1118L181.933 70.8233C182.473 71.415 182.815 72.189 182.853 73.044L198.864 76.4236C199.244 75.6631 199.888 75.0578 200.678 74.7315L200.68 74.7293Z" fill="#939598"/>
<path fill-rule="evenodd" clip-rule="evenodd" d="M223.007 86.6857L205.304 79.3507C204.977 80.1405 204.372 80.784 203.612 81.1642L206.991 97.1752C207.846 97.2135 208.62 97.5555 209.212 98.0955L222.923 89.163C222.804 88.8097 222.741 88.4317 222.741 88.038C222.741 87.5587 222.838 87.102 223.009 86.6835L223.007 86.6857Z" fill="#939598"/>
<path fill-rule="evenodd" clip-rule="evenodd" d="M247.246 79.3507L229.543 86.6857C229.716 87.102 229.811 87.5587 229.811 88.0402C229.811 88.434 229.745 88.812 229.628 89.1652L243.34 98.0977C243.932 97.5577 244.706 97.2157 245.561 97.1775L248.94 81.1665C248.18 80.7885 247.574 80.1427 247.248 79.353L247.246 79.3507Z" fill="#939598"/>
<path fill-rule="evenodd" clip-rule="evenodd" d="M259.364 56.6346L251.87 74.7291C252.659 75.0576 253.303 75.6606 253.683 76.4211L269.694 73.0416C269.732 72.1821 270.079 71.4037 270.623 70.8097L261.45 56.5919C261.101 56.7066 260.728 56.7696 260.341 56.7696C260.001 56.7696 259.675 56.7224 259.364 56.6324V56.6346Z" fill="#939598"/>
<path fill-rule="evenodd" clip-rule="evenodd" d="M251.867 32.7849L258.984 49.9658C259.4 49.7926 259.857 49.6981 260.339 49.6981C260.757 49.6981 261.157 49.7701 261.531 49.9051L270.565 36.6391C270.054 36.0541 269.73 35.3004 269.694 34.4724L253.683 31.0928C253.303 31.8533 252.659 32.4586 251.87 32.7849H251.867Z" fill="#939598"/>
<path fill-rule="evenodd" clip-rule="evenodd" d="M229.543 20.8306L247.246 28.1656C247.572 27.3758 248.177 26.7323 248.938 26.3521L245.558 10.3388C244.703 10.3006 243.929 9.95858 243.337 9.41858L229.626 18.3511C229.745 18.7043 229.808 19.0823 229.808 19.4761C229.808 19.9553 229.714 20.4121 229.541 20.8306H229.543Z" fill="#939598"/>
<path fill-rule="evenodd" clip-rule="evenodd" d="M181.825 31.8106L204.329 9.30608C204.599 9.57383 204.91 9.80107 205.254 9.97207L201.875 25.9853C200.05 26.0686 198.587 27.5311 198.504 29.3558L182.491 32.7353C182.32 32.3911 182.095 32.0806 181.825 31.8106Z" fill="#FFDE00"/>
<path fill-rule="evenodd" clip-rule="evenodd" d="M179.323 69.6689V37.8449C179.717 37.8449 180.095 37.7797 180.448 37.6627L189.38 51.3742C188.807 52.0019 188.456 52.8389 188.456 53.7569C188.456 54.6749 188.807 55.5119 189.38 56.1397L180.448 69.8512C180.095 69.7319 179.717 69.6689 179.323 69.6689Z" fill="#FFDE00"/>
<path fill-rule="evenodd" clip-rule="evenodd" d="M204.327 98.2079L181.822 75.7034C182.09 75.4334 182.318 75.1229 182.489 74.7787L198.502 78.1582C198.585 79.9829 200.047 81.4454 201.872 81.5287L205.252 97.5419C204.907 97.7129 204.597 97.9379 204.327 98.2079Z" fill="#FFDE00"/>
<path fill-rule="evenodd" clip-rule="evenodd" d="M242.186 100.71H210.362C210.362 100.316 210.296 99.9383 210.179 99.5851L223.891 90.6526C224.519 91.2263 225.356 91.5773 226.274 91.5773C227.192 91.5773 228.029 91.2263 228.656 90.6526L242.368 99.5851C242.249 99.9383 242.186 100.316 242.186 100.71Z" fill="#FFDE00"/>
<path fill-rule="evenodd" clip-rule="evenodd" d="M270.725 75.7057L248.22 98.2079C247.952 97.9402 247.64 97.7129 247.295 97.5419L250.675 81.5287C252.5 81.4454 253.962 79.9829 254.045 78.1582L270.059 74.7787C270.23 75.1229 270.457 75.4334 270.725 75.7034V75.7057Z" fill="#FFDE00"/>
<path fill-rule="evenodd" clip-rule="evenodd" d="M273.227 37.8472V69.6712C272.84 69.6712 272.466 69.7342 272.117 69.849L262.942 55.6312C263.522 55.0012 263.876 54.1597 263.876 53.2372C263.876 52.3147 263.545 51.5294 263 50.9084L272.034 37.6425C272.408 37.7752 272.808 37.8495 273.227 37.8495V37.8472Z" fill="#FFDE00"/>
<path fill-rule="evenodd" clip-rule="evenodd" d="M248.222 9.30608L270.725 31.8106C270.455 32.0806 270.23 32.3911 270.059 32.7353L254.045 29.3558C253.962 27.5311 252.5 26.0686 250.675 25.9853L247.295 9.97207C247.64 9.80107 247.95 9.57608 248.22 9.30608H248.222Z" fill="#FFDE00"/>
<path fill-rule="evenodd" clip-rule="evenodd" d="M210.364 6.80625H242.188C242.188 7.2 242.253 7.578 242.37 7.93125L228.658 16.8638C228.031 16.29 227.194 15.939 226.276 15.939C225.358 15.939 224.521 16.29 223.893 16.8638L210.182 7.93125C210.301 7.578 210.364 7.2 210.364 6.80625Z" fill="#FFDE00"/>
<path d="M244.994 98.953H204.847L176.459 70.5647V30.4157L204.847 2.02749H244.994L273.382 30.4157V70.5647L244.994 98.953ZM206.1 95.929H243.743L270.36 69.3115V31.6667L243.743 5.04924H206.1L179.483 31.6667V69.3115L206.1 95.929Z" fill="#231F20"/>
<path d="M224.921 86.4091L199.523 75.8881L189.005 50.4924L199.523 25.0944L224.921 14.5756L250.317 25.0944L260.838 50.4924L250.317 75.8881L224.921 86.4091ZM201.839 73.5729L224.921 83.1354L248.004 73.5729L257.567 50.4901L248.004 27.4074L224.921 17.8471L201.839 27.4074L192.278 50.4901L201.839 73.5729Z" fill="#231F20"/>
<path d="M245.392 99.9115L224.921 86.5757L204.451 99.9115L199.404 76.0075L175.5 70.963L188.836 50.4925L175.5 30.022L199.404 24.9752L204.451 1.07124L224.921 14.407L245.392 1.07124L250.436 24.9752L274.39 30.031L260.798 49.993L274.331 70.9675L250.436 76.0098L245.39 99.9137L245.392 99.9115ZM180.441 68.9155L201.958 73.4538L206.496 94.9705L224.921 82.9667L243.344 94.9705L247.883 73.4538L269.408 68.9132L257.171 49.9457L269.352 32.056L247.885 27.5267L243.347 6.00999L224.921 18.016L206.496 6.00999L201.958 27.5267L180.441 32.065L192.447 50.4902L180.441 68.9155Z" fill="#231F20"/>
<path fill-rule="evenodd" clip-rule="evenodd" d="M177.971 34.5781C179.919 34.5781 181.508 32.9895 181.508 31.041C181.508 29.0925 179.919 27.5041 177.971 27.5041C176.022 27.5041 174.434 29.0925 174.434 31.041C174.434 32.9895 176.022 34.5781 177.971 34.5781Z" fill="#231F20"/>
<path fill-rule="evenodd" clip-rule="evenodd" d="M190.64 54.0269C192.589 54.0269 194.177 52.4384 194.177 50.4899C194.177 48.5414 192.589 46.9529 190.64 46.9529C188.692 46.9529 187.103 48.5414 187.103 50.4899C187.103 52.4384 188.692 54.0269 190.64 54.0269Z" fill="#231F20"/>
<path fill-rule="evenodd" clip-rule="evenodd" d="M177.971 73.4738C179.919 73.4738 181.508 71.8854 181.508 69.9369C181.508 67.9884 179.919 66.3998 177.971 66.3998C176.022 66.3998 174.434 67.9884 174.434 69.9369C174.434 71.8854 176.022 73.4738 177.971 73.4738Z" fill="#231F20"/>
<path fill-rule="evenodd" clip-rule="evenodd" d="M200.68 78.2663C202.628 78.2663 204.217 76.6778 204.217 74.7293C204.217 72.7808 202.628 71.1923 200.68 71.1923C198.731 71.1923 197.143 72.7808 197.143 74.7293C197.143 76.6778 198.731 78.2663 200.68 78.2663Z" fill="#231F20"/>
<path fill-rule="evenodd" clip-rule="evenodd" d="M205.472 100.978C207.421 100.978 209.009 99.3892 209.009 97.4407C209.009 95.4922 207.421 93.9037 205.472 93.9037C203.524 93.9037 201.935 95.4922 201.935 97.4407C201.935 99.3892 203.524 100.978 205.472 100.978Z" fill="#231F20"/>
<path fill-rule="evenodd" clip-rule="evenodd" d="M224.921 88.308C226.87 88.308 228.458 86.7195 228.458 84.771C228.458 82.8225 226.87 81.234 224.921 81.234C222.973 81.234 221.384 82.8225 221.384 84.771C221.384 86.7195 222.973 88.308 224.921 88.308Z" fill="#231F20"/>
<path fill-rule="evenodd" clip-rule="evenodd" d="M244.368 100.978C246.317 100.978 247.905 99.3892 247.905 97.4407C247.905 95.4922 246.317 93.9037 244.368 93.9037C242.42 93.9037 240.831 95.4922 240.831 97.4407C240.831 99.3892 242.42 100.978 244.368 100.978Z" fill="#231F20"/>
<path fill-rule="evenodd" clip-rule="evenodd" d="M249.16 78.2663C251.109 78.2663 252.697 76.6778 252.697 74.7293C252.697 72.7808 251.109 71.1923 249.16 71.1923C247.212 71.1923 245.624 72.7808 245.624 74.7293C245.624 76.6778 247.212 78.2663 249.16 78.2663Z" fill="#231F20"/>
<path fill-rule="evenodd" clip-rule="evenodd" d="M271.872 73.4738C273.821 73.4738 275.409 71.8854 275.409 69.9369C275.409 67.9884 273.821 66.3998 271.872 66.3998C269.924 66.3998 268.335 67.9884 268.335 69.9369C268.335 71.8854 269.924 73.4738 271.872 73.4738Z" fill="#231F20"/>
<path fill-rule="evenodd" clip-rule="evenodd" d="M258.986 53.5027C260.935 53.5027 262.523 51.9142 262.523 49.9657C262.523 48.0172 260.935 46.4287 258.986 46.4287C257.038 46.4287 255.449 48.0172 255.449 49.9657C255.449 51.9142 257.038 53.5027 258.986 53.5027Z" fill="#231F20"/>
<path fill-rule="evenodd" clip-rule="evenodd" d="M249.16 29.7856C251.109 29.7856 252.697 28.1971 252.697 26.2486C252.697 24.3001 251.109 22.7116 249.16 22.7116C247.212 22.7116 245.624 24.3001 245.624 26.2486C245.624 28.1971 247.212 29.7856 249.16 29.7856Z" fill="#231F20"/>
<path fill-rule="evenodd" clip-rule="evenodd" d="M224.921 19.7461C226.87 19.7461 228.458 18.1576 228.458 16.2091C228.458 14.2606 226.87 12.6721 224.921 12.6721C222.973 12.6721 221.384 14.2606 221.384 16.2091C221.384 18.1576 222.973 19.7461 224.921 19.7461Z" fill="#231F20"/>
<path fill-rule="evenodd" clip-rule="evenodd" d="M200.68 29.7856C202.628 29.7856 204.217 28.1971 204.217 26.2486C204.217 24.3001 202.628 22.7116 200.68 22.7116C198.731 22.7116 197.143 24.3001 197.143 26.2486C197.143 28.1971 198.731 29.7856 200.68 29.7856Z" fill="#231F20"/>
<path fill-rule="evenodd" clip-rule="evenodd" d="M271.872 34.5781C273.821 34.5781 275.409 32.9895 275.409 31.041C275.409 29.0925 273.821 27.5041 271.872 27.5041C269.924 27.5041 268.335 29.0925 268.335 31.041C268.335 32.9895 269.924 34.5781 271.872 34.5781Z" fill="#231F20"/>
<path fill-rule="evenodd" clip-rule="evenodd" d="M244.368 7.074C246.317 7.074 247.905 5.48551 247.905 3.53701C247.905 1.58851 246.317 0 244.368 0C242.42 0 240.831 1.58851 240.831 3.53701C240.831 5.48551 242.42 7.074 244.368 7.074Z" fill="#231F20"/>
<path fill-rule="evenodd" clip-rule="evenodd" d="M205.472 7.0762C207.421 7.0762 209.009 5.4877 209.009 3.5392C209.009 1.5907 207.421 0.00219727 205.472 0.00219727C203.524 0.00219727 201.935 1.5907 201.935 3.5392C201.935 5.4877 203.524 7.0762 205.472 7.0762Z" fill="#231F20"/>
<path d="M229.277 33.66V67.3965H222.469V44.181H214.668V39.843C216.961 39.78 218.711 39.555 219.92 39.1613C221.128 38.7698 222.064 38.1038 222.734 37.1633C223.403 36.225 223.767 35.0573 223.83 33.6555H229.275L229.277 33.66Z" fill="#231F20"/>
<path fill-rule="evenodd" clip-rule="evenodd" d="M95.931 45.1036V18.7718H89.0663V52.8886H109.402V45.1036H95.931Z" fill="#FFDE00"/>
<path fill-rule="evenodd" clip-rule="evenodd" d="M135.329 52.0314L127.773 45.1982L141.453 31.0884L136.17 26.0327L118.391 44.5659L131.63 58.5632H155.795V52.0314H135.329Z" fill="#FFDE00"/>
<path d="M77.6362 52.0314H54.09V58.5609H77.6362V52.0314Z" fill="#FFDE00"/>
<path d="M0.00219727 57.8049V64.3772H54.8482V57.8049H0.00219727Z" fill="#949B9C"/>
<path d="M82.611 57.8049V64.3772H109.933V57.8049H82.611Z" fill="#949B9C"/>
<path fill-rule="evenodd" clip-rule="evenodd" d="M123.228 57.7308H109.291V45.1443L110.353 44.3478L123.228 57.7308Z" fill="#949B9C"/>
<path fill-rule="evenodd" clip-rule="evenodd" d="M137.61 83.2233C140.67 83.2233 143.167 80.728 143.167 77.6658C143.167 74.6035 140.67 72.1083 137.61 72.1083C134.55 72.1083 132.052 74.6058 132.052 77.6658C132.052 80.7258 134.548 83.2233 137.61 83.2233Z" fill="#20221D"/>
<path fill-rule="evenodd" clip-rule="evenodd" d="M148.725 83.2231C151.785 83.2231 154.283 80.7279 154.283 77.6656C154.283 74.6034 151.785 72.1081 148.725 72.1081C145.665 72.1081 143.167 74.6058 143.167 77.6658C143.167 80.7258 145.663 83.2231 148.725 83.2231Z" fill="#20221D"/>
<path fill-rule="evenodd" clip-rule="evenodd" d="M67.7947 39.985C70.8547 39.985 73.3522 37.4898 73.3522 34.4275C73.3522 31.3653 70.8547 28.87 67.7947 28.87C64.7347 28.87 62.2372 31.3675 62.2372 34.4275C62.2372 37.4875 64.7325 39.985 67.7947 39.985Z" fill="#20221D"/>
<path fill-rule="evenodd" clip-rule="evenodd" d="M102.382 28.8702C105.442 28.8702 107.939 26.3727 107.939 23.3127C107.939 20.2527 105.442 17.7552 102.382 17.7552C99.3216 17.7552 96.8241 20.2527 96.8241 23.3127C96.8241 26.3727 99.3194 28.8702 102.382 28.8702Z" fill="#20221D"/>
<path fill-rule="evenodd" clip-rule="evenodd" d="M113.497 28.8702C116.557 28.8702 119.054 26.3727 119.054 23.3127C119.054 20.2527 116.557 17.7552 113.497 17.7552C110.437 17.7552 107.939 20.2527 107.939 23.3127C107.939 26.3727 110.434 28.8702 113.497 28.8702Z" fill="#20221D"/>
<path fill-rule="evenodd" clip-rule="evenodd" d="M23.4069 28.8702C26.4669 28.8702 28.9644 26.3727 28.9644 23.3127C28.9644 20.2527 26.4669 17.7552 23.4069 17.7552C20.3469 17.7552 17.8494 20.2527 17.8494 23.3127C17.8494 26.3727 20.3446 28.8702 23.4069 28.8702Z" fill="#20221D"/>
<path fill-rule="evenodd" clip-rule="evenodd" d="M34.5219 28.8702C37.5819 28.8702 40.0794 26.3727 40.0794 23.3127C40.0794 20.2527 37.5819 17.7552 34.5219 17.7552C31.4619 17.7552 28.9644 20.2527 28.9644 23.3127C28.9644 26.3727 31.4596 28.8702 34.5219 28.8702Z" fill="#20221D"/>
<path d="M77.6362 57.8049H54.09V64.3772H77.6362V57.8049Z" fill="#20221D"/>
<path d="M109.402 58.5631H82.611V18.7718H89.9865V52.0313H109.402V58.5631Z" fill="#20221D"/>
<path d="M54.846 52.0314H0V58.5609H54.846V52.0314Z" fill="#20221D"/>
<path d="M54.846 46.3592H0V52.8886H54.846V46.3592Z" fill="#FFDE00"/>
<path d="M132.23 57.805L119.308 45.1983L136.926 26.7888L132.385 22.2505L109.136 45.1983L123.014 57.805H109.177V64.3773H155.794V57.805H132.23Z" fill="#20221D"/>
</svg>