<svg width="16" height="16" viewBox="0 0 16 16" fill="none" xmlns="http://www.w3.org/2000/svg">
<path fill-rule="evenodd" clip-rule="evenodd" d="M2 4.33333C2 2.58319 2.01874 2 4.33333 2C6.64793 2 6.66667 2.58319 6.66667 4.33333C6.66667 6.08348 6.67405 6.66667 4.33333 6.66667C1.99262 6.66667 2 6.08348 2 4.33333Z" stroke="#8A8998" stroke-width="0.7" stroke-linecap="round" stroke-linejoin="round"/>
<path fill-rule="evenodd" clip-rule="evenodd" d="M9.33301 4.33333C9.33301 2.58319 9.35175 2 11.6663 2C13.9809 2 13.9997 2.58319 13.9997 4.33333C13.9997 6.08348 14.0071 6.66667 11.6663 6.66667C9.32563 6.66667 9.33301 6.08348 9.33301 4.33333Z" stroke="#8A8998" stroke-width="0.7" stroke-linecap="round" stroke-linejoin="round"/>
<path fill-rule="evenodd" clip-rule="evenodd" d="M2 11.6667C2 9.91657 2.01874 9.33337 4.33333 9.33337C6.64793 9.33337 6.66667 9.91657 6.66667 11.6667C6.66667 13.4168 6.67405 14 4.33333 14C1.99262 14 2 13.4168 2 11.6667Z" stroke="#8A8998" stroke-width="0.7" stroke-linecap="round" stroke-linejoin="round"/>
<path fill-rule="evenodd" clip-rule="evenodd" d="M9.33301 11.6667C9.33301 9.91657 9.35175 9.33337 11.6663 9.33337C13.9809 9.33337 13.9997 9.91657 13.9997 11.6667C13.9997 13.4168 14.0071 14 11.6663 14C9.32563 14 9.33301 13.4168 9.33301 11.6667Z" stroke="#8A8998" stroke-width="0.7" stroke-linecap="round" stroke-linejoin="round"/>
</svg>
