<svg width="48" height="48" viewBox="0 0 48 48" fill="none" xmlns="http://www.w3.org/2000/svg">
<rect x="0.5" y="0.5" width="47" height="47" rx="7.5" stroke="#E2E7EF"/>
<path d="M26.353 14.5C30.054 14.911 32.978 17.831 33.393 21.532" stroke="#92A6C3" stroke-linecap="round" stroke-linejoin="round"/>
<path d="M26.353 18.043C28.124 18.387 29.508 19.772 29.853 21.543" stroke="#92A6C3" stroke-linecap="round" stroke-linejoin="round"/>
<path fill-rule="evenodd" clip-rule="evenodd" d="M23.0315 24.4724C27.0205 28.4604 27.9254 23.8467 30.4652 26.3848C32.9138 28.8328 34.3222 29.3232 31.2188 32.4247C30.8302 32.737 28.3613 36.4943 19.6845 27.8197C11.0066 19.144 14.7616 16.6724 15.0739 16.2839C18.1838 13.1738 18.6668 14.5894 21.1154 17.0373C23.6541 19.5765 19.0425 20.4844 23.0315 24.4724Z" stroke="#92A6C3" stroke-linecap="round" stroke-linejoin="round"/>
</svg>
