<svg width="20" height="21" viewBox="0 0 20 21" fill="none" xmlns="http://www.w3.org/2000/svg">
<g id="Category">
<g id="Iconly/Light/Category">
<g id="Category_2">
<path id="Stroke-1" fill-rule="evenodd" clip-rule="evenodd" d="M2.5 5.91667C2.5 3.72899 2.52342 3 5.41667 3C8.30991 3 8.33333 3.72899 8.33333 5.91667C8.33333 8.10434 8.34256 8.83333 5.41667 8.83333C2.49077 8.83333 2.5 8.10434 2.5 5.91667Z" stroke="#8A8998" stroke-width="1.2" stroke-linecap="round" stroke-linejoin="round"/>
<path id="Stroke-3" fill-rule="evenodd" clip-rule="evenodd" d="M11.666 5.91667C11.666 3.72899 11.6894 3 14.5827 3C17.4759 3 17.4993 3.72899 17.4993 5.91667C17.4993 8.10434 17.5086 8.83333 14.5827 8.83333C11.6568 8.83333 11.666 8.10434 11.666 5.91667Z" stroke="#8A8998" stroke-width="1.2" stroke-linecap="round" stroke-linejoin="round"/>
<path id="Stroke-5" fill-rule="evenodd" clip-rule="evenodd" d="M2.5 15.0834C2.5 12.8957 2.52342 12.1667 5.41667 12.1667C8.30991 12.1667 8.33333 12.8957 8.33333 15.0834C8.33333 17.2711 8.34256 18.0001 5.41667 18.0001C2.49077 18.0001 2.5 17.2711 2.5 15.0834Z" stroke="#8A8998" stroke-width="1.2" stroke-linecap="round" stroke-linejoin="round"/>
<path id="Stroke-7" fill-rule="evenodd" clip-rule="evenodd" d="M11.666 15.0834C11.666 12.8957 11.6894 12.1667 14.5827 12.1667C17.4759 12.1667 17.4993 12.8957 17.4993 15.0834C17.4993 17.2711 17.5086 18.0001 14.5827 18.0001C11.6568 18.0001 11.666 17.2711 11.666 15.0834Z" stroke="#8A8998" stroke-width="1.2" stroke-linecap="round" stroke-linejoin="round"/>
</g>
</g>
</g>
</svg>
