<svg width="24" height="24" viewBox="0 0 24 24" fill="none" xmlns="http://www.w3.org/2000/svg">
<path d="M4.26172 11.0199V15.9899C4.26172 17.8099 4.26172 17.8099 5.98172 18.9699L10.7117 21.6999C11.4217 22.1099 12.5817 22.1099 13.2917 21.6999L18.0217 18.9699C19.7417 17.8099 19.7417 17.8099 19.7417 15.9899V11.0199C19.7417 9.19994 19.7417 9.19994 18.0217 8.03994L13.2917 5.30994C12.5817 4.89994 11.4217 4.89994 10.7117 5.30994L5.98172 8.03994C4.26172 9.19994 4.26172 9.19994 4.26172 11.0199Z" stroke="black" stroke-width="1.2" stroke-linecap="round" stroke-linejoin="round"/>
<path d="M17.5 7.63V5C17.5 3 16.5 2 14.5 2H9.5C7.5 2 6.5 3 6.5 5V7.56" stroke="black" stroke-width="1.2" stroke-linecap="round" stroke-linejoin="round"/>
<path d="M12.6317 10.99L13.2017 11.88C13.2917 12.02 13.4917 12.16 13.6417 12.2L14.6617 12.46C15.2917 12.62 15.4617 13.16 15.0517 13.66L14.3817 14.47C14.2817 14.6 14.2017 14.83 14.2117 14.99L14.2717 16.04C14.3117 16.69 13.8517 17.02 13.2517 16.78L12.2717 16.39C12.1217 16.33 11.8717 16.33 11.7217 16.39L10.7417 16.78C10.1417 17.02 9.68173 16.68 9.72173 16.04L9.78173 14.99C9.79173 14.83 9.71173 14.59 9.61173 14.47L8.94173 13.66C8.53173 13.16 8.70173 12.62 9.33173 12.46L10.3517 12.2C10.5117 12.16 10.7117 12.01 10.7917 11.88L11.3617 10.99C11.7217 10.45 12.2817 10.45 12.6317 10.99Z" stroke="black" stroke-width="1.2" stroke-linecap="round" stroke-linejoin="round"/>
</svg>
