<svg width="56" height="56" viewBox="0 0 56 56" fill="none" xmlns="http://www.w3.org/2000/svg">
<rect x="0.5" y="0.5" width="55" height="55" rx="27.5" stroke="#E2E7EF"/>
<g clip-path="url(#clip0_48_1734)">
<path d="M28 16C21.3726 16 16 21.3726 16 28C16 33.6275 19.8746 38.3498 25.1013 39.6467V31.6672H22.6269V28H25.1013V26.4198C25.1013 22.3355 26.9498 20.4424 30.9597 20.4424C31.72 20.4424 33.0318 20.5917 33.5685 20.7405V24.0645C33.2853 24.0347 32.7933 24.0198 32.1822 24.0198C30.2147 24.0198 29.4544 24.7653 29.4544 26.703V28H33.3741L32.7006 31.6672H29.4544V39.9122C35.3963 39.1946 40.0005 34.1354 40.0005 28C40 21.3726 34.6274 16 28 16Z" fill="#B3C1D5"/>
</g>
<defs>
<clipPath id="clip0_48_1734">
<rect width="24" height="24" fill="white" transform="translate(16 16)"/>
</clipPath>
</defs>
</svg>
