<svg width="56" height="56" viewBox="0 0 56 56" fill="none" xmlns="http://www.w3.org/2000/svg">
<rect x="0.5" y="0.5" width="55" height="55" rx="27.5" stroke="#E2E7EF"/>
<g clip-path="url(#clip0_48_1726)">
<path d="M28 18.1609C31.2062 18.1609 31.5859 18.175 32.8469 18.2312C34.0187 18.2828 34.6516 18.4797 35.0734 18.6438C35.6312 18.8594 36.0344 19.1219 36.4516 19.5391C36.8734 19.9609 37.1312 20.3594 37.3469 20.9172C37.5109 21.3391 37.7078 21.9766 37.7594 23.1437C37.8156 24.4094 37.8297 24.7891 37.8297 27.9906C37.8297 31.1969 37.8156 31.5766 37.7594 32.8375C37.7078 34.0094 37.5109 34.6422 37.3469 35.0641C37.1312 35.6219 36.8687 36.025 36.4516 36.4422C36.0297 36.8641 35.6312 37.1219 35.0734 37.3375C34.6516 37.5016 34.0141 37.6984 32.8469 37.75C31.5812 37.8062 31.2016 37.8203 28 37.8203C24.7937 37.8203 24.4141 37.8062 23.1531 37.75C21.9812 37.6984 21.3484 37.5016 20.9266 37.3375C20.3687 37.1219 19.9656 36.8594 19.5484 36.4422C19.1266 36.0203 18.8687 35.6219 18.6531 35.0641C18.4891 34.6422 18.2922 34.0047 18.2406 32.8375C18.1844 31.5719 18.1703 31.1922 18.1703 27.9906C18.1703 24.7844 18.1844 24.4047 18.2406 23.1437C18.2922 21.9719 18.4891 21.3391 18.6531 20.9172C18.8687 20.3594 19.1312 19.9562 19.5484 19.5391C19.9703 19.1172 20.3687 18.8594 20.9266 18.6438C21.3484 18.4797 21.9859 18.2828 23.1531 18.2312C24.4141 18.175 24.7937 18.1609 28 18.1609ZM28 16C24.7422 16 24.3344 16.0141 23.0547 16.0703C21.7797 16.1266 20.9031 16.3328 20.1437 16.6281C19.3516 16.9375 18.6812 17.3453 18.0156 18.0156C17.3453 18.6813 16.9375 19.3516 16.6281 20.1391C16.3328 20.9031 16.1266 21.775 16.0703 23.05C16.0141 24.3344 16 24.7422 16 28C16 31.2578 16.0141 31.6656 16.0703 32.9453C16.1266 34.2203 16.3328 35.0969 16.6281 35.8563C16.9375 36.6484 17.3453 37.3188 18.0156 37.9844C18.6812 38.65 19.3516 39.0625 20.1391 39.3672C20.9031 39.6625 21.775 39.8687 23.05 39.925C24.3297 39.9812 24.7375 39.9953 27.9953 39.9953C31.2531 39.9953 31.6609 39.9812 32.9406 39.925C34.2156 39.8687 35.0922 39.6625 35.8516 39.3672C36.6391 39.0625 37.3094 38.65 37.975 37.9844C38.6406 37.3188 39.0531 36.6484 39.3578 35.8609C39.6531 35.0969 39.8594 34.225 39.9156 32.95C39.9719 31.6703 39.9859 31.2625 39.9859 28.0047C39.9859 24.7469 39.9719 24.3391 39.9156 23.0594C39.8594 21.7844 39.6531 20.9078 39.3578 20.1484C39.0625 19.3516 38.6547 18.6813 37.9844 18.0156C37.3187 17.35 36.6484 16.9375 35.8609 16.6328C35.0969 16.3375 34.225 16.1313 32.95 16.075C31.6656 16.0141 31.2578 16 28 16Z" fill="#B3C1D5"/>
<path d="M28 21.8359C24.5969 21.8359 21.8359 24.5969 21.8359 28C21.8359 31.4031 24.5969 34.1641 28 34.1641C31.4031 34.1641 34.1641 31.4031 34.1641 28C34.1641 24.5969 31.4031 21.8359 28 21.8359ZM28 31.9984C25.7922 31.9984 24.0016 30.2078 24.0016 28C24.0016 25.7922 25.7922 24.0016 28 24.0016C30.2078 24.0016 31.9984 25.7922 31.9984 28C31.9984 30.2078 30.2078 31.9984 28 31.9984Z" fill="#B3C1D5"/>
<path d="M35.8469 21.5921C35.8469 22.389 35.2 23.0312 34.4078 23.0312C33.6109 23.0312 32.9688 22.3843 32.9688 21.5921C32.9688 20.7953 33.6156 20.1531 34.4078 20.1531C35.2 20.1531 35.8469 20.8 35.8469 21.5921Z" fill="#B3C1D5"/>
</g>
<defs>
<clipPath id="clip0_48_1726">
<rect width="24" height="24" fill="white" transform="translate(16 16)"/>
</clipPath>
</defs>
</svg>
