<svg width="56" height="56" viewBox="0 0 56 56" fill="none" xmlns="http://www.w3.org/2000/svg">
<rect x="0.5" y="0.5" width="55" height="55" rx="27.5" stroke="#E2E7EF"/>
<g clip-path="url(#clip0_48_1723)">
<path d="M38.2234 16H17.7719C16.7922 16 16 16.7734 16 17.7297V38.2656C16 39.2219 16.7922 40 17.7719 40H38.2234C39.2031 40 40 39.2219 40 38.2703V17.7297C40 16.7734 39.2031 16 38.2234 16ZM23.1203 36.4516H19.5578V24.9953H23.1203V36.4516ZM21.3391 23.4344C20.1953 23.4344 19.2719 22.5109 19.2719 21.3719C19.2719 20.2328 20.1953 19.3094 21.3391 19.3094C22.4781 19.3094 23.4016 20.2328 23.4016 21.3719C23.4016 22.5062 22.4781 23.4344 21.3391 23.4344ZM36.4516 36.4516H32.8937V30.8828C32.8937 29.5562 32.8703 27.8453 31.0422 27.8453C29.1906 27.8453 28.9094 29.2937 28.9094 30.7891V36.4516H25.3563V24.9953H28.7687V26.5609H28.8156C29.2891 25.6609 30.4516 24.7094 32.1813 24.7094C35.7859 24.7094 36.4516 27.0813 36.4516 30.1656V36.4516Z" fill="#B3C1D5"/>
</g>
<defs>
<clipPath id="clip0_48_1723">
<rect width="24" height="24" fill="white" transform="translate(16 16)"/>
</clipPath>
</defs>
</svg>
