<svg width="60" height="60" viewBox="0 0 60 60" fill="none" xmlns="http://www.w3.org/2000/svg">
<g clip-path="url(#clip0_1344_143)">
<path d="M27.0957 59.4088C22.0165 58.8781 16.6494 56.7903 12.5944 53.7679C1.33019 45.3721 -2.52496 30.4473 3.28259 17.7184C9.46649 4.16459 25.0021 -2.71201 39.076 1.87484C48.1555 4.83404 54.9354 11.4825 58.0609 20.4919C61.5252 30.4776 59.2689 41.6448 52.1743 49.627C47.3815 55.0194 40.7559 58.4793 33.54 59.3577C32.0439 59.5399 28.6101 59.5671 27.0957 59.4088ZM34.3758 57.9916C46.7539 56.1624 56.5713 46.1199 58.2052 33.6154C58.4569 31.6896 58.4169 27.7464 58.1263 25.8259C56.2384 13.3506 46.3588 3.63944 33.8101 1.92389C31.7524 1.64264 27.9256 1.68134 25.8742 2.00429C13.3983 3.96824 3.75839 13.788 2.05244 26.2705C1.78004 28.2631 1.82129 32.3202 2.13374 34.3069C3.60419 43.6513 9.71834 51.7797 18.2131 55.6834C23.3469 58.0425 28.7803 58.8184 34.3758 57.9916ZM27.5691 57.2109C27.2571 57.1822 26.7945 57.1264 26.5408 57.0871L26.0799 57.0156L26.0614 55.1982L26.043 53.3808L25.1554 53.1639C24.6673 53.0445 23.8435 52.8285 23.3251 52.684L22.3822 52.4211L21.5145 53.9733C21.0373 54.8271 20.5578 55.5265 20.4487 55.5276C19.755 55.5346 13.0189 51.6837 13.1835 51.3741C13.348 51.0645 14.4648 49.0722 14.6776 48.7084L14.9323 48.2728L13.543 46.9224L12.1537 45.5719L11.3794 46.0395C10.9536 46.2967 10.2472 46.7151 9.80984 46.9697L9.01454 47.4324L7.78754 45.6369C6.62444 43.9348 4.80899 40.624 4.80449 40.1974C4.80344 40.0887 5.49299 39.5951 6.33689 39.1005L7.87124 38.2014L7.58924 37.264C7.43414 36.7485 7.20164 35.9293 7.07234 35.4438L6.83744 34.5609L5.02004 34.5793L3.20264 34.5978L3.08459 34.0678C2.93099 33.3787 2.86844 27.183 3.00779 26.4907L3.11504 25.9585L4.93379 25.9401L6.75254 25.9216L7.06019 24.6084C7.22939 23.8861 7.44569 23.0629 7.54094 22.7793L7.71404 22.2634L6.15989 21.3943C5.30489 20.9164 4.60439 20.4363 4.60334 20.3274C4.59914 19.9008 6.34709 16.554 7.47554 14.8287L8.66594 13.0087L9.47039 13.4553C9.91289 13.7008 10.6275 14.1049 11.0584 14.3535L11.842 14.8053L13.2036 13.4269L14.5651 12.0486L14.3017 11.6184C14.0821 11.2588 12.9253 9.28949 12.7543 8.98334C12.5835 8.67719 19.2403 4.69064 19.9339 4.68344C20.0427 4.68239 20.5365 5.37194 21.0309 6.21584L21.93 7.75019L22.8673 7.46819C23.3829 7.31309 24.202 7.08059 24.6876 6.95129L25.5705 6.71639L25.552 4.89899L25.5334 3.08159L26.0634 2.96354C26.7525 2.80994 32.9482 2.74739 33.6405 2.88674L34.1727 2.99399L34.191 4.80374L34.2093 6.61349L36.0457 7.09019L37.8822 7.56689L38.7439 6.02534C39.2178 5.17754 39.6946 4.48304 39.8035 4.48199C40.4973 4.47494 47.2333 8.32589 47.0688 8.63549C46.9042 8.94509 45.7875 10.9374 45.5748 11.3011L45.3201 11.7367L46.7094 13.0872L48.0987 14.4376L48.873 13.9702C49.2988 13.713 50.0052 13.2946 50.4426 13.0401L51.2379 12.5773L52.4649 14.3728C53.628 16.0749 55.4434 19.3857 55.4479 19.8123C55.449 19.921 54.7642 20.4118 53.9263 20.9029L52.4026 21.7956L52.9164 23.6221L53.4301 25.4487L55.2399 25.4304L57.0496 25.4121L57.1677 25.942C57.2326 26.2335 57.3004 27.9378 57.3186 29.7294C57.3367 31.5208 57.3033 33.2263 57.2443 33.519L57.1371 34.0512L55.3273 34.0695L53.5176 34.0878L53.0409 35.9242L52.5642 37.7607L54.1057 38.6224C54.9535 39.0963 55.648 39.5731 55.6491 39.682C55.6533 40.1086 53.9053 43.4554 52.7769 45.1807L51.5865 47.0007L50.7822 46.5541C50.3397 46.3084 49.6251 45.9045 49.1941 45.6559L48.4105 45.2041L47.049 46.5825L45.6874 47.9608L45.9508 48.391C46.1709 48.7504 47.3277 50.7196 47.4987 51.0259C47.6695 51.3321 41.0127 55.3186 40.3191 55.3258C40.2103 55.3269 39.7195 54.6421 39.2284 53.8042L38.3356 52.2805L36.5089 52.794L34.6824 53.3078L34.7007 55.1074C34.7184 56.8515 34.7091 56.9101 34.4011 57.0047C34.0315 57.1185 28.407 57.2878 27.5691 57.2109ZM31.261 54.6177L32.0037 54.5208L31.986 52.7789L31.9683 51.0369L32.6403 50.9487C33.8901 50.7846 36.9787 49.9525 38.1747 49.4577C38.8287 49.1871 39.3964 48.9977 39.4363 49.0366C39.4762 49.0756 39.904 49.7696 40.3873 50.5786L41.2659 52.0497L42.4578 51.3364C43.1133 50.9442 43.7385 50.5654 43.8471 50.4945C44.0053 50.3913 43.8666 50.063 43.1454 48.8349L42.2463 47.304L42.7111 46.945C44.3158 45.706 46.0987 43.8861 47.3184 42.2424L47.6679 41.7712L49.2067 42.6336C50.053 43.1079 50.7625 43.4727 50.7832 43.4442C51.0475 43.0812 51.4804 42.3613 51.8905 41.6028L52.3954 40.6689L50.8315 39.7978C49.9714 39.3187 49.2675 38.9061 49.2672 38.8807C49.2669 38.8554 49.4505 38.3904 49.675 37.8474C50.1429 36.7162 51.0498 33.1863 51.0459 32.5116C51.0394 31.4058 51.0121 31.4218 52.9419 31.4022L54.6762 31.3846L54.7626 30.5796C54.81 30.1368 54.8031 29.4039 54.7473 28.9509L54.6457 28.1271L52.9102 28.1446C50.9791 28.1643 51.0069 28.1797 50.9908 27.0739C50.9812 26.3994 50.0028 22.8886 49.5121 21.7672C49.2765 21.2289 49.0837 20.7678 49.0834 20.7423C49.0831 20.7168 49.7785 20.29 50.6289 19.7937L52.1748 18.8913L51.6511 17.9677C51.226 17.2177 50.7784 16.5066 50.5068 16.1493C50.4853 16.1212 49.7889 16.4971 48.9589 16.9846C48.129 17.4721 47.4076 17.8212 47.3562 17.7604C47.3046 17.6997 46.8384 17.1442 46.3201 16.5264C45.2274 15.2235 43.9047 13.9591 42.7384 13.1028C42.2871 12.7714 41.9178 12.4824 41.9175 12.4605C41.9172 12.4386 42.3024 11.7333 42.7731 10.8931C43.4599 9.66749 43.5895 9.34094 43.4292 9.24089C43.3192 9.17234 42.6864 8.80634 42.0231 8.42729L40.8169 7.73834L39.9684 9.22679C39.5017 10.0455 39.0822 10.7536 39.0361 10.8006C38.9901 10.8475 38.5063 10.6954 37.9612 10.4626C36.9547 10.033 33.4441 9.14699 32.2155 9.01274L31.542 8.93909L31.5243 7.19699L31.5066 5.45489L30.7015 5.36849C30.2587 5.32109 29.5258 5.32799 29.0728 5.38379L28.249 5.48534L28.2667 7.23089L28.2844 8.97644L27.8248 9.05219C27.5721 9.09389 27.0525 9.17114 26.67 9.22424C25.8396 9.33929 22.5786 10.2981 21.5475 10.7302L20.8158 11.037L19.8994 9.49919L18.9831 7.96139L17.7931 8.67344C17.1387 9.06509 16.5142 9.44339 16.4056 9.51419C16.2471 9.61739 16.3846 9.94319 17.1003 11.1618C17.5909 11.9971 17.9427 12.7216 17.8819 12.7717C15.6565 14.602 14.8822 15.3525 13.6663 16.857C13.1586 17.4853 12.702 18.0499 12.6514 18.1119C12.6012 18.1737 11.8729 17.8393 11.0332 17.3686C10.1935 16.8981 9.48959 16.5364 9.46889 16.5649C9.20459 16.9279 8.77154 17.6478 8.36159 18.4063L7.85669 19.3402L9.42059 20.2113C10.2807 20.6904 10.9845 21.0967 10.9846 21.1144C10.9848 21.1321 10.7694 21.6876 10.5057 22.3488C10.0393 23.5183 9.29249 26.5567 9.13709 27.9154L9.05999 28.5889L7.31684 28.6065L5.57354 28.6242L5.48849 29.4498C5.44184 29.904 5.44979 30.6367 5.50619 31.0785L5.60879 31.8816L7.35314 31.8639L9.09749 31.8462L9.16844 32.3058C9.52139 34.5924 10.1845 37.0614 10.8235 38.4675C11.013 38.8845 11.1684 39.2452 11.1685 39.2691C11.1688 39.2929 10.4733 39.7185 9.62309 40.215L8.07719 41.1175L8.60084 42.0411C9.02594 42.7911 9.47354 43.5022 9.74519 43.8597C9.76664 43.8877 10.4631 43.5118 11.293 43.0243C12.123 42.5368 12.8443 42.1878 12.8958 42.2486C12.9472 42.3093 13.4136 42.8647 13.9318 43.4826C15.0246 44.7855 16.3473 46.0498 17.5135 46.9062C17.9649 47.2375 18.3342 47.5266 18.3345 47.5485C18.3348 47.5704 17.9496 48.2757 17.4789 49.1158C16.792 50.3415 16.6624 50.668 16.8228 50.7681C16.9327 50.8366 17.5647 51.2022 18.2269 51.5806L19.4311 52.2685L20.3161 50.7126L21.2011 49.1566L21.939 49.447C23.5072 50.0643 26.3463 50.7817 28.0365 50.9877L28.7101 51.0699L28.7278 52.8229L28.7455 54.576L29.2771 54.6261C30.2371 54.717 30.5092 54.7158 31.261 54.6177Z" fill="black"/>
<path d="M33.7549 30.4276C33.7549 29.0471 33.761 27.6666 33.7504 26.2862C33.7478 25.9601 33.7561 25.6301 33.8176 25.3189C33.9257 24.7711 34.0297 24.2265 34.2674 23.6979C34.5451 23.0808 34.919 22.5665 35.3942 22.11C35.6663 21.8487 35.9555 21.6084 36.3068 21.4473C36.6298 21.2993 36.9275 21.1115 37.2758 20.9999C37.639 20.8835 38.0062 20.8712 38.3698 20.8311C38.9231 20.7704 39.4763 20.8439 40.0214 20.9684C40.1677 21.0018 40.2775 21.0698 40.3036 21.2075C40.3277 21.335 40.2778 21.453 40.1773 21.5592C39.958 21.7907 39.7777 22.0298 39.6893 22.3677C39.6158 22.6491 39.6173 22.9162 39.6164 23.1878C39.6092 25.5806 39.6088 27.9734 39.6178 30.3661C39.6187 30.6011 39.5257 30.7148 39.3319 30.8149C38.8643 31.0564 38.3405 31.1726 37.9003 31.4754C37.6975 31.615 37.5169 31.7874 37.2877 31.8899C37.1942 31.9318 37.1032 31.9535 37.0007 31.9528C36.8771 31.9519 36.8095 31.9096 36.8177 31.7773C36.8209 31.7273 36.8168 31.6769 36.818 31.6266C36.8543 30.1901 36.7409 28.7553 36.7657 27.3186C36.7712 26.9912 36.5354 26.6945 36.2357 26.6168C35.9195 26.5349 35.5957 26.7891 35.5957 27.1215C35.5952 29.0541 35.5886 30.9869 35.6026 32.9194C35.6048 33.2209 35.4988 33.4436 35.3011 33.6362C34.8602 34.0653 34.4953 34.5515 34.1953 35.0858C34.1576 35.1527 34.1002 35.1925 34.057 35.2478C34.0166 35.2996 33.9299 35.3444 33.8543 35.3055C33.7871 35.271 33.7556 35.2001 33.7556 35.1206C33.7556 35.0202 33.755 34.9198 33.755 34.8194C33.7549 33.3557 33.7549 31.8917 33.7549 30.4276Z" fill="black"/>
<path d="M26.7581 31.1514C26.7581 32.6876 26.7586 33.9426 26.7572 35.1978C26.7571 35.2908 26.795 35.4045 26.6576 35.4435C26.5112 35.4851 26.4251 35.354 26.3938 35.2794C26.1905 34.796 25.8154 34.4349 25.522 34.0169C25.4381 33.8973 25.292 33.8217 25.1749 33.7254C24.9788 33.5643 24.9256 33.348 24.9157 33.1044C24.8374 31.1582 24.8762 29.2112 24.8672 27.2645C24.8662 27.0422 24.5471 26.6828 24.3491 26.6798C24.0247 26.6747 23.7874 26.9 23.7416 27.2058C23.606 28.113 23.7925 29.0171 23.7509 29.9238C23.7218 30.5585 23.7385 31.1955 23.7502 31.8314C23.753 31.9865 23.6987 32.1201 23.5943 32.1855C23.4812 32.2565 23.3332 32.1911 23.225 32.1047C22.76 31.7327 22.2145 31.5054 21.6859 31.2492C21.5336 31.1754 21.3602 31.1447 21.1957 31.0973C21.0014 31.0415 20.9444 30.9234 20.9452 30.7164C20.9542 28.5074 20.9623 26.2982 20.9411 24.0893C20.9368 23.6354 20.8868 23.1734 20.8289 22.7241C20.779 22.3365 20.5942 21.9494 20.2514 21.6833C20.0576 21.5327 20.1325 21.1998 20.3894 21.1322C20.8832 21.0024 21.3947 20.9787 21.8978 21.0362C22.2877 21.0807 22.6789 21.137 23.0668 21.2151C23.6089 21.3243 24.1139 21.5012 24.5369 21.8601C24.7028 22.0008 24.9092 22.0842 25.0555 22.2437C25.4554 22.6799 25.8772 23.1107 26.1185 23.6546C26.2553 23.963 26.3962 24.2769 26.4694 24.6221C26.5964 25.2215 26.6153 25.824 26.669 26.4288C26.8174 28.0964 26.7203 29.765 26.7581 31.1514Z" fill="black"/>
<path d="M23.1082 39.9342C22.8879 39.9154 22.6237 39.9561 22.3578 39.8917C22.183 39.8494 22.0569 39.7588 21.9856 39.6192C21.6513 38.9628 21.2334 38.3598 20.7363 37.8252C20.2909 37.3461 19.7938 36.9148 19.2789 36.5025C18.9399 36.231 18.5634 36.0168 18.2005 35.8084C17.805 35.5813 17.3643 35.3971 16.917 35.2407C16.4139 35.0647 15.8998 34.9717 15.3895 34.8913C14.869 34.8093 14.3257 34.8244 13.7946 34.8981C13.6593 34.9168 13.5027 34.9498 13.4353 34.8181C13.3732 34.6966 13.4308 34.5667 13.5333 34.4457C14.0521 33.8323 14.6919 33.3757 15.3436 32.914C16.0774 32.3943 16.9036 32.1358 17.7376 31.9042C18.7068 31.635 19.6776 31.7397 20.6292 32.0812C21.2325 32.2978 21.8001 32.584 22.372 32.8653C22.6995 33.0264 22.9563 33.2857 23.2438 33.5002C23.3844 33.6051 23.5356 33.6973 23.6754 33.8046C24.2448 34.2418 24.681 34.8067 25.1146 35.3581C25.5754 35.944 25.9707 36.5931 26.3122 37.257C26.5183 37.6578 26.7442 38.0608 26.8734 38.508C26.9376 38.73 27.0108 38.9622 27.1332 39.1755C27.346 39.5467 27.1246 39.8838 26.6958 39.8842C26.4198 39.8845 26.1436 39.8857 25.8676 39.8839C25.5628 39.8818 25.4697 39.7624 25.3608 39.4786C25.1727 38.9886 25.0398 38.4738 24.7341 38.031C24.48 37.6629 24.2913 37.2507 24.0445 36.8814C23.8902 36.6502 23.6677 36.4539 23.5005 36.2182C23.1247 35.6889 22.6225 35.2758 22.14 34.8562C21.639 34.4206 21.0648 34.0702 20.4177 33.8725C20.1532 33.7917 19.807 33.9441 19.7085 34.1049C19.5483 34.3663 19.5921 34.6266 20.0275 34.8384C20.5287 35.082 20.9524 35.4297 21.3993 35.7441C21.8845 36.0856 22.2687 36.5431 22.6378 37.0063C22.8268 37.2435 23.0211 37.4808 23.1756 37.7403C23.463 38.2231 23.7996 38.6793 23.9641 39.2331C24.0004 39.355 24.031 39.4719 24.0489 39.5976C24.0847 39.8515 23.9224 39.9154 23.7291 39.9307C23.5378 39.946 23.3445 39.9342 23.1082 39.9342Z" fill="black"/>
<path d="M41.8356 31.5105C42.4481 31.5882 43.2036 31.6593 43.9319 31.9318C44.5433 32.1606 45.1254 32.4535 45.6461 32.8237C46.1612 33.19 46.6929 33.5616 47.0943 34.0729C47.1815 34.1839 47.1471 34.2961 47.1321 34.3999C47.1174 34.5012 47.0042 34.5127 46.9106 34.5111C46.7702 34.5085 46.6329 34.5127 46.4922 34.4683C46.0496 34.3285 45.6024 34.4611 45.1599 34.4853C44.4672 34.5232 43.8269 34.8048 43.1768 35.0196C42.849 35.1279 42.548 35.3212 42.242 35.4892C41.7054 35.7837 41.3024 36.2586 40.7793 36.5772C40.482 36.7582 40.2966 37.0749 40.061 37.3299C39.5957 37.8337 39.2415 38.4163 38.8991 39.0091C38.7465 39.2731 38.6189 39.5767 38.3031 39.7207C38.1738 39.7797 38.048 39.7837 37.9157 39.7837C37.6145 39.7839 37.3131 39.7857 37.0119 39.7833C36.6483 39.7804 36.5691 39.6114 36.693 39.2679C36.8472 38.8404 37.0689 38.4571 37.2882 38.0626C37.6196 37.4664 38.0147 36.9271 38.4405 36.3999C38.7807 35.9788 39.198 35.6385 39.5657 35.247C39.7317 35.0701 39.9852 34.9786 40.1811 34.8256C40.3788 34.6713 40.6082 34.5573 40.7631 34.3444C40.9047 34.15 40.8728 33.9207 40.805 33.7575C40.7315 33.5808 40.481 33.5775 40.2906 33.6136C39.8868 33.6903 39.536 33.8854 39.2033 34.1239C38.8908 34.348 38.5565 34.5346 38.2685 34.8007C37.7927 35.2399 37.3745 35.7181 36.9918 36.2416C36.6326 36.733 36.3309 37.2538 36.0425 37.7839C35.8691 38.1027 35.7254 38.4387 35.585 38.7759C35.4641 39.066 35.3898 39.3847 35.1858 39.6355C35.1011 39.7398 34.9764 39.7864 34.8354 39.7848C34.5342 39.7813 34.2329 39.7846 33.9317 39.7836C33.5322 39.7824 33.3306 39.4903 33.5286 39.1393C33.6183 38.9803 33.6387 38.806 33.6825 38.6521C33.7458 38.43 33.8696 38.2393 33.9372 38.0212C34.0532 37.648 34.239 37.2952 34.4108 36.9412C34.4913 36.775 34.6221 36.6333 34.7045 36.4677C34.9328 36.0088 35.2014 35.5734 35.5148 35.172C35.9624 34.599 36.3908 34.0119 36.9786 33.5541C37.3017 33.3024 37.5798 32.9661 37.9353 32.7724C38.3429 32.5504 38.678 32.194 39.1664 32.1079C39.396 32.0674 39.5963 31.9143 39.8241 31.8355C40.4306 31.6255 41.0486 31.5169 41.8356 31.5105Z" fill="black"/>
<path d="M36.8215 47.3157C35.4916 47.3157 34.1618 47.316 32.8319 47.3156C32.4727 47.3154 32.3995 47.2404 32.3995 46.8776C32.3993 46.0496 32.3993 45.2216 32.3995 44.3936C32.3995 44.0495 32.4776 43.9694 32.8204 43.9692C34.5935 43.9686 36.3667 43.9698 38.1397 43.967C38.2535 43.9668 38.4086 44.0283 38.4527 43.8521C38.4926 43.6926 38.3948 43.6059 38.282 43.4922C37.903 43.11 37.4462 42.9215 36.9307 42.8261C36.8311 42.8076 36.7343 42.7982 36.6364 42.798C35.3651 42.7961 34.0937 42.7971 32.8225 42.7964C32.4773 42.7962 32.3996 42.7173 32.3995 42.3741C32.3993 41.981 32.4067 41.5877 32.3962 41.195C32.3915 41.0175 32.4701 40.9563 32.6302 40.9563C34.0436 40.9565 35.4586 40.9179 36.8701 40.9706C37.7495 41.0034 38.5456 41.3468 39.2359 41.9286C39.434 42.0957 39.6638 42.2388 39.8593 42.414C40.0808 42.6126 40.2712 42.8372 40.4332 43.098C40.571 43.3199 40.7704 43.506 40.8583 43.7634C40.9732 44.0999 41.138 44.4135 41.2445 44.7588C41.3563 45.1212 41.3635 45.4833 41.4451 45.8345C41.5082 46.1061 41.5106 46.3653 41.5169 46.6298C41.5297 47.1554 41.3561 47.3153 40.811 47.3156C40.0415 47.316 39.272 47.3157 38.5027 47.3157C37.9421 47.3157 37.3817 47.3157 36.8215 47.3157Z" fill="black"/>
<path d="M23.8549 47.416C22.4999 47.416 21.145 47.4163 19.79 47.4158C19.3547 47.4157 19.2541 47.3053 19.2409 46.877C19.2281 46.4579 19.3246 46.0477 19.3694 45.638C19.4222 45.1559 19.6342 44.6884 19.81 44.2208C20.0662 43.5392 20.5022 43.0226 20.9749 42.5198C21.367 42.1028 21.887 41.8526 22.4017 41.6183C22.6967 41.4839 22.9717 41.2931 23.3074 41.2517C23.6498 41.2096 23.9894 41.14 24.3326 41.1095C25.5656 41 26.8021 41.0777 28.0369 41.0575C28.3582 41.0522 28.3645 41.0639 28.3648 41.3734C28.3652 41.7581 28.3655 42.1429 28.3646 42.5276C28.364 42.8059 28.2679 42.896 27.9638 42.8963C26.9099 42.8975 25.8553 42.8719 24.8026 42.9062C24.1837 42.9265 23.5397 42.8975 22.9783 43.2536C22.7302 43.4111 22.5187 43.6021 22.3841 43.8716C22.2923 44.0555 22.3642 44.1176 22.5421 44.1187C22.7428 44.1199 22.9435 44.1191 23.1443 44.1191C24.7669 44.1191 26.3896 44.119 28.0121 44.1193C28.3963 44.1193 28.4653 44.1872 28.4653 44.5618C28.4654 45.3479 28.4656 46.1342 28.4651 46.9204C28.465 47.2801 28.3334 47.4146 27.9698 47.4151C26.5982 47.417 25.2265 47.416 23.8549 47.416Z" fill="black"/>
<path d="M30.893 31.2977C30.893 28.6373 30.8822 25.9769 30.9026 23.3166C30.9065 22.8143 31.0127 22.3161 31.1621 21.8195C31.2719 21.4545 31.3976 21.0887 31.5077 20.7222C31.6044 20.4003 31.7502 20.0873 31.9142 19.7864C32.0828 19.4766 32.3268 19.2243 32.5254 18.9378C32.6174 18.8052 32.7947 18.7344 32.8986 18.6072C33.407 17.9853 34.0461 17.5247 34.7358 17.1377C34.8926 17.0498 35.0796 16.9235 35.2893 16.9589C35.3922 16.9763 35.5232 16.9611 35.4191 17.1714C35.1744 17.666 34.8894 18.1331 34.6011 18.6018C34.3584 18.9966 34.1669 19.4228 33.989 19.8525C33.7988 20.3121 33.5957 20.7647 33.4706 21.2516C33.4064 21.5015 33.3447 21.7553 33.2694 21.9987C33.1754 22.3029 33.1772 22.6325 33.0014 22.9211C32.9078 23.0745 32.9534 23.2944 32.9156 23.4837C32.868 23.7221 32.8224 23.9768 32.7698 24.2147C32.6796 24.6224 32.7575 25.043 32.6604 25.4291C32.5898 25.7105 32.5875 25.9776 32.5869 26.2497C32.5805 29.2029 32.5527 32.1566 32.5959 35.1092C32.6168 36.5369 32.6153 37.9644 32.6324 39.392C32.6364 39.7307 32.5314 39.8316 32.1848 39.8339C31.8501 39.836 31.5152 39.8249 31.181 39.8378C30.9683 39.846 30.9 39.7394 30.8937 39.555C30.8915 39.4881 30.8931 39.4212 30.8931 39.3543C30.893 36.6686 30.893 33.9831 30.893 31.2977Z" fill="black"/>
<path d="M27.9304 33.3611C27.9304 31.5369 27.9256 29.7128 27.9329 27.8886C27.9355 27.2547 27.9046 26.6195 27.8558 25.9917C27.8278 25.6293 27.8344 25.2567 27.7688 24.9002C27.6982 24.5159 27.619 24.135 27.5596 23.7476C27.5123 23.4393 27.4663 23.1131 27.3601 22.8243C27.2576 22.5456 27.1661 22.2584 27.1111 21.9771C27.0571 21.7011 26.9182 21.4629 26.8619 21.1895C26.8072 20.9232 26.7311 20.652 26.5876 20.4011C26.3885 20.0532 26.2357 19.6782 26.0759 19.3092C25.9973 19.1279 25.8581 18.9842 25.777 18.8129C25.5412 18.315 25.1924 17.8839 24.9596 17.3858C24.9439 17.3522 24.8992 17.3333 24.8732 17.303C24.8068 17.2256 24.7025 17.1563 24.8086 17.0354C24.9017 16.9293 25.0072 16.9319 25.1227 16.9922C25.7246 17.3067 26.3168 17.6316 26.8151 18.1082C27.2929 18.5651 27.7525 19.0337 28.0927 19.6058C28.3093 19.9701 28.5527 20.3264 28.7272 20.705C28.8251 20.9177 28.9813 21.1404 28.9778 21.4127C28.9763 21.5313 29.1058 21.6465 29.1478 21.762C29.273 22.1061 29.3651 22.4652 29.4827 22.8108C29.6251 23.2292 29.5631 23.6427 29.5646 24.0558C29.575 26.8338 29.5274 29.6127 29.5831 32.3897C29.63 34.7301 29.591 37.0698 29.6204 39.4097C29.6257 39.8235 29.5478 39.8526 29.2012 39.8367C28.9172 39.8237 28.6322 39.8373 28.3478 39.8331C28.0388 39.8285 27.9307 39.7172 27.9307 39.4109C27.9301 37.3943 27.9304 35.3777 27.9304 33.3611Z" fill="black"/>
<path d="M13.7431 35.7697C14.1596 35.8271 14.5604 35.8616 14.9605 35.9186C15.607 36.0107 16.2454 36.1273 16.8278 36.4247C17.4368 36.7358 18.0736 37.0112 18.5998 37.4578C18.8993 37.712 19.2101 37.9532 19.4932 38.2328C19.7683 38.5045 20.0132 38.8051 20.3024 39.064C20.5781 39.3107 20.7086 39.6692 20.9227 39.9658C21.0038 40.0783 21.0994 40.1878 21.1601 40.3346C21.2459 40.5421 21.1408 40.6427 21.058 40.745C20.7733 41.0965 20.413 41.3782 20.128 41.7334C19.972 41.9279 19.7527 41.8874 19.6561 41.6537C19.4012 41.038 18.9658 40.5538 18.5527 40.046C18.0899 39.4774 17.506 39.0752 16.9039 38.6827C16.286 38.2798 15.6335 37.9447 14.911 37.8037C14.2408 37.6729 13.5634 37.5277 12.8726 37.58C12.589 37.6016 12.3073 37.6711 12.0293 37.7381C11.866 37.7776 11.7386 37.7248 11.6492 37.6133C11.5769 37.5232 11.6077 37.4257 11.6867 37.3105C11.9008 36.9985 12.0064 36.6266 12.2051 36.2998C12.3557 36.0521 12.547 35.8696 12.8158 35.8457C13.1282 35.8178 13.4447 35.8114 13.7431 35.7697Z" fill="black"/>
<path d="M47.1219 35.3325C47.4135 35.3691 47.7111 35.275 48.0027 35.4247C48.2523 35.553 48.4602 35.7307 48.5295 35.977C48.6191 36.2958 48.8514 36.5095 48.9992 36.7818C49.0794 36.9295 49.0814 37.0818 49.0202 37.1979C48.9635 37.3053 48.8052 37.2841 48.6774 37.2567C48.0756 37.1274 47.4737 37.1032 46.8557 37.1611C46.1507 37.2273 45.4904 37.4059 44.847 37.6902C44.2163 37.9689 43.6488 38.3298 43.1186 38.7759C42.6009 39.2113 42.2319 39.7614 41.792 40.2564C41.5287 40.5526 41.3393 40.8874 41.1135 41.2024C40.9709 41.4015 40.7886 41.4432 40.5908 41.289C40.2962 41.0595 40.0074 40.8217 39.7274 40.575C39.4712 40.3492 39.4527 40.1182 39.6764 39.8565C39.9602 39.5244 40.1774 39.1471 40.4342 38.7976C40.6358 38.5231 40.8713 38.2723 41.0997 38.0176C41.352 37.7364 41.6643 37.5312 41.9144 37.2619C42.1899 36.9652 42.5469 36.798 42.8549 36.5565C43.1915 36.2925 43.5821 36.1041 43.974 35.9571C44.5611 35.7369 45.1511 35.506 45.7851 35.4298C46.2293 35.3763 46.6712 35.3044 47.1219 35.3325Z" fill="black"/>
<path d="M23.3557 14.2694C23.36 13.8795 23.4412 13.5684 23.5597 13.2635C23.5966 13.1684 23.6663 13.1275 23.7332 13.1809C23.7761 13.2151 23.9174 13.25 23.7857 13.4009C23.6675 13.5362 23.7446 13.7698 23.7502 13.9583C23.7554 14.1356 23.6885 14.3228 23.7944 14.4908C23.9711 14.771 24.3082 14.9076 24.6304 14.8361C25.067 14.7392 25.4675 14.5609 25.8206 14.2871C25.8863 14.2361 26.0212 14.1824 25.9549 14.0639C25.9127 13.9885 25.8194 14.0009 25.7191 14.0093C25.4881 14.0283 25.2335 13.9679 25.1129 13.7617C25.0019 13.5719 25.007 13.3005 25.0981 13.113C25.3498 12.5946 25.8082 12.2936 26.3482 12.1262C26.8544 11.9692 27.031 12.2407 27.1567 12.6056C27.2245 12.8024 27.5431 13.0193 27.7471 12.9798C27.916 12.9471 28.085 12.9136 28.2553 12.8896C28.3478 12.8765 28.4383 12.8665 28.4773 12.769C28.522 12.6574 28.4074 12.6158 28.3627 12.5452C28.3433 12.5146 28.2953 12.4988 28.2572 12.4841C27.9296 12.3573 27.9139 12.278 28.1638 12.0125C28.2989 11.869 28.4614 11.7737 28.6603 11.7864C28.9052 11.8022 29.1451 11.6781 29.3947 11.7801C29.5058 11.8256 29.581 11.8586 29.5727 11.999C29.5604 12.2066 29.5996 12.4169 29.4094 12.5824C29.3167 12.6629 29.3566 12.7597 29.4733 12.8123C29.695 12.9124 30.0278 12.8203 30.1985 12.6304C30.2809 12.5387 30.382 12.4697 30.5023 12.6209C30.661 12.8204 30.8639 12.9356 31.1413 12.8933C31.2724 12.8732 31.3723 12.8145 31.3862 12.7046C31.4051 12.5544 31.5221 12.5369 31.6088 12.5108C31.7123 12.4797 31.7306 12.6254 31.7612 12.6788C31.982 13.0646 32.0947 13.0875 32.4013 12.7838C32.7457 12.4425 33.1283 12.1722 33.6265 12.0923C33.9443 12.0413 34.6271 12.2716 34.7609 12.5519C34.8827 12.8072 34.8928 13.1098 34.7452 13.3582C34.6913 13.4488 34.6835 13.5481 34.6409 13.6354C34.396 14.1367 33.9479 14.0786 33.5554 14.0074C33.0106 13.9085 32.4556 13.8973 31.916 13.7744C31.7842 13.7444 31.6406 13.7449 31.5446 13.6244C31.4402 13.4933 31.3022 13.4824 31.1729 13.5604C30.8809 13.7362 30.6064 13.7011 30.3359 13.5227C30.1997 13.4329 30.0805 13.4435 29.9302 13.5164C29.5964 13.6783 29.2712 13.6636 28.9715 13.4066C28.8785 13.327 28.7884 13.3065 28.6316 13.4006C28.2422 13.6343 27.8116 13.8092 27.3326 13.7284C27.0727 13.6844 26.969 13.4684 26.8823 13.2617C26.831 13.1396 26.7877 13.0139 26.704 12.9139C26.5294 12.7051 26.3477 12.683 26.0443 12.8077C25.892 12.8702 25.7749 12.9814 25.6517 13.0832C25.6063 13.1207 25.5242 13.1512 25.5611 13.237C25.5896 13.3034 25.6604 13.3286 25.7212 13.3339C25.8541 13.3454 25.9888 13.3453 26.1223 13.339C26.6348 13.315 26.7349 13.7236 26.6381 14.0624C26.5922 14.2234 26.5597 14.4113 26.44 14.5564C26.2307 14.8102 25.9862 15.014 25.7042 15.1863C25.3673 15.3921 25.0177 15.5429 24.6331 15.64C24.1751 15.7556 23.7446 15.4895 23.5747 15.1271C23.4419 14.8433 23.3303 14.5382 23.3557 14.2694ZM33.952 13.2914C34.0303 13.2706 34.1329 13.3176 34.2257 13.2488C34.2665 13.2185 34.3334 13.1984 34.2824 13.1458C34.1795 13.0394 34.1324 12.8762 33.9694 12.8301C33.6055 12.7274 33.2519 12.746 32.9165 12.9297C32.8652 12.9578 32.7782 12.9656 32.7869 13.0595C32.7962 13.1593 32.8886 13.1735 32.9503 13.1817C33.2773 13.2253 33.6062 13.2551 33.952 13.2914Z" fill="black"/>
<path d="M30.2521 21.9572C30.0158 21.82 30.0673 21.5695 30.0002 21.383C29.7458 20.674 29.4673 19.9771 29.0825 19.3297C28.6814 18.6547 28.1131 18.1262 27.5303 17.6087C27.2963 17.401 27.0536 17.2111 26.8016 17.0285C26.617 16.8947 26.6381 16.7203 26.8381 16.5989C27.1627 16.402 27.4972 16.442 27.8329 16.5598C28.2319 16.6997 28.5377 16.9895 28.8553 17.246C29.2654 17.5774 29.6165 17.9785 30.0235 18.3179C30.1328 18.4091 30.2017 18.4106 30.2822 18.3235C30.3725 18.2258 30.4645 18.131 30.5368 18.014C30.7289 17.7032 31.0193 17.4782 31.2625 17.2145C31.5163 16.9393 31.7843 16.7176 32.1145 16.571C32.5072 16.3967 32.9234 16.3351 33.3439 16.4629C33.4379 16.4915 33.5735 16.5044 33.59 16.6651C33.6065 16.8251 33.5201 16.8775 33.4043 16.963C32.9977 17.2631 32.6185 17.5934 32.2502 17.9462C31.7983 18.3791 31.4851 18.8897 31.1435 19.3912C30.914 19.7282 30.7936 20.1103 30.6634 20.4937C30.566 20.7803 30.497 21.077 30.3992 21.3635C30.3392 21.5396 30.2771 21.7409 30.2521 21.9572Z" fill="black"/>
<path d="M40.7344 27.699C40.7344 27.0806 40.7422 26.462 40.7318 25.8437C40.7239 25.3637 40.8362 24.9156 41.0414 24.4877C41.2405 24.0726 41.9299 23.7338 42.3685 23.8389C42.536 23.8791 42.6145 24.0176 42.6215 24.1769C42.6337 24.4521 42.6566 24.7326 42.6197 25.0034C42.4039 26.5844 42.5804 28.1718 42.5276 29.7552C42.5089 30.3201 42.5279 30.341 41.9888 30.4278C41.6956 30.4751 41.3875 30.4598 41.089 30.4358C40.8497 30.4166 40.7362 30.2225 40.7351 29.9055C40.7327 29.1699 40.7344 28.4345 40.7344 27.699Z" fill="black"/>
<path d="M17.9381 28.0178C17.9381 27.407 17.9304 26.796 17.9405 26.1855C17.9487 25.6892 17.7995 25.2092 17.8278 24.7073C17.8514 24.2895 18.1433 24.219 18.3968 24.3018C18.9671 24.4881 19.3217 24.8808 19.5437 25.4529C19.7091 25.8794 19.7288 26.2979 19.7286 26.7335C19.7282 27.9299 19.7288 29.1264 19.7282 30.3228C19.728 30.6552 19.6356 30.7449 19.2969 30.7457C19.0208 30.7464 18.7448 30.7464 18.4686 30.7457C18.0971 30.7446 17.9385 30.5822 17.9382 30.2015C17.9376 29.4735 17.9381 28.7457 17.9381 28.0178Z" fill="black"/>
<path d="M37.2214 15.3357C37.1883 15.0891 37.3087 14.8843 37.4176 14.6719C37.6252 14.2668 37.8241 13.857 38.0215 13.4467C38.1585 13.1619 38.2815 12.8703 38.4214 12.5869C38.5045 12.4189 38.6838 12.3415 38.8158 12.2191C38.9053 12.136 39.0171 12.1857 39.084 12.2572C39.1561 12.3343 39.0586 12.3895 39.0246 12.4593C38.8548 12.807 38.698 13.1605 38.5119 13.5009C38.3188 13.8541 38.1507 14.221 37.9585 14.5749C37.7878 14.8891 37.9095 15.3264 38.2279 15.4854C38.3533 15.5481 38.4811 15.6063 38.6052 15.6714C38.6935 15.7177 38.7808 15.7798 38.8744 15.6942C38.9775 15.6 38.9488 15.4645 38.9074 15.3712C38.7903 15.1072 38.7807 14.8081 38.628 14.5573C38.6055 14.5203 38.625 14.4678 38.578 14.4267C38.4898 14.3496 38.3578 14.2641 38.4412 14.1276C38.5315 13.9795 38.6439 13.8315 38.8543 13.8415C38.9211 13.8447 38.9955 13.8253 39.0537 13.8483C39.3742 13.9747 39.7098 13.9174 40.0383 13.9464C40.617 13.9972 41.2003 13.9545 41.7766 14.0422C41.8375 14.0515 41.9149 14.0215 41.9223 14.1292C41.9281 14.214 41.8996 14.2587 41.8249 14.3052C41.533 14.4871 41.2315 14.4841 40.8967 14.4484C40.4419 14.3998 39.9786 14.4262 39.519 14.4307C39.3478 14.4324 39.3883 14.6041 39.4314 14.6479C39.5464 14.7646 39.4755 14.9025 39.5163 15.0181C39.6489 15.3927 39.5869 15.7797 39.6196 16.1602C39.6378 16.3713 40.2267 16.7224 40.4392 16.6726C40.6245 16.6293 40.719 16.6804 40.7206 16.8895C40.7224 17.1109 40.9429 17.2666 41.1586 17.2174C41.3368 17.1766 41.4321 17.2024 41.4264 17.4289C41.4181 17.7613 41.5729 17.8831 41.8993 17.8626C42.0009 17.8563 42.1194 17.8689 42.1182 18.0019C42.1164 18.2122 42.2553 18.3289 42.3777 18.4629C42.4911 18.5872 42.6546 18.651 42.7567 18.7927C42.7878 18.8359 42.8632 18.8808 42.9555 18.8313C43.044 18.7839 43.0441 18.7236 43.0441 18.6484C43.044 18.5313 43.0438 18.4143 43.0443 18.2971C43.0453 18.0552 43.2211 17.814 43.4455 17.7292C43.6215 17.6628 43.6966 17.7813 43.7217 17.9035C43.7514 18.048 43.7688 18.2176 43.7211 18.3511C43.5426 18.8508 43.3 19.3086 42.7536 19.5082C42.5626 19.578 42.3982 19.5729 42.2457 19.4167C42.0624 19.2291 41.9085 19.0084 41.6661 18.8827C41.6191 18.8584 41.5587 18.807 41.554 18.7627C41.5291 18.5301 41.3386 18.4786 41.1769 18.3915C41.023 18.3085 40.8373 18.2545 40.8246 18.0312C40.8238 18.0192 40.8048 18.0058 40.7916 17.9973C40.4739 17.7949 40.1856 17.5458 39.8667 17.3524C39.5251 17.1453 39.2575 16.8603 38.955 16.614C38.8944 16.5646 38.9314 16.3932 38.9274 16.2778C38.925 16.209 38.9191 16.1586 38.8425 16.1179C38.7565 16.0725 38.7364 16.1188 38.6842 16.1656C38.4189 16.4035 38.1573 16.2267 37.8984 16.1422C37.8049 16.1118 37.7218 16.0507 37.6291 16.0174C37.3069 15.9021 37.1949 15.6639 37.2214 15.3357Z" fill="black"/>
<path d="M30.4171 45.432C30.531 45.44 30.5992 45.5285 30.6495 45.5973C30.9327 45.9852 31.1913 46.3911 31.4761 46.7778C31.7722 47.1797 32.0731 47.5803 32.4037 47.9534C32.5291 48.0948 32.6253 48.2537 32.7451 48.3968C32.8429 48.5136 32.6844 48.7143 32.4784 48.7172C32.2777 48.72 32.0835 48.7584 31.8903 48.7955C31.2718 48.914 30.9474 49.374 30.6742 49.8824C30.6198 49.9836 30.5647 50.0697 30.4432 50.0745C30.3091 50.0798 30.2469 49.9917 30.19 49.8792C29.8561 49.2189 29.376 48.7658 28.588 48.7149C28.3144 48.6972 28.1842 48.5736 28.3612 48.2598C28.6077 47.8229 28.9384 47.4486 29.2191 47.0378C29.5461 46.5593 29.8719 46.0799 30.1864 45.5931C30.249 45.4964 30.3504 45.4955 30.4171 45.432Z" fill="black"/>
<path d="M30.3351 43.8512C29.5042 43.8602 28.7836 43.126 28.7827 42.3075C28.7815 41.4012 29.4853 40.7097 30.3534 40.7059C31.2238 40.702 31.9299 41.4077 31.9302 42.2748C31.9305 43.1568 31.228 43.851 30.3351 43.8512Z" fill="black"/>
<path d="M18.7243 18.0264C18.8192 18.3966 18.4781 18.6192 18.3065 18.9051C18.1175 19.2201 17.8585 19.4841 17.5609 19.7206C17.3669 19.8748 17.2507 20.1444 17.1394 20.3809C16.9006 20.8882 16.5701 21.3406 16.3072 21.8319C16.1126 22.1953 15.8375 22.4946 15.575 22.7992C15.2039 23.2299 14.6572 23.4168 14.0893 23.0221C13.9177 22.9029 13.8734 22.6984 13.73 22.5637C13.7048 22.54 13.7017 22.4596 13.7605 22.4352C13.8074 22.4157 13.8457 22.3533 13.9157 22.408C14.3533 22.7494 14.6623 22.4493 14.9612 22.1793C15.536 21.66 15.9254 20.9983 16.3315 20.3503C16.4257 20.2 16.4924 20.0361 16.6045 19.8927C16.6925 19.78 16.6882 19.644 16.5892 19.4944C16.3538 19.1382 16.0781 18.792 16.127 18.3159C16.1504 18.0876 16.4107 17.9062 16.6303 17.9919C16.8755 18.0876 17.0884 18.2236 17.2141 18.4654C17.3471 18.721 17.4721 18.7315 17.6515 18.4645C17.7851 18.2658 17.9281 18.0684 18.0743 17.8773C18.1501 17.7784 18.1513 17.689 18.127 17.6049C18.0931 17.4873 17.9695 17.5392 17.8895 17.5438C17.59 17.5614 17.3567 17.4919 17.1919 17.2047C17.1278 17.0931 17.1259 16.9983 17.1493 16.9081C17.1755 16.8064 17.2927 16.8583 17.3687 16.8565C17.872 16.8445 18.275 17.0088 18.5405 17.4727C18.701 17.7532 18.7243 17.7399 18.7243 18.0264ZM16.8019 19.1055C17.0159 19.1313 17.1134 19.0468 17.1283 18.9049C17.1445 18.75 16.9778 18.721 16.8893 18.7123C16.759 18.6996 16.6438 18.8088 16.6228 18.94C16.5953 19.1113 16.7503 19.0936 16.8019 19.1055Z" fill="black"/>
<path d="M21.5533 14.7886C21.7795 14.8713 21.9582 15.0463 22.194 14.9431C22.252 14.9178 22.3272 14.9116 22.35 14.8384C22.3786 14.7469 22.2951 14.7337 22.2441 14.6968C22.167 14.641 22.1065 14.1351 22.1767 14.0731C22.2442 14.0136 22.3416 14.0251 22.413 14.0553C22.7046 14.1784 23.0962 14.8665 23.0073 15.1977C22.9212 15.5187 22.5583 15.7726 22.1706 15.7804C22.0008 15.7839 21.8982 15.8175 21.8235 16.0075C21.733 16.2373 21.5076 16.3876 21.2631 16.4236C21.1005 16.4476 21.0112 16.5241 20.9007 16.623C20.7283 16.777 20.5954 16.9735 20.3886 17.0922C20.28 17.1546 20.3062 17.293 20.347 17.3599C20.5248 17.6508 20.5203 17.9656 20.5377 18.2886C20.5696 18.8839 20.0743 19.4239 19.6092 19.585C19.5322 19.6117 19.4517 19.6302 19.3714 19.6453C19.2832 19.662 19.1982 19.6308 19.1544 19.5592C19.1029 19.4751 19.2123 19.4425 19.2499 19.4124C19.6458 19.0959 19.7923 18.615 20.0203 18.1972C20.094 18.0625 20.1339 17.8392 20.1523 17.6461C20.1757 17.4022 20.0409 17.3169 19.8438 17.2938C19.7128 17.2783 19.5829 17.2678 19.4518 17.2441C19.1458 17.1888 18.9427 16.8709 19.0482 16.5709C19.0867 16.4614 19.1943 16.4268 19.2915 16.4614C19.8369 16.6563 20.1478 16.2549 20.5084 15.9876C20.5977 15.9214 20.5437 15.7995 20.547 15.7038C20.5558 15.4543 20.5963 15.4209 20.82 15.5092C21.0009 15.5808 21.1756 15.5686 21.3433 15.4762C21.4768 15.4026 21.5802 15.3099 21.5557 15.1306C21.5418 15.027 21.5533 14.9196 21.5533 14.7886Z" fill="black"/>
<path d="M30.1817 15.1442C30.6346 15.1286 30.941 15.3169 31.2202 15.5504C31.3969 15.6982 31.5548 15.8705 31.709 16.0426C31.8161 16.162 31.8544 16.3144 31.6837 16.4039C31.1566 16.6801 30.7049 17.0498 30.3208 17.4971C30.1681 17.675 30.0196 17.6419 29.9123 17.5165C29.53 17.0696 29.0444 16.7608 28.5586 16.4507C28.4498 16.3813 28.4551 16.2895 28.5094 16.2226C28.6696 16.025 28.7698 15.7802 28.9909 15.6295C29.3728 15.3689 29.7496 15.1031 30.1817 15.1442Z" fill="black"/>
<path d="M45.9391 20.8701C45.9391 21.6018 45.58 22.0602 44.9478 22.2364C44.7904 22.2802 44.6581 22.2289 44.547 22.1751C44.1801 21.9972 43.8514 21.7582 43.614 21.4156C43.4854 21.2299 43.5349 21.0279 43.764 20.8458C43.9221 20.7201 44.0755 20.7454 44.2164 20.8914C44.4157 21.0978 44.6254 21.2943 44.821 21.504C44.9158 21.6057 45.0097 21.6484 45.1455 21.6018C45.2925 21.5512 45.2466 21.4318 45.2529 21.3307C45.2724 21.021 45.1954 20.7352 45.063 20.4552C44.9542 20.2252 45.0907 19.9824 45.3546 19.8879C45.5458 19.8193 45.778 19.9332 45.8253 20.1714C45.8752 20.4208 46.0339 20.6592 45.9391 20.8701Z" fill="black"/>
<path d="M36.7964 13.9986C36.8654 14.5149 36.5468 14.8383 36.2656 15.1575C36.1135 15.3301 35.8642 15.3342 35.6425 15.2239C35.4113 15.109 35.1812 15.025 35.1992 14.671C35.2168 14.3253 35.3935 14.0863 35.5793 13.8358C35.6908 13.6855 35.806 13.5381 35.9177 13.3881C36.0493 13.2115 36.3659 13.2325 36.5935 13.4203C36.7903 13.5826 36.8413 13.785 36.7964 13.9986ZM35.7962 14.2098C35.7959 14.3881 35.9527 14.5354 36.1348 14.538C36.2305 14.5393 36.2749 14.4432 36.2869 14.4057C36.3218 14.2959 36.0482 14.0347 35.9197 14.0259C35.7662 14.0152 35.8024 14.1252 35.7962 14.2098Z" fill="black"/>
<path d="M45.3335 18.4061C45.3422 18.5082 45.3104 18.5631 45.2493 18.6333C44.7611 19.1951 44.291 19.7729 43.802 20.334C43.6893 20.4633 43.5248 20.5473 43.3845 20.6528C43.3109 20.7081 43.2735 20.6804 43.2077 20.6187C43.1345 20.5502 43.1315 20.5001 43.1748 20.4312C43.2648 20.2878 43.3334 20.1159 43.4579 20.0121C43.6929 19.8161 43.8036 19.5224 44.0403 19.3331C44.333 19.0991 44.4653 18.7329 44.7387 18.48C44.8647 18.3635 45.0048 18.2936 45.1659 18.263C45.2823 18.2411 45.3741 18.2697 45.3335 18.4061Z" fill="black"/>
<path d="M42.1218 15.6732C42.1731 15.4947 42.0906 15.2388 42.3732 15.2018C42.5472 15.179 42.7411 15.1631 42.8149 15.3857C42.8589 15.5184 42.8026 15.7332 42.7431 15.7473C42.5632 15.7898 42.3579 15.9608 42.1672 15.7056C42.1024 15.8466 42.1249 15.9573 42.1348 16.0748C42.2512 15.9291 42.5737 15.8198 42.6778 15.9143C42.8028 16.0275 42.8682 16.1736 42.7828 16.3647C42.7141 16.5186 42.6064 16.5812 42.4608 16.5824C42.288 16.5839 42.1527 16.4816 42.148 16.3128C42.1419 16.0883 42.0181 16.1079 41.8875 16.1565C41.7135 16.2212 41.5582 16.1888 41.5024 16.0271C41.4516 15.8798 41.4568 15.693 41.6227 15.585C41.7601 15.4956 42.0232 15.5456 42.1218 15.6732Z" fill="black"/>
<path d="M20.4505 13.8222C20.5456 13.6716 20.8651 13.5731 20.9982 13.6532C21.1132 13.7225 21.1629 14.0613 21.076 14.1846C21.0151 14.2712 20.614 14.274 20.4657 14.1891C20.322 14.3265 20.5734 14.4135 20.5006 14.5838C20.3962 14.8284 20.2054 14.7501 20.0586 14.7663C19.9024 14.7836 19.831 14.6427 19.8469 14.4825C19.8636 14.3133 19.8885 14.1231 20.1127 14.1494C20.3898 14.1818 20.493 14.0825 20.4574 13.8155L20.4505 13.8222Z" fill="black"/>
<path d="M27.5616 11.0212C27.5624 11.278 27.4212 11.391 27.1983 11.2944C26.9943 11.206 26.8646 11.1781 26.7084 11.3992C26.6144 11.5324 26.379 11.5108 26.2278 11.4073C26.1111 11.3275 26.1426 11.1532 26.1947 11.0688C26.2668 10.9518 26.3807 10.815 26.5761 10.909C26.6892 10.9633 26.8082 10.9314 26.8716 10.8156C27.0042 10.5735 27.1959 10.6945 27.3665 10.7326C27.5208 10.767 27.5858 10.8819 27.5616 11.0212Z" fill="black"/>
<path d="M18.6184 20.4226C18.6544 20.5569 18.5833 20.6203 18.4667 20.6562C18.278 20.7142 18.1744 20.8312 18.2227 21.0388C18.2695 21.2401 18.1268 21.2994 17.9866 21.3466C17.8492 21.393 17.7518 21.3397 17.6764 21.2055C17.5613 21.0009 17.7113 20.9215 17.8369 20.8492C18.0019 20.7543 18.1495 20.6913 17.9567 20.475C17.8694 20.377 18.1786 20.086 18.3518 20.125C18.4954 20.1574 18.6772 20.1939 18.6184 20.4226Z" fill="black"/>
<path d="M44.1199 16.7539C44.324 16.7128 44.4215 16.8588 44.4244 17.035C44.4281 17.2806 44.3129 17.4198 44.0836 17.4366C43.8872 17.451 43.7447 17.3011 43.7471 17.1081C43.7506 16.831 43.826 16.7551 44.1199 16.7539Z" fill="black"/>
<path d="M20.4573 13.8156C20.3847 13.9944 20.2344 14.0545 20.0591 14.0736C19.8938 14.0914 19.76 14.043 19.7499 13.857C19.7403 13.6785 19.7346 13.4805 19.9824 13.4419C20.288 13.3944 20.4029 13.4911 20.45 13.8228C20.4504 13.8222 20.4573 13.8156 20.4573 13.8156Z" fill="black"/>
<path d="M14.7891 19.9174C15.0081 19.8822 15.0907 20.0314 15.1027 20.206C15.1185 20.4351 14.9473 20.5597 14.6685 20.5516C14.5021 20.5468 14.4241 20.4559 14.4229 20.2888C14.4205 19.998 14.4963 19.9174 14.7891 19.9174Z" fill="black"/>
<path d="M30.3906 10.9959C30.3768 10.8183 30.4331 10.69 30.6323 10.68C30.836 10.6696 30.9746 10.8184 30.9767 11.0292C30.9785 11.2032 30.9152 11.3124 30.7259 11.3136C30.5039 11.3148 30.3903 11.2069 30.3906 10.9959Z" fill="black"/>
<path d="M39.9219 13.5345C40.1113 13.3813 40.3143 13.4262 40.4922 13.4496C40.6993 13.4767 40.9044 13.4878 41.1114 13.4905C41.1988 13.4916 41.3044 13.5129 41.3058 13.6011C41.3079 13.7379 41.1813 13.6627 41.1138 13.6711C40.7803 13.7124 40.4526 13.6086 40.1196 13.6234C40.047 13.6266 39.9994 13.5795 39.9219 13.5345Z" fill="black"/>
</g>
<defs>
<clipPath id="clip0_1344_143">
<rect width="60" height="60" fill="white"/>
</clipPath>
</defs>
</svg>
