<svg width="24" height="25" viewBox="0 0 24 25" fill="none" xmlns="http://www.w3.org/2000/svg">
    <g id="Ticket Star">
        <g id="Iconly/Light/Ticket-Star">
            <g id="Ticket-Star">
                <path id="Stroke-1" fill-rule="evenodd" clip-rule="evenodd"
                      d="M17.857 20.917C19.73 20.917 21.249 19.399 21.25 17.526V17.524V14.824C20.013 14.824 19.011 13.822 19.01 12.585C19.01 11.349 20.012 10.346 21.249 10.346L21.25 7.646C21.252 5.772 19.735 4.252 17.862 4.25H17.856H6.144C4.27 4.25 2.751 5.768 2.75 7.642V10.433C3.944 10.391 4.945 11.325 4.987 12.519C4.988 12.541 4.989 12.563 4.989 12.585C4.99 13.82 3.991 14.822 2.756 14.824H2.75V17.524C2.749 19.397 4.268 20.917 6.141 20.917H17.857Z"
                      stroke="#1F2B3D" stroke-width="1.2" stroke-linecap="round" stroke-linejoin="round"/>
                <path id="Stroke-3" fill-rule="evenodd" clip-rule="evenodd"
                      d="M12.3716 9.56303L12.9876 10.81C13.0476 10.932 13.1636 11.017 13.2986 11.037L14.6756 11.238C15.0166 11.288 15.1516 11.706 14.9056 11.945L13.9096 12.915C13.8116 13.01 13.7676 13.147 13.7896 13.282L14.0246 14.652C14.0826 14.991 13.7276 15.249 13.4236 15.089L12.1926 14.442C12.0716 14.378 11.9276 14.378 11.8066 14.442L10.5766 15.089C10.2716 15.249 9.91658 14.991 9.97458 14.652L10.2096 13.282C10.2326 13.147 10.1876 13.01 10.0896 12.915L9.09458 11.945C8.84858 11.706 8.98358 11.288 9.32358 11.238L10.7006 11.037C10.8356 11.017 10.9526 10.932 11.0126 10.81L11.6276 9.56303C11.7796 9.25503 12.2196 9.25503 12.3716 9.56303Z"
                      stroke="#1F2B3D" stroke-width="1.2" stroke-linecap="round" stroke-linejoin="round"/>
            </g>
        </g>
    </g>
</svg>
