<svg width="72" height="48" viewBox="0 0 72 48" fill="none" xmlns="http://www.w3.org/2000/svg">
<path fill-rule="evenodd" clip-rule="evenodd" d="M65.9448 0.622953L47.0156 38.4485L48.5973 41.4424L66.3988 8.07438L66.3989 8.07433C66.6718 7.56283 67.3789 7.51684 67.7144 7.98853L69.762 10.8693L69.762 10.8693C69.9377 11.1165 69.9572 11.4446 69.8109 11.7117C69.8108 11.7117 69.8108 11.7118 69.8107 11.7119L49.9273 47.9999L49.096 47.5328L68.9264 11.3416L67.1041 8.77785L49.2809 42.1864L49.2809 42.1866C48.9861 42.7385 48.2033 42.7371 47.9107 42.1836L47.9107 42.1835L46.1349 38.8224L46.1349 38.8223C46.0152 38.5955 46.0124 38.3243 46.1266 38.0953L46.1267 38.095L46.1269 38.0947L65.0968 0.187744L65.9448 0.622953Z" fill="#1F2B3D" fill-opacity="0.4"/>
<path fill-rule="evenodd" clip-rule="evenodd" d="M67.8362 0.411913L48.6782 38.3344L50.2633 41.5951L68.1295 7.97156C68.3934 7.47465 69.0817 7.43326 69.402 7.89485L71.4759 10.8837L71.4759 10.8837C71.6409 11.1215 71.6574 11.434 71.5179 11.6883L71.5178 11.6884L51.6 47.9676L50.8195 47.5281L70.6933 11.3289L68.8054 8.60807L50.9171 42.2731C50.6285 42.8166 49.8544 42.8018 49.5856 42.2487M49.5855 42.2486L47.8451 38.6683L47.8451 38.6683C47.7407 38.4536 47.7424 38.2012 47.8503 37.9877L67.0411 0L67.8362 0.411913M70.7452 11.4037L70.7452 11.4037L70.7452 11.4037ZM50.1308 41.8444C50.1307 41.8445 50.1307 41.8446 50.1306 41.8446L50.1307 41.8446L50.1308 41.8444ZM48.6454 38.3994C48.6454 38.3995 48.6453 38.3996 48.6452 38.3998L48.6453 38.3997L48.6454 38.3994ZM48.6463 38.2688L48.6463 38.2688L48.6463 38.2688Z" fill="#1F2B3D" fill-opacity="0.4"/>
<path d="M8.39382 7.19456H0.17627L20.0179 47.4547H28.4372L34.0908 35.9383L39.9388 47.4547H48.3581L38.3328 27.4632L44.1809 15.8884L50.0289 27.4632L54.0765 18.7548L48.4877 7.19456H39.874L34.1556 18.7548L24.9009 0.462646L19.9531 7.19456L29.9208 27.4632L24.1663 38.8776L8.39382 7.19456Z" fill="#1F2B3D" fill-opacity="0.4"/>
</svg>
