<svg width="72" height="48" viewBox="0 0 72 48" fill="none" xmlns="http://www.w3.org/2000/svg">
<path fill-rule="evenodd" clip-rule="evenodd" d="M65.7685 0.622953L46.8393 38.4485L48.421 41.4424L66.2226 8.07438L66.2226 8.07433C66.4956 7.56283 67.2027 7.51684 67.5381 7.98853L69.5857 10.8693L69.5858 10.8693C69.7615 11.1165 69.781 11.4446 69.6346 11.7117C69.6346 11.7117 69.6345 11.7118 69.6345 11.7119L49.751 47.9999L48.9197 47.5328L68.7501 11.3416L66.9278 8.77785L49.1047 42.1864L49.1046 42.1866C48.8098 42.7385 48.027 42.7371 47.7344 42.1836L47.7344 42.1835L45.9587 38.8224L45.9586 38.8223C45.8389 38.5955 45.8361 38.3243 45.9503 38.0953L45.9505 38.095L45.9506 38.0947L64.9205 0.187744L65.7685 0.622953Z" fill="#1F2B3D"/>
<path fill-rule="evenodd" clip-rule="evenodd" d="M67.6599 0.411913L48.502 38.3344L50.087 41.5951L67.9532 7.97156C68.2172 7.47465 68.9054 7.43326 69.2257 7.89485L71.2996 10.8837L71.2996 10.8837C71.4646 11.1215 71.4811 11.434 71.3416 11.6883L71.3415 11.6884L51.4238 47.9676L50.6432 47.5281L70.5171 11.3289L68.6291 8.60807L50.7409 42.2731C50.4522 42.8166 49.6781 42.8018 49.4093 42.2487M49.4093 42.2486L47.6689 38.6683L47.6688 38.6683C47.5645 38.4536 47.5661 38.2012 47.674 37.9877L66.8648 0L67.6599 0.411913M70.5689 11.4037L70.5689 11.4037L70.5689 11.4037ZM49.9545 41.8444C49.9545 41.8445 49.9544 41.8446 49.9544 41.8446L49.9544 41.8446L49.9545 41.8444ZM48.4692 38.3994C48.4691 38.3995 48.469 38.3996 48.469 38.3998L48.469 38.3997L48.4692 38.3994ZM48.4701 38.2688L48.4701 38.2688L48.4701 38.2688Z" fill="#1F2B3D"/>
<path d="M8.21755 7.19456H0L19.8417 47.4547H28.2609L33.9145 35.9383L39.7626 47.4547H48.1818L38.1565 27.4632L44.0046 15.8884L49.8527 27.4632L53.9002 18.7548L48.3114 7.19456H39.6978L33.9793 18.7548L24.7247 0.462646L19.7769 7.19456L29.7445 27.4632L23.9901 38.8776L8.21755 7.19456Z" fill="#1F2B3D"/>
</svg>
