<svg width="554" height="550" viewBox="0 0 554 550" fill="none" xmlns="http://www.w3.org/2000/svg">
<path d="M548.747 275C548.747 125.834 427.013 4.91071 276.845 4.91071C126.678 4.91071 4.94336 125.834 4.94336 275C4.94336 424.166 126.678 545.089 276.845 545.089C427.013 545.089 548.747 424.166 548.747 275Z" stroke="#B3C1D5"/>
<mask id="mask0_911_607" style="mask-type:luminance" maskUnits="userSpaceOnUse" x="159" y="158" width="237" height="235">
<path d="M395.577 158H159V393H395.577V158Z" fill="white"/>
</mask>
<g mask="url(#mask0_911_607)">
<path d="M277.289 179.159C308.893 179.159 312.636 179.297 325.066 179.847C336.617 180.352 342.856 182.28 347.014 183.887C352.512 185.998 356.487 188.569 360.599 192.654C364.757 196.784 367.298 200.686 369.425 206.148C371.041 210.279 372.982 216.521 373.491 227.949C374.045 240.342 374.184 244.06 374.184 275.408C374.184 306.803 374.045 310.521 373.491 322.867C372.982 334.342 371.041 340.538 369.425 344.669C367.298 350.131 364.711 354.078 360.599 358.163C356.44 362.294 352.512 364.819 347.014 366.93C342.856 368.537 336.572 370.464 325.066 370.969C312.59 371.519 308.848 371.657 277.289 371.657C245.683 371.657 241.941 371.519 229.511 370.969C217.959 370.464 211.721 368.537 207.563 366.93C202.064 364.819 198.09 362.248 193.978 358.163C189.82 354.032 187.278 350.131 185.153 344.669C183.536 340.538 181.595 334.296 181.086 322.867C180.532 310.475 180.393 306.757 180.393 275.408C180.393 244.014 180.532 240.296 181.086 227.949C181.595 216.475 183.536 210.279 185.153 206.148C187.278 200.686 189.865 196.738 193.978 192.654C198.137 188.523 202.064 185.998 207.563 183.887C211.721 182.28 218.005 180.352 229.511 179.847C241.941 179.297 245.683 179.159 277.289 179.159ZM277.289 158C245.175 158 241.155 158.138 228.541 158.688C215.973 159.24 207.332 161.259 199.846 164.15C192.038 167.18 185.43 171.173 178.869 177.736C172.261 184.254 168.241 190.818 165.191 198.529C162.281 206.01 160.248 214.547 159.693 227.031C159.139 239.608 159 243.601 159 275.5C159 307.399 159.139 311.392 159.693 323.923C160.248 336.407 162.281 344.99 165.191 352.426C168.241 360.182 172.261 366.747 178.869 373.264C185.43 379.781 192.038 383.82 199.801 386.804C207.332 389.695 215.926 391.714 228.495 392.266C241.109 392.816 245.129 392.954 277.242 392.954C309.356 392.954 313.376 392.816 325.99 392.266C338.558 391.714 347.199 389.695 354.685 386.804C362.448 383.82 369.055 379.781 375.616 373.264C382.177 366.747 386.243 360.182 389.247 352.471C392.158 344.99 394.191 336.453 394.745 323.969C395.3 311.438 395.438 307.445 395.438 275.546C395.438 243.647 395.3 239.654 394.745 227.123C394.191 214.639 392.158 206.056 389.247 198.62C386.336 190.818 382.316 184.254 375.709 177.736C369.147 171.219 362.539 167.18 354.777 164.196C347.245 161.305 338.651 159.286 326.083 158.734C313.422 158.138 309.402 158 277.289 158Z" fill="#B3C1D5"/>
<path d="M277.287 215.143C243.742 215.143 216.525 242.178 216.525 275.5C216.525 308.822 243.742 335.857 277.287 335.857C310.833 335.857 338.049 308.822 338.049 275.5C338.049 242.178 310.833 215.143 277.287 215.143ZM277.287 314.651C255.524 314.651 237.874 297.118 237.874 275.5C237.874 253.882 255.524 236.349 277.287 236.349C299.05 236.349 316.701 253.882 316.701 275.5C316.701 297.118 299.05 314.651 277.287 314.651Z" fill="#B3C1D5"/>
<path d="M354.638 212.756C354.638 220.559 348.261 226.847 340.452 226.847C332.597 226.847 326.268 220.513 326.268 212.756C326.268 204.954 332.643 198.666 340.452 198.666C348.261 198.666 354.638 205 354.638 212.756Z" fill="#B3C1D5"/>
</g>
</svg>
