<svg width="550" height="550" viewBox="0 0 550 550" fill="none" xmlns="http://www.w3.org/2000/svg">
<path d="M545.089 275C545.089 125.834 424.166 4.91071 274.999 4.91071C125.833 4.91071 4.91016 125.834 4.91016 275C4.91016 424.166 125.833 545.089 274.999 545.089C424.166 545.089 545.089 424.166 545.089 275Z" stroke="#B3C1D5"/>
<mask id="mask0_911_616" style="mask-type:luminance" maskUnits="userSpaceOnUse" x="158" y="158" width="235" height="235">
<path d="M393 158H158V393H393V158Z" fill="white"/>
</mask>
<g mask="url(#mask0_911_616)">
<path d="M375.604 158H175.35C165.757 158 158 165.573 158 174.937V376.017C158 385.381 165.757 393 175.35 393H375.604C385.197 393 393 385.381 393 376.063V174.937C393 165.573 385.197 158 375.604 158ZM227.72 358.255H192.837V246.079H227.72V358.255ZM210.279 230.795C199.079 230.795 190.037 221.753 190.037 210.6C190.037 199.446 199.079 190.405 210.279 190.405C221.431 190.405 230.474 199.446 230.474 210.6C230.474 221.707 221.431 230.795 210.279 230.795ZM358.255 358.255H323.417V303.727C323.417 290.738 323.188 273.985 305.288 273.985C287.158 273.985 284.405 288.167 284.405 302.81V358.255H249.614V246.079H283.027V261.409H283.486C288.122 252.596 299.505 243.28 316.442 243.28C351.737 243.28 358.255 266.504 358.255 296.705V358.255Z" fill="#B3C1D5"/>
</g>
</svg>
