<svg width="554" height="550" viewBox="0 0 554 550" fill="none" xmlns="http://www.w3.org/2000/svg">
<path d="M548.747 275C548.747 125.834 427.013 4.91071 276.845 4.91071C126.678 4.91071 4.94336 125.834 4.94336 275C4.94336 424.166 126.678 545.089 276.845 545.089C427.013 545.089 548.747 424.166 548.747 275Z" stroke="#B3C1D5"/>
<g clip-path="url(#clip0_914_224505)">
<path fill-rule="evenodd" clip-rule="evenodd" d="M395 275.5C395 340.393 342.393 393 277.5 393C212.607 393 160 340.393 160 275.5C160 210.607 212.607 158 277.5 158C342.393 158 395 210.607 395 275.5ZM288.027 241.88L208.902 274.481C194.978 279.915 203.129 285.009 203.129 285.009C203.129 285.009 215.014 289.084 225.202 292.14C235.39 295.197 240.824 291.801 240.824 291.801L288.707 259.539C305.686 247.993 301.611 257.501 297.536 261.577C288.707 270.406 274.104 284.329 261.879 295.536C256.445 300.29 259.162 304.366 261.539 306.403C268.45 312.251 284.722 322.883 292.119 327.716C294.173 329.058 295.543 329.953 295.838 330.175C297.536 331.533 307.045 337.646 312.818 336.288C318.591 334.929 319.27 327.118 319.27 327.118L327.76 273.802C328.514 268.804 329.269 263.91 329.973 259.347C331.802 247.478 333.288 237.843 333.533 234.409C334.552 222.863 322.326 227.617 322.326 227.617C322.326 227.617 295.838 238.484 288.027 241.88Z" fill="#B3C1D5"/>
</g>
<defs>
<clipPath id="clip0_914_224505">
<rect width="235" height="235" fill="white" transform="translate(160 158)"/>
</clipPath>
</defs>
</svg>
