<svg width="555" height="550" viewBox="0 0 555 550" fill="none" xmlns="http://www.w3.org/2000/svg">
<path d="M549.439 275C549.439 125.834 427.704 4.91071 277.537 4.91071C127.369 4.91071 5.63477 125.834 5.63477 275C5.63477 424.166 127.369 545.089 277.537 545.089C427.704 545.089 549.439 424.166 549.439 275Z" stroke="#B3C1D5"/>
<path fill-rule="evenodd" clip-rule="evenodd" d="M211.039 158.282C213.828 158.051 228.175 158 277.23 158H315.473C343.034 158.048 344.603 158.275 349.838 159.034L350.142 159.077C361.471 160.712 370.977 165.231 378.751 172.658C383.106 176.85 386.107 180.951 388.809 186.441C392.101 193.148 393.719 199.494 394.46 208.931C394.619 210.955 394.691 243.178 394.691 275.423C394.691 307.662 394.625 339.945 394.466 341.97C393.734 351.257 392.116 357.657 388.926 364.237C382.582 377.326 370.925 386.871 356.845 390.505C351.74 391.825 347.122 392.445 339.169 392.819C336.332 392.964 306.655 393 276.978 393C247.302 393 217.643 392.91 214.733 392.783C207.865 392.458 202.516 391.771 197.672 390.523C183.683 386.908 171.809 377.218 165.591 364.31C162.338 357.566 160.802 351.402 159.989 341.603C159.754 338.819 159.699 324.483 159.699 275.454C159.699 269.447 159.697 263.996 159.695 259.04C159.691 250.37 159.688 243.218 159.699 237.263C159.746 209.664 159.97 208.116 160.733 202.849C160.746 202.758 160.76 202.667 160.773 202.574C162.409 191.253 166.927 181.73 174.382 173.989C178.476 169.744 182.624 166.716 187.883 164.103C194.708 160.705 200.972 159.119 211.039 158.282ZM256.44 284.266L189.004 194.775H244.437L286.335 251.132L338.427 194.775H359.248L295.957 262.989L366.075 357.4H310.643L265.064 296.12L208.413 357.4H188.592L256.44 284.266ZM236.968 209.691H218.799L318.109 342.484H336.278L236.968 209.691Z" fill="#B3C1D5"/>
</svg>
