<svg width="554" height="550" viewBox="0 0 554 550" fill="none" xmlns="http://www.w3.org/2000/svg">
<path d="M548.747 275C548.747 125.834 427.013 4.91071 276.845 4.91071C126.678 4.91071 4.94336 125.834 4.94336 275C4.94336 424.166 126.678 545.089 276.845 545.089C427.013 545.089 548.747 424.166 548.747 275Z" stroke="#B3C1D5"/>
<g clip-path="url(#clip0_914_224496)">
<path opacity="0.12" d="M253.266 239.092L308.986 276.27L316.789 272.23L253.266 239.092Z" fill="#B3C1D5"/>
<path d="M392.522 227.617C392.522 227.617 390.228 211.461 383.163 204.301C374.262 194.938 364.26 194.938 359.58 194.387C326.822 192 277.546 192 277.546 192H277.454C277.454 192 228.178 192 195.236 194.387C190.648 194.938 180.646 194.938 171.654 204.301C164.68 211.461 162.386 227.617 162.386 227.617C162.386 227.617 160 246.711 160 265.713V283.521C160 302.523 162.386 321.525 162.386 321.525C162.386 321.525 164.68 337.682 171.745 344.842C180.646 354.205 192.392 353.93 197.622 354.848C216.433 356.684 277.454 357.234 277.454 357.234C277.454 357.234 326.822 357.143 359.672 354.756C364.26 354.205 374.262 354.205 383.255 344.842C390.32 337.682 392.614 321.525 392.614 321.525C392.614 321.525 395 302.523 395 283.521V265.713C394.908 246.711 392.522 227.617 392.522 227.617ZM253.229 305.094V239.092L316.728 272.23L253.229 305.094Z" fill="#B3C1D5"/>
</g>
<defs>
<clipPath id="clip0_914_224496">
<rect width="235" height="165.234" fill="white" transform="translate(160 192)"/>
</clipPath>
</defs>
</svg>
