<svg width="4960" height="3291" viewBox="0 0 4960 3291" fill="none" xmlns="http://www.w3.org/2000/svg">
<path d="M4521.5 57.5L3219.44 2626.74C3216.35 2632.86 3216.43 2640.1 3219.66 2646.14L3342.94 2876.56C3350.84 2891.32 3371.98 2891.36 3379.94 2876.64L4626.41 569.494C4633.78 555.857 4652.87 554.628 4661.93 567.208L4804.08 764.689C4808.83 771.289 4809.35 780.037 4805.4 787.147L3441 3246" stroke="#02004C" stroke-width="66" stroke-linecap="square"/>
<path d="M4655.5 42L3337.3 2618.62C3334.28 2624.52 3334.23 2631.51 3337.16 2637.46L3457.99 2882.91C3465.53 2898.23 3487.23 2898.63 3495.32 2883.59L4744.88 561.453C4752.28 547.698 4771.58 546.55 4780.56 559.33L4924.54 764.228C4929.17 770.816 4929.63 779.47 4925.72 786.507L3558 3246.5" stroke="#01003A" stroke-width="62" stroke-linecap="square"/>
<path d="M570.5 493.5H0L1377.5 3253.5H1962L2354.5 2464L2760.5 3253.5H3345L2649 1883L3055 1089.5L3461 1883L3742 1286L3354 493.5H2756L2359 1286L1716.5 32L1373 493.5L2065 1883L1665.5 2665.5L570.5 493.5Z" fill="#01003A"/>
</svg>
